<svg width="213" height="213" viewBox="0 0 213 213" fill="none" xmlns="http://www.w3.org/2000/svg">
<g clip-path="url(#clip0_69_173)">
<path d="M1.31 0H212.53V211.22C212.501 211.549 212.35 211.855 212.107 212.078C211.863 212.301 211.545 212.425 211.215 212.425C210.885 212.425 210.567 212.301 210.323 212.078C210.08 211.855 209.929 211.549 209.9 211.22V2.63H1.31C0.981033 2.60129 0.674775 2.45029 0.45166 2.20685C0.228545 1.96341 0.104736 1.64522 0.104736 1.315C0.104736 0.984787 0.228545 0.666534 0.45166 0.423096C0.674775 0.179658 0.981033 0.0287143 1.31 0Z" fill="url(#paint0_linear_69_173)"/>
<path d="M21.17 11.16H175C175.182 11.1441 175.366 11.1662 175.539 11.2251C175.713 11.2839 175.872 11.3782 176.007 11.5019C176.142 11.6255 176.249 11.7759 176.323 11.9434C176.397 12.1109 176.435 12.2919 176.435 12.475C176.435 12.658 176.397 12.839 176.323 13.0065C176.249 13.174 176.142 13.3245 176.007 13.4481C175.872 13.5718 175.713 13.666 175.539 13.7248C175.366 13.7837 175.182 13.8059 175 13.79H21.17C20.8411 13.7613 20.5348 13.6103 20.3117 13.3669C20.0886 13.1234 19.9648 12.8052 19.9648 12.475C19.9648 12.1448 20.0886 11.8266 20.3117 11.5831C20.5348 11.3397 20.8411 11.1887 21.17 11.16Z" fill="url(#paint1_linear_69_173)"/>
<path d="M200.35 35.12C200.643 35.12 200.923 35.2355 201.131 35.4415C201.339 35.6475 201.457 35.9273 201.46 36.22V190.05C201.434 190.325 201.306 190.58 201.102 190.766C200.897 190.952 200.631 191.055 200.355 191.055C200.079 191.055 199.813 190.952 199.608 190.766C199.404 190.58 199.276 190.325 199.25 190.05V36.22C199.25 35.9282 199.366 35.6484 199.572 35.4421C199.778 35.2358 200.058 35.12 200.35 35.12Z" fill="url(#paint2_linear_69_173)"/>
<path d="M184.72 38.92C184.89 38.74 185.06 38.5699 185.25 38.3999C186.122 37.6025 187.153 36.9994 188.275 36.6305C189.397 36.2615 190.585 36.1353 191.76 36.26C192.232 36.3001 192.7 36.3769 193.16 36.49C194.45 36.7332 195.654 37.3085 196.653 38.159C197.653 39.0095 198.413 40.1058 198.86 41.3399C199.299 42.6339 199.353 44.0275 199.016 45.3517C198.679 46.6759 197.965 47.8738 196.96 48.8C196.369 49.3374 195.672 49.7464 194.915 50.0011C194.158 50.2559 193.356 50.3508 192.56 50.2799C192.223 50.2474 191.889 50.1906 191.56 50.11C190.669 49.9391 189.837 49.5397 189.146 48.9507C188.455 48.3617 187.93 47.6033 187.62 46.75C187.315 45.8717 187.267 44.9248 187.48 44.0199C187.708 43.0573 188.216 42.1838 188.94 41.51C189.756 40.755 190.837 40.3533 191.948 40.3927C193.059 40.432 194.11 40.9091 194.87 41.72C195.001 41.8618 195.096 42.0332 195.146 42.2195C195.196 42.4057 195.201 42.6014 195.16 42.79C195.101 43.0186 194.98 43.2264 194.81 43.39C194.581 43.6008 194.279 43.7128 193.968 43.7015C193.657 43.6903 193.363 43.5567 193.15 43.3299C192.902 43.0599 192.578 42.8716 192.22 42.79C191.925 42.7224 191.617 42.7281 191.324 42.8065C191.031 42.8849 190.762 43.0337 190.54 43.24C190.158 43.5937 189.89 44.0532 189.77 44.56C189.667 45.0351 189.695 45.5293 189.85 45.99C190.031 46.462 190.332 46.8788 190.723 47.1996C191.114 47.5204 191.582 47.7342 192.08 47.82C192.314 47.8728 192.551 47.9095 192.79 47.93C193.261 47.9743 193.736 47.9207 194.185 47.7727C194.634 47.6247 195.048 47.3855 195.4 47.07C196.095 46.4274 196.583 45.5916 196.8 44.67C196.997 43.8179 196.952 42.9277 196.67 42.1C196.357 41.2421 195.821 40.4827 195.119 39.8995C194.416 39.3162 193.571 38.9298 192.67 38.7799C192.301 38.6982 191.927 38.6381 191.55 38.6C190.705 38.5067 189.85 38.594 189.042 38.856C188.233 39.118 187.49 39.5489 186.86 40.12C186.72 40.25 186.59 40.3899 186.46 40.5299C185.628 41.404 185.044 42.4846 184.77 43.66C184.505 44.7677 184.505 45.9222 184.77 47.0299C185.076 48.2766 185.689 49.4268 186.554 50.3753C187.418 51.3239 188.507 52.0406 189.72 52.4599L190.02 52.56C190.537 52.7481 191.064 52.905 191.6 53.0299C193.569 53.461 195.586 53.6358 197.6 53.55C199.235 53.4578 200.874 53.5958 202.47 53.9599C205.612 54.5774 208.381 56.415 210.17 59.07C210.246 59.1728 210.316 59.2796 210.38 59.39C211.102 60.5385 211.383 61.9101 211.17 63.25C211.17 63.4 211.17 63.54 211.09 63.69C210.779 65.0142 210.006 66.1842 208.91 66.99C207.886 67.7381 206.609 68.0526 205.355 67.8655C204.101 67.6783 202.971 67.0044 202.21 65.99C201.87 65.5305 201.633 65.0036 201.514 64.4447C201.395 63.8859 201.397 63.308 201.52 62.75V62.67C201.659 61.9482 202.002 61.2816 202.509 60.7497C203.016 60.2177 203.666 59.8429 204.38 59.67C204.884 59.5548 205.407 59.5548 205.91 59.67C206.712 59.8585 207.421 60.3264 207.91 60.99C208.002 61.1139 208.068 61.2548 208.105 61.4044C208.142 61.554 208.149 61.7095 208.126 61.8619C208.103 62.0143 208.05 62.1607 207.97 62.2925C207.89 62.4243 207.784 62.539 207.66 62.63C207.535 62.7219 207.394 62.7884 207.243 62.8255C207.093 62.8627 206.936 62.8699 206.783 62.8467C206.63 62.8235 206.483 62.7703 206.35 62.6902C206.218 62.6101 206.102 62.5047 206.01 62.38C205.88 62.2023 205.701 62.0667 205.495 61.9903C205.289 61.9138 205.064 61.8998 204.85 61.95C204.6 62.0022 204.375 62.1358 204.21 62.3299C204.001 62.5764 203.86 62.8727 203.8 63.19C203.746 63.4174 203.741 63.6537 203.786 63.8831C203.831 64.1125 203.924 64.3296 204.06 64.5199C204.401 64.9778 204.894 65.3002 205.45 65.43C205.794 65.5081 206.151 65.5109 206.496 65.4385C206.841 65.366 207.167 65.2198 207.45 65.01C208.096 64.538 208.55 63.8494 208.73 63.07C208.752 62.9845 208.769 62.8977 208.78 62.81C208.85 62.3752 208.831 61.931 208.727 61.5033C208.622 61.0757 208.433 60.6733 208.17 60.32L208.12 60.24C206.648 58.1418 204.411 56.7054 201.89 56.24C200.502 55.936 199.079 55.8183 197.66 55.89C195.458 55.9846 193.253 55.793 191.1 55.32C190.466 55.173 189.841 54.986 189.23 54.76L188.95 54.66C187.375 54.1072 185.963 53.1688 184.843 51.9304C183.723 50.692 182.932 49.1929 182.54 47.57C182.164 46.1057 182.147 44.5723 182.49 43.1C182.854 41.5353 183.623 40.0939 184.72 38.92Z" fill="url(#paint3_linear_69_173)"/>
<path d="M172.42 27.2799C172.6 27.1099 172.77 26.93 172.94 26.75C173.715 25.8581 174.294 24.813 174.638 23.6828C174.983 22.5526 175.086 21.3625 174.94 20.19C174.889 19.7182 174.805 19.2504 174.69 18.79C174.414 17.5041 173.808 16.3125 172.931 15.3323C172.054 14.352 170.937 13.6172 169.69 13.2C168.436 12.8002 167.095 12.762 165.82 13.0899C164.45 13.4393 163.217 14.1918 162.28 15.25C161.753 15.8509 161.357 16.5553 161.117 17.3182C160.878 18.081 160.8 18.8855 160.89 19.68C160.929 20.0167 160.989 20.3507 161.07 20.68C161.264 21.5683 161.683 22.3918 162.287 23.0713C162.892 23.7508 163.66 24.2635 164.52 24.56C165.406 24.8359 166.35 24.8635 167.25 24.64C168.201 24.3995 169.06 23.8848 169.72 23.16C170.458 22.3275 170.837 21.2375 170.775 20.1271C170.713 19.0166 170.215 17.9755 169.39 17.23C169.244 17.1028 169.07 17.0127 168.882 16.9674C168.694 16.9222 168.498 16.923 168.31 16.9699C168.081 17.0266 167.875 17.1523 167.72 17.3299C167.593 17.4737 167.503 17.6464 167.458 17.8328C167.412 18.0193 167.413 18.2139 167.46 18.3999C167.521 18.6272 167.646 18.8321 167.82 18.99C168.181 19.3174 168.399 19.7743 168.425 20.2611C168.451 20.748 168.284 21.2256 167.96 21.5899C167.616 21.9797 167.163 22.2583 166.66 22.39C166.192 22.5195 165.698 22.5195 165.23 22.39C164.75 22.2218 164.324 21.9296 163.994 21.5433C163.664 21.1569 163.441 20.69 163.35 20.19C163.29 19.9602 163.246 19.7262 163.22 19.49C163.166 19.0194 163.209 18.5426 163.349 18.0899C163.488 17.6371 163.72 17.2183 164.03 16.86C164.635 16.1781 165.424 15.6858 166.302 15.4427C167.181 15.1996 168.111 15.216 168.98 15.49C169.84 15.7846 170.606 16.3015 171.202 16.9883C171.797 17.675 172.2 18.507 172.37 19.3999C172.464 19.7644 172.531 20.1355 172.57 20.51C172.686 21.3525 172.619 22.2101 172.374 23.0245C172.129 23.8389 171.711 24.591 171.15 25.23C171.02 25.37 170.89 25.51 170.75 25.64C169.905 26.4649 168.861 27.0574 167.72 27.36C166.612 27.6254 165.458 27.6254 164.35 27.36C163.102 27.0835 161.942 26.4997 160.976 25.6615C160.011 24.8233 159.269 23.7572 158.82 22.56L158.71 22.2699C158.513 21.757 158.346 21.2327 158.21 20.7C157.741 18.756 157.526 16.7593 157.57 14.76C157.62 13.1271 157.445 11.4951 157.05 9.90995C156.338 6.789 154.423 4.07549 151.72 2.35996C151.618 2.28304 151.511 2.21287 151.4 2.14994C150.234 1.45484 148.857 1.20284 147.52 1.43998C147.37 1.43998 147.22 1.49994 147.08 1.52994C145.76 1.86774 144.604 2.66562 143.82 3.77994C143.416 4.35402 143.142 5.00944 143.018 5.70035C142.894 6.39127 142.922 7.101 143.1 7.77994C143.369 8.87175 144.018 9.8323 144.93 10.49C145.398 10.8189 145.932 11.0435 146.494 11.1488C147.056 11.254 147.635 11.2373 148.19 11.1H148.28C149.001 10.9524 149.663 10.599 150.187 10.0824C150.71 9.56589 151.073 8.9085 151.23 8.18998C151.34 7.68594 151.34 7.16399 151.23 6.65995C151.029 5.85026 150.542 5.14023 149.86 4.65995C149.717 4.55799 149.553 4.48898 149.38 4.45786C149.207 4.42674 149.03 4.43429 148.86 4.47996C148.586 4.54829 148.348 4.71579 148.19 4.94999C148.087 5.09242 148.017 5.25629 147.986 5.42942C147.955 5.60255 147.963 5.7805 148.01 5.94999C148.076 6.22225 148.24 6.46073 148.47 6.61997C148.611 6.72073 148.727 6.85204 148.811 7.00413C148.894 7.15621 148.941 7.32511 148.95 7.49821C148.959 7.6713 148.928 7.84415 148.861 8.00376C148.793 8.16337 148.69 8.30564 148.56 8.41996C148.316 8.62966 148.024 8.77717 147.71 8.84995C147.483 8.90837 147.246 8.9181 147.015 8.87846C146.784 8.83881 146.565 8.75072 146.37 8.61997C145.905 8.28561 145.576 7.79616 145.44 7.23997C145.354 6.89966 145.342 6.54464 145.406 6.19938C145.47 5.85411 145.608 5.52681 145.81 5.23997C146.265 4.58181 146.944 4.11238 147.72 3.91996L147.98 3.85996C148.855 3.70802 149.754 3.90943 150.48 4.41996L150.57 4.46995C152.708 5.89184 154.202 8.09693 154.73 10.61C155.067 11.9902 155.215 13.4098 155.17 14.8299C155.123 17.0381 155.362 19.243 155.88 21.39C156.038 22.0228 156.239 22.6442 156.48 23.25L156.58 23.5199C157.165 25.083 158.133 26.4747 159.394 27.5682C160.655 28.6616 162.17 29.422 163.8 29.7799C165.269 30.1355 166.801 30.1355 168.27 29.7799C169.854 29.3374 171.288 28.4734 172.42 27.2799Z" fill="url(#paint4_linear_69_173)"/>
<path d="M180.96 0.810007C180.71 0.810007 180.46 0.930009 180.21 1.00001C179.017 1.35148 177.913 1.95222 176.97 2.76246C176.027 3.5727 175.267 4.57398 174.74 5.70002C174.522 6.14997 174.335 6.61435 174.18 7.08997C173.704 8.3847 173.57 9.78058 173.793 11.142C174.016 12.5035 174.586 13.7843 175.45 14.86C176.378 15.9602 177.604 16.7678 178.982 17.1849C180.359 17.6021 181.828 17.6107 183.21 17.21C184.016 16.9694 184.764 16.5632 185.404 16.0173C186.045 15.4715 186.565 14.798 186.93 14.04C187.097 13.7185 187.237 13.3841 187.35 13.04C187.678 12.1409 187.769 11.1724 187.613 10.2282C187.457 9.28389 187.06 8.39583 186.46 7.64997C185.812 6.87485 184.953 6.30511 183.987 6.01032C183.021 5.71553 181.99 5.70847 181.02 5.99C180.322 6.1912 179.685 6.55961 179.162 7.06324C178.639 7.56688 178.247 8.19052 178.02 8.88001C177.765 9.71768 177.765 10.6124 178.02 11.45C178.076 11.6458 178.179 11.8247 178.32 11.9712C178.461 12.1177 178.636 12.2272 178.83 12.29C179.065 12.36 179.315 12.36 179.55 12.29C179.747 12.2359 179.926 12.1334 180.073 11.992C180.22 11.8505 180.329 11.6744 180.39 11.48C180.46 11.2451 180.46 10.9949 180.39 10.76C180.251 10.2654 180.312 9.73591 180.561 9.28651C180.81 8.83711 181.227 8.50414 181.72 8.35999C182.245 8.20469 182.805 8.20469 183.33 8.35999C183.813 8.51988 184.242 8.81069 184.57 9.20002C184.897 9.61921 185.109 10.116 185.186 10.6419C185.263 11.1677 185.203 11.7047 185.01 12.2C184.929 12.4394 184.832 12.6732 184.72 12.9C184.505 13.3478 184.199 13.7462 183.822 14.0698C183.445 14.3934 183.005 14.6352 182.53 14.78C181.609 15.0421 180.633 15.0345 179.716 14.758C178.8 14.4815 177.982 13.9476 177.36 13.22C176.762 12.4727 176.371 11.5816 176.225 10.6358C176.08 9.69 176.185 8.72249 176.53 7.82997C176.656 7.45388 176.806 7.08646 176.98 6.72999C177.353 5.91631 177.896 5.19187 178.572 4.60542C179.248 4.01896 180.042 3.58406 180.9 3.32997L181.48 3.19001C182.721 2.92244 184.01 2.98449 185.22 3.37C186.353 3.74921 187.381 4.38982 188.22 5.24C189.176 6.18591 189.88 7.35534 190.269 8.64228C190.659 9.92922 190.721 11.293 190.45 12.61L190.38 12.94C190.274 13.5099 190.127 14.0714 189.94 14.62C189.268 16.6118 188.341 18.5077 187.18 20.26C186.212 21.6835 185.448 23.2351 184.91 24.87C183.755 28.0332 183.902 31.5254 185.32 34.58C185.32 34.71 185.43 34.83 185.49 34.95C186.136 36.2227 187.219 37.2202 188.54 37.76L188.98 37.93C190.343 38.3717 191.818 38.3114 193.14 37.76C193.818 37.4786 194.427 37.0528 194.925 36.5123C195.422 35.9718 195.796 35.3295 196.02 34.63C196.392 33.5065 196.353 32.2875 195.91 31.19C195.677 30.6358 195.329 30.1373 194.89 29.7271C194.45 29.3169 193.929 29.0043 193.36 28.81H193.28C192.555 28.5342 191.765 28.4752 191.007 28.6403C190.249 28.8055 189.555 29.1875 189.01 29.74C188.64 30.1391 188.36 30.6132 188.19 31.13C187.922 31.9619 187.958 32.8617 188.29 33.67C188.359 33.8341 188.463 33.9814 188.594 34.1022C188.725 34.2229 188.881 34.3142 189.05 34.37C189.328 34.47 189.632 34.47 189.91 34.37C190.077 34.3018 190.226 34.1973 190.347 34.0641C190.468 33.9309 190.558 33.7723 190.61 33.6C190.715 33.3263 190.715 33.0237 190.61 32.75C190.51 32.4823 190.51 32.1877 190.61 31.92C190.662 31.7475 190.755 31.5898 190.88 31.46C191.066 31.2681 191.307 31.1388 191.57 31.09C191.907 31.0427 192.249 31.077 192.57 31.19H192.63C192.867 31.2725 193.084 31.4042 193.267 31.5765C193.45 31.7489 193.594 31.958 193.69 32.19C193.944 32.8227 193.937 33.5302 193.671 34.1579C193.405 34.7856 192.901 35.2825 192.27 35.54C191.494 35.8617 190.629 35.8972 189.83 35.64L189.56 35.54C189.133 35.3655 188.745 35.1076 188.419 34.7814C188.092 34.4551 187.834 34.0671 187.66 33.64L187.61 33.54C186.506 31.0701 186.416 28.2655 187.36 25.73C187.841 24.3117 188.514 22.9659 189.36 21.73C190.641 19.7935 191.666 17.6995 192.41 15.5C192.625 14.8455 192.795 14.1774 192.92 13.5L192.98 13.2C193.34 11.4804 193.263 9.69787 192.757 8.01557C192.25 6.33327 191.33 4.80487 190.08 3.57002C188.961 2.43989 187.59 1.59012 186.08 1.08997C184.429 0.541496 182.661 0.444851 180.96 0.810007Z" fill="url(#paint5_linear_69_173)"/>
<path d="M212.08 29.9C212.08 30.16 212 30.42 211.94 30.67C211.67 31.8829 211.145 33.0245 210.4 34.0193C209.655 35.014 208.708 35.8392 207.62 36.44C207.186 36.6889 206.735 36.9061 206.27 37.09C205.01 37.6532 203.626 37.8811 202.253 37.7515C200.879 37.6218 199.562 37.139 198.43 36.35C197.273 35.4967 196.387 34.3276 195.878 32.9831C195.368 31.6385 195.258 30.1756 195.56 28.7699C195.746 27.9489 196.101 27.1755 196.602 26.499C197.103 25.8224 197.739 25.2574 198.47 24.84C198.793 24.6563 199.127 24.4927 199.47 24.35C200.343 23.9628 201.302 23.8072 202.253 23.8983C203.204 23.9894 204.116 24.324 204.9 24.87C205.715 25.4662 206.338 26.2869 206.693 27.2319C207.048 28.1768 207.12 29.2048 206.9 30.19C206.748 30.8989 206.424 31.5596 205.956 32.114C205.489 32.6685 204.893 33.0997 204.22 33.37C203.407 33.6961 202.515 33.7692 201.66 33.5799C201.461 33.539 201.275 33.4489 201.12 33.3179C200.964 33.1869 200.844 33.0192 200.77 32.8299C200.674 32.6023 200.653 32.3503 200.71 32.11C200.739 31.9467 200.8 31.7909 200.89 31.6517C200.98 31.5125 201.097 31.3927 201.234 31.2995C201.371 31.2063 201.525 31.1415 201.688 31.1089C201.85 31.0764 202.018 31.0767 202.18 31.11C202.554 31.1968 202.945 31.1653 203.3 31.0199C203.594 30.8974 203.854 30.7065 204.06 30.4629C204.265 30.2194 204.409 29.9304 204.48 29.62C204.594 29.0854 204.549 28.5292 204.35 28.0199C204.159 27.5432 203.836 27.1305 203.42 26.8299C202.984 26.5308 202.478 26.3521 201.951 26.3117C201.424 26.2713 200.896 26.3707 200.42 26.6C200.185 26.6916 199.957 26.802 199.74 26.93C199.305 27.1728 198.926 27.5037 198.626 27.9015C198.327 28.2992 198.113 28.7551 198 29.24C197.795 30.2134 197.882 31.2258 198.25 32.15C198.594 33.0061 199.169 33.7502 199.91 34.3C200.695 34.8474 201.61 35.1781 202.563 35.2589C203.517 35.3397 204.474 35.1676 205.34 34.76C205.705 34.6051 206.062 34.4315 206.41 34.24C207.197 33.8134 207.884 33.2231 208.423 32.509C208.963 31.7949 209.344 30.9735 209.54 30.1C209.54 29.9 209.61 29.71 209.64 29.51C209.825 28.2529 209.673 26.9693 209.2 25.79C208.748 24.6819 208.043 23.6954 207.14 22.91C206.131 22.0199 204.915 21.3963 203.603 21.0959C202.292 20.7955 200.926 20.8278 199.63 21.19L199.31 21.28C198.753 21.4265 198.205 21.6069 197.67 21.82C195.726 22.633 193.895 23.6915 192.22 24.97C190.867 26.0318 189.372 26.9001 187.78 27.55C184.699 28.9118 181.204 28.9981 178.06 27.79L177.68 27.65C176.372 27.0833 175.309 26.0694 174.68 24.79C174.61 24.65 174.55 24.51 174.49 24.36C173.949 23.0327 173.91 21.554 174.38 20.2C174.803 18.9348 175.709 17.8881 176.9 17.2885C178.092 16.689 179.472 16.5853 180.74 17C181.309 17.1921 181.83 17.5039 182.268 17.9145C182.706 18.325 183.051 18.8248 183.28 19.38V19.46C183.603 20.1646 183.715 20.9481 183.602 21.715C183.488 22.482 183.154 23.1994 182.64 23.78C182.268 24.1768 181.814 24.4875 181.31 24.69C180.499 25.0177 179.598 25.0425 178.77 24.76C178.602 24.7019 178.448 24.6085 178.318 24.4861C178.189 24.3636 178.087 24.2149 178.02 24.05C177.915 23.773 177.915 23.467 178.02 23.19C178.078 23.0216 178.171 22.8676 178.294 22.7382C178.416 22.6089 178.565 22.5072 178.73 22.44C179.007 22.3347 179.313 22.3347 179.59 22.44C179.858 22.5396 180.152 22.5396 180.42 22.44C180.586 22.378 180.734 22.2748 180.85 22.14C181.033 21.942 181.146 21.6888 181.17 21.42C181.2 21.0785 181.145 20.7349 181.01 20.42V20.37C180.92 20.1441 180.785 19.9389 180.613 19.767C180.441 19.5951 180.236 19.46 180.01 19.37C179.361 19.1635 178.658 19.2197 178.05 19.5263C177.442 19.8329 176.979 20.3656 176.76 21.01C176.493 21.8092 176.517 22.6773 176.83 23.46L176.94 23.72C177.347 24.5505 178.066 25.1866 178.94 25.49H179.05C181.586 26.437 184.395 26.3399 186.86 25.22C188.239 24.6521 189.535 23.8985 190.71 22.98C192.553 21.5738 194.57 20.4109 196.71 19.5199C197.362 19.2613 198.03 19.0442 198.71 18.87L199 18.79C200.693 18.3172 202.477 18.2754 204.191 18.6684C205.904 19.0614 207.492 19.8766 208.81 21.04C210.011 22.0798 210.95 23.3887 211.55 24.86C212.167 26.4641 212.35 28.2026 212.08 29.9Z" fill="url(#paint6_linear_69_173)"/>
<path d="M181.27 31.19C181.661 30.9726 182.065 30.7789 182.48 30.61C182.317 31.0061 182.134 31.3932 181.93 31.77C181.615 32.3694 181.175 32.8945 180.64 33.31C180.532 33.388 180.403 33.43 180.27 33.43C180.191 33.4312 180.113 33.4158 180.041 33.3848C179.968 33.3537 179.903 33.3078 179.85 33.25C179.734 33.1402 179.666 32.9894 179.66 32.83C179.663 32.6929 179.708 32.5601 179.79 32.45C180.186 31.9272 180.691 31.4972 181.27 31.19Z" fill="url(#paint7_linear_69_173)"/>
<path d="M178.44 34.65L178.72 34.36L178.47 34.61C178.707 34.85 178.988 35.0407 179.299 35.1711C179.61 35.3016 179.943 35.3692 180.28 35.37C180.811 35.3642 181.328 35.2044 181.77 34.91C182.887 34.0385 183.741 32.8759 184.24 31.55C184.558 30.8097 184.813 30.0436 185 29.26C185.005 29.1934 185.005 29.1266 185 29.06C185 28.7948 184.895 28.5404 184.707 28.3529C184.52 28.1654 184.265 28.06 184 28.06H183.8C183.015 28.2428 182.248 28.4972 181.51 28.82C180.182 29.3149 179.019 30.1702 178.15 31.29C177.851 31.7295 177.691 32.2485 177.69 32.78C177.681 33.1263 177.744 33.4707 177.872 33.7922C178.001 34.1137 178.195 34.4055 178.44 34.65ZM179.65 32.83C179.653 32.6929 179.698 32.5601 179.78 32.45C180.179 31.9261 180.687 31.496 181.27 31.19C181.661 30.9726 182.065 30.7789 182.48 30.61C182.317 31.0061 182.134 31.3932 181.93 31.77C181.615 32.3694 181.175 32.8945 180.64 33.31C180.532 33.388 180.403 33.43 180.27 33.43C180.191 33.4312 180.113 33.4158 180.041 33.3848C179.968 33.3537 179.903 33.3078 179.85 33.25C179.73 33.1419 179.659 32.9909 179.65 32.83Z" fill="url(#paint8_linear_69_173)"/>
<path d="M172.77 40.95C172.378 41.1655 171.974 41.3591 171.56 41.53C171.715 41.1303 171.898 40.7426 172.11 40.37C172.419 39.7662 172.86 39.2398 173.4 38.83C173.511 38.7505 173.644 38.7085 173.78 38.71C173.859 38.7088 173.937 38.7242 174.009 38.7552C174.082 38.7862 174.147 38.8322 174.2 38.89C174.313 39.0008 174.378 39.1517 174.38 39.31C174.377 39.4471 174.332 39.5799 174.25 39.69C173.855 40.2137 173.35 40.6439 172.77 40.95Z" fill="url(#paint9_linear_69_173)"/>
<path d="M175.59 37.49L175.35 37.74L175.59 37.49C175.354 37.2496 175.072 37.0585 174.761 36.928C174.451 36.7976 174.117 36.7302 173.78 36.73C173.252 36.736 172.738 36.8959 172.3 37.19C171.18 38.0609 170.322 39.2234 169.82 40.55C169.508 41.2915 169.257 42.0574 169.07 42.84C169.06 42.9063 169.06 42.9737 169.07 43.04C169.074 43.3037 169.182 43.5554 169.37 43.74C169.555 43.9284 169.806 44.0362 170.07 44.04H170.26C171.042 43.858 171.805 43.6035 172.54 43.28C173.871 42.7903 175.036 41.934 175.9 40.81C176.201 40.371 176.365 39.8523 176.37 39.32C176.371 38.978 176.302 38.6394 176.168 38.3248C176.034 38.0102 175.837 37.7261 175.59 37.49ZM174.38 39.36C174.377 39.4971 174.332 39.6299 174.25 39.74C173.855 40.2637 173.35 40.6939 172.77 41C172.378 41.2155 171.974 41.409 171.56 41.58C171.714 41.1803 171.898 40.7926 172.11 40.42C172.419 39.8162 172.86 39.2898 173.4 38.88C173.511 38.8006 173.644 38.7586 173.78 38.76C173.859 38.7588 173.937 38.7742 174.009 38.8052C174.081 38.8362 174.146 38.8822 174.2 38.94C174.313 39.0508 174.378 39.2017 174.38 39.36Z" fill="url(#paint10_linear_69_173)"/>
<path d="M195.92 14.18C195.922 14.6661 196.068 15.1407 196.339 15.5439C196.611 15.9472 196.996 16.2609 197.445 16.4456C197.895 16.6302 198.389 16.6775 198.866 16.5815C199.342 16.4854 199.78 16.2504 200.123 15.9059C200.466 15.5615 200.699 15.1232 200.793 14.6462C200.887 14.1693 200.838 13.6752 200.652 13.2263C200.465 12.7774 200.15 12.3938 199.746 12.1239C199.341 11.854 198.866 11.71 198.38 11.71C198.056 11.71 197.735 11.7739 197.436 11.8982C197.137 12.0224 196.865 12.2045 196.637 12.434C196.408 12.6635 196.227 12.9359 196.104 13.2355C195.981 13.5352 195.919 13.8561 195.92 14.18Z" fill="url(#paint11_linear_69_173)"/>
<path d="M184.79 1.35999C184.793 1.06998 184.91 0.792755 185.116 0.588623C185.322 0.384491 185.6 0.269947 185.89 0.269958C192.643 0.308426 199.117 2.97313 203.94 7.70001C206.308 10.0265 208.195 12.7969 209.492 15.8528C210.789 18.9087 211.472 22.1903 211.5 25.51C211.5 25.7991 211.385 26.0763 211.181 26.2808C210.976 26.4852 210.699 26.6 210.41 26.6C210.121 26.6 209.844 26.4852 209.639 26.2808C209.435 26.0763 209.32 25.7991 209.32 25.51C209.26 19.3841 206.771 13.5323 202.4 9.23999C197.988 4.90972 192.062 2.4703 185.88 2.44C185.594 2.43496 185.321 2.31983 185.118 2.11865C184.915 1.91747 184.798 1.64572 184.79 1.35999Z" fill="url(#paint12_linear_69_173)"/>
<path d="M162.88 27.77C163.145 27.77 163.4 27.8753 163.587 28.0629C163.775 28.2504 163.88 28.5047 163.88 28.77C163.918 34.1203 166.076 39.2373 169.88 43C173.741 46.7912 178.929 48.926 184.34 48.95C184.548 49.0106 184.73 49.1369 184.86 49.31C184.99 49.4831 185.06 49.6936 185.06 49.91C185.06 50.1263 184.99 50.3369 184.86 50.51C184.73 50.6831 184.548 50.8094 184.34 50.87C178.43 50.8372 172.766 48.5019 168.55 44.36C164.368 40.248 161.987 34.6449 161.93 28.78C161.927 28.5215 162.024 28.2719 162.201 28.0836C162.379 27.8953 162.622 27.7829 162.88 27.77Z" fill="url(#paint13_linear_69_173)"/>
<path d="M10.83 13.19C10.6977 13.1073 10.5887 12.9923 10.5131 12.8558C10.4375 12.7194 10.3978 12.5659 10.3978 12.4099C10.3978 12.254 10.4375 12.1005 10.5131 11.9641C10.5887 11.8276 10.6977 11.7127 10.83 11.63C11.03 11.5 15.83 8.46993 19.53 9.20993C20.2817 9.34334 20.9625 9.73718 21.4529 10.3223C21.9433 10.9074 22.2121 11.6465 22.2121 12.4099C22.2121 13.1734 21.9433 13.9125 21.4529 14.4977C20.9625 15.0828 20.2817 15.4766 19.53 15.61C19.1216 15.6904 18.7062 15.7306 18.29 15.73C14.81 15.73 11.01 13.36 10.83 13.19ZM19.17 11.04C17.24 10.65 14.77 11.6499 13.24 12.4099C14.89 13.2299 17.34 14.15 19.17 13.7899C19.4997 13.7411 19.801 13.5754 20.0187 13.323C20.2365 13.0706 20.3563 12.7483 20.3563 12.415C20.3563 12.0816 20.2365 11.7593 20.0187 11.5069C19.801 11.2545 19.4997 11.0888 19.17 11.04Z" fill="url(#paint14_linear_69_173)"/>
<path d="M23.8 12.47C23.4308 12.1596 23.1274 11.7785 22.9076 11.3492C22.6878 10.9199 22.556 10.451 22.5199 9.97C22.4587 9.14953 22.722 8.33785 23.2531 7.7095C23.7843 7.08115 24.5408 6.68634 25.36 6.61001C25.7343 6.58474 26.1097 6.63748 26.4626 6.76486C26.8155 6.89224 27.1381 7.09148 27.4099 7.35C27.7825 7.67921 28.0503 8.11053 28.18 8.59048C28.3098 9.07043 28.2959 9.57791 28.1399 10.05C28.0193 10.3814 27.8254 10.6813 27.5725 10.9272C27.3197 11.1731 27.0146 11.3586 26.68 11.47C27.49 11.4 29.96 10.92 31.8 7.63003C32.6482 6.1018 33.7741 4.74525 35.12 3.63003L35.2599 3.51998C36.0727 2.86478 37.0372 2.42438 38.0646 2.23916C39.092 2.05394 40.1495 2.12985 41.1399 2.45999C42.0723 2.74401 42.9173 3.25998 43.5959 3.95956C44.2745 4.65914 44.7644 5.51945 45.0199 6.45999C45.0199 6.60999 45.0999 6.76 45.1299 6.91C45.2671 7.63946 45.249 8.38969 45.0767 9.11166C44.9044 9.83363 44.5817 10.5111 44.1299 11.1C43.5815 11.9116 42.8067 12.5443 41.9018 12.9194C40.9969 13.2945 40.0018 13.3956 39.04 13.21C38.1962 13.008 37.4281 12.568 36.8272 11.9422C36.2262 11.3165 35.8176 10.5313 35.6499 9.68002C35.5588 9.17518 35.573 8.65693 35.6917 8.15786C35.8105 7.6588 36.0312 7.18968 36.3399 6.77999C36.7264 6.19853 37.2766 5.74476 37.9209 5.47598C38.5653 5.2072 39.2749 5.13548 39.9599 5.26998C40.5654 5.40974 41.1173 5.72226 41.5487 6.16958C41.98 6.61691 42.2723 7.17983 42.3899 7.79C42.5282 8.50584 42.3776 9.24733 41.971 9.8525C41.5644 10.4577 40.9349 10.8774 40.2199 11.02C40.0998 11.0436 39.9762 11.0434 39.8561 11.0193C39.7361 10.9951 39.6219 10.9475 39.5202 10.8793C39.4186 10.811 39.3313 10.7235 39.2635 10.6215C39.1956 10.5195 39.1486 10.4052 39.125 10.285C39.1013 10.1648 39.1016 10.0412 39.1257 9.92117C39.1499 9.80111 39.1974 9.68697 39.2657 9.58529C39.3339 9.48361 39.4215 9.39634 39.5235 9.32852C39.6254 9.2607 39.7398 9.21367 39.86 9.19003C40.0821 9.14397 40.2783 9.01481 40.4084 8.82894C40.5385 8.64308 40.5927 8.41453 40.56 8.19003C40.5145 7.9352 40.3957 7.69918 40.2181 7.51089C40.0404 7.3226 39.8117 7.19024 39.56 7.13003C39.2277 7.0781 38.8874 7.12643 38.5828 7.26895C38.2782 7.41146 38.023 7.64166 37.85 7.93002C37.6976 8.13408 37.5881 8.36683 37.5279 8.61428C37.4678 8.86174 37.4583 9.1188 37.5 9.37002C37.5979 9.87027 37.839 10.3313 38.1941 10.697C38.5491 11.0627 39.0028 11.3174 39.5 11.43C40.1116 11.538 40.7415 11.4616 41.3095 11.2105C41.8776 10.9594 42.3581 10.545 42.6899 10.02C42.9859 9.64079 43.1986 9.20345 43.3141 8.73648C43.4295 8.26951 43.4451 7.78345 43.36 7.31002C43.3392 7.20197 43.3125 7.09514 43.2799 6.99002C43.1091 6.34116 42.7749 5.74683 42.3092 5.2637C41.8436 4.78057 41.2621 4.42471 40.62 4.23001C39.9229 3.99886 39.179 3.94551 38.456 4.07473C37.7331 4.20396 37.0538 4.51167 36.48 4.97L36.3299 5.1C35.1739 6.07086 34.2077 7.24738 33.48 8.57003C30.87 13.22 27.01 13.36 26.48 13.37H26.24C25.3424 13.3875 24.4712 13.0661 23.8 12.47ZM25.5199 8.47C25.1908 8.50053 24.8869 8.65918 24.6737 8.91171C24.4604 9.16424 24.3549 9.49046 24.3799 9.82003C24.3969 10.0583 24.4614 10.2907 24.5696 10.5037C24.6778 10.7167 24.8275 10.9058 25.0099 11.06C25.1262 11.1581 25.2538 11.242 25.3899 11.31C25.2655 11.1838 25.1798 11.0247 25.1428 10.8514C25.1058 10.6781 25.1191 10.4979 25.1811 10.3319C25.2431 10.1659 25.3512 10.021 25.4927 9.91439C25.6342 9.80777 25.8033 9.74379 25.98 9.73001C26.0689 9.72072 26.1534 9.68676 26.2241 9.63198C26.2948 9.57721 26.3487 9.50381 26.3799 9.42001C26.4122 9.28527 26.4038 9.14396 26.3557 9.014C26.3077 8.88405 26.2222 8.77133 26.11 8.69003C25.9645 8.54936 25.7721 8.4674 25.5699 8.45999L25.5199 8.47Z" fill="url(#paint15_linear_69_173)"/>
<path d="M35.2599 21.36L35.1399 21.26C33.7886 20.145 32.6561 18.7886 31.8 17.26C29.96 13.97 27.48 13.49 26.68 13.42C27.0142 13.535 27.3187 13.7229 27.5713 13.9703C27.8238 14.2176 28.018 14.5182 28.1399 14.85C28.295 15.3206 28.3086 15.8264 28.1788 16.3046C28.049 16.7828 27.7817 17.2124 27.4099 17.54C27.14 17.8018 26.8179 18.004 26.4648 18.1332C26.1116 18.2624 25.7352 18.3158 25.36 18.29C24.5408 18.2137 23.7843 17.8189 23.2531 17.1905C22.722 16.5622 22.4587 15.7505 22.5199 14.93C22.5942 13.9685 23.044 13.0749 23.7719 12.4424C24.4999 11.8099 25.4475 11.4893 26.4099 11.55C26.9799 11.55 30.8199 11.7 33.4099 16.34C34.1407 17.6749 35.114 18.8619 36.2799 19.84L36.4099 19.95C36.9838 20.4084 37.663 20.7161 38.386 20.8453C39.109 20.9745 39.8528 20.9212 40.55 20.69C41.1921 20.4953 41.7736 20.1394 42.2392 19.6563C42.7049 19.1731 43.039 18.5789 43.2099 17.93C43.2099 17.82 43.27 17.72 43.29 17.61C43.3758 17.1366 43.3604 16.6504 43.245 16.1833C43.1295 15.7162 42.9165 15.2789 42.62 14.9C42.2876 14.3751 41.8073 13.9602 41.2397 13.7075C40.6721 13.4549 40.0425 13.3757 39.43 13.48C38.9331 13.5968 38.4804 13.854 38.1258 14.2211C37.7711 14.5881 37.5296 15.0495 37.43 15.55C37.3885 15.7996 37.3981 16.0551 37.4583 16.3009C37.5184 16.5467 37.6279 16.7777 37.7799 16.98C37.9526 17.2692 38.2074 17.5007 38.5118 17.6449C38.8163 17.7891 39.1568 17.8396 39.49 17.79C39.7411 17.7286 39.9692 17.5959 40.1466 17.4078C40.3241 17.2197 40.4433 16.9843 40.49 16.73C40.5203 16.5058 40.4651 16.2785 40.3354 16.0932C40.2057 15.9079 40.0109 15.7782 39.79 15.73C39.6632 15.7142 39.5411 15.6725 39.4312 15.6074C39.3213 15.5424 39.2259 15.4554 39.1511 15.3519C39.0763 15.2484 39.0236 15.1305 38.9963 15.0058C38.969 14.881 38.9677 14.752 38.9925 14.6267C39.0173 14.5014 39.0676 14.3825 39.1404 14.2775C39.2131 14.1726 39.3067 14.0837 39.4153 14.0164C39.5238 13.9492 39.6451 13.905 39.7715 13.8867C39.8979 13.8684 40.0267 13.8763 40.1499 13.91C40.8641 14.0503 41.4936 14.468 41.9004 15.0716C42.3071 15.6752 42.458 16.4154 42.3199 17.13C42.2017 17.741 41.9094 18.3048 41.4783 18.7536C41.0472 19.2024 40.4957 19.5172 39.8899 19.66C39.2048 19.7945 38.4953 19.7228 37.8509 19.4541C37.2066 19.1853 36.6564 18.7314 36.2699 18.15C35.9609 17.7385 35.7402 17.2677 35.6214 16.767C35.5027 16.2663 35.4886 15.7464 35.5799 15.24C35.7459 14.3891 36.1541 13.6042 36.7555 12.9798C37.3569 12.3553 38.1259 11.9178 38.9699 11.72C39.9308 11.5334 40.9252 11.6329 41.8301 12.0062C42.7349 12.3795 43.5102 13.0102 44.06 13.82C44.5115 14.411 44.8338 15.0903 45.0061 15.8138C45.1783 16.5373 45.1967 17.2889 45.06 18.02C45.06 18.17 44.9899 18.32 44.9499 18.47C44.6927 19.4097 44.2022 20.2691 43.5238 20.9685C42.8455 21.6678 42.0014 22.1843 41.0699 22.47C40.4245 22.6821 39.7493 22.7902 39.0699 22.79C37.6764 22.7494 36.336 22.2463 35.2599 21.36ZM25.0099 13.8C24.8282 13.9527 24.6789 14.1402 24.5707 14.3514C24.4625 14.5626 24.3976 14.7933 24.3799 15.03C24.3628 15.3556 24.4717 15.6754 24.6839 15.923C24.8962 16.1706 25.1955 16.3271 25.5199 16.36C25.6292 16.3677 25.7388 16.3511 25.8408 16.3113C25.9428 16.2715 26.0348 16.2096 26.11 16.13C26.2224 16.0513 26.3083 15.9404 26.3565 15.8118C26.4047 15.6833 26.4128 15.5432 26.3799 15.41C26.352 15.3242 26.299 15.2487 26.2276 15.1934C26.1563 15.1382 26.07 15.1056 25.98 15.1C25.8033 15.0862 25.6342 15.0222 25.4927 14.9156C25.3512 14.809 25.2431 14.6642 25.1811 14.4982C25.1191 14.3322 25.1058 14.1519 25.1428 13.9786C25.1798 13.8053 25.2655 13.6462 25.3899 13.52C25.2497 13.5849 25.1213 13.6728 25.0099 13.78V13.8Z" fill="url(#paint16_linear_69_173)"/>
<path d="M201.13 205.09C201.044 205.219 200.929 205.324 200.793 205.398C200.656 205.471 200.504 205.51 200.35 205.51C200.195 205.506 200.042 205.466 199.905 205.393C199.768 205.32 199.65 205.217 199.56 205.09C199.43 204.89 196.4 200.09 197.15 196.38C197.294 195.637 197.693 194.968 198.277 194.487C198.86 194.006 199.593 193.743 200.35 193.743C201.107 193.743 201.84 194.006 202.423 194.487C203.007 194.968 203.405 195.637 203.55 196.38C203.63 196.792 203.67 197.21 203.67 197.63C203.72 201.1 201.25 204.91 201.13 205.09ZM198.97 196.75C198.59 198.68 199.59 201.15 200.35 202.67C201.17 201.03 202.08 198.57 201.72 196.75C201.671 196.42 201.505 196.119 201.253 195.901C201.001 195.683 200.678 195.564 200.345 195.564C200.012 195.564 199.689 195.683 199.437 195.901C199.185 196.119 199.019 196.42 198.97 196.75Z" fill="url(#paint17_linear_69_173)"/>
<path d="M200.41 192.12C200.098 192.486 199.716 192.787 199.287 193.005C198.858 193.223 198.39 193.354 197.91 193.39C197.09 193.457 196.277 193.197 195.648 192.667C195.018 192.137 194.624 191.379 194.55 190.56C194.522 190.185 194.573 189.809 194.701 189.456C194.828 189.102 195.029 188.78 195.29 188.51C195.616 188.136 196.046 187.867 196.524 187.737C197.003 187.607 197.51 187.622 197.98 187.78C198.312 187.9 198.612 188.092 198.86 188.343C199.107 188.594 199.295 188.897 199.41 189.23C199.34 188.43 198.85 185.96 195.57 184.12C194.039 183.272 192.682 182.142 191.57 180.79L191.46 180.66C190.806 179.847 190.365 178.883 190.178 177.856C189.991 176.829 190.064 175.772 190.39 174.78C190.677 173.849 191.193 173.005 191.893 172.327C192.592 171.649 193.451 171.158 194.39 170.9L194.84 170.79C195.571 170.652 196.323 170.67 197.047 170.842C197.77 171.014 198.45 171.337 199.04 171.79C199.85 172.34 200.481 173.115 200.854 174.02C201.227 174.925 201.327 175.919 201.14 176.88C200.944 177.724 200.507 178.493 199.882 179.093C199.257 179.693 198.471 180.098 197.62 180.26C197.116 180.356 196.597 180.345 196.098 180.228C195.598 180.111 195.129 179.89 194.72 179.58C194.138 179.194 193.683 178.644 193.414 178C193.145 177.355 193.074 176.645 193.21 175.96C193.347 175.353 193.659 174.8 194.107 174.368C194.555 173.937 195.119 173.645 195.73 173.53C196.446 173.392 197.187 173.542 197.793 173.949C198.398 174.356 198.817 174.985 198.96 175.7C199.008 175.943 198.957 176.194 198.819 176.4C198.682 176.605 198.468 176.747 198.225 176.795C197.982 176.843 197.731 176.792 197.525 176.654C197.32 176.516 197.178 176.303 197.13 176.06C197.084 175.838 196.955 175.642 196.769 175.512C196.583 175.381 196.355 175.327 196.13 175.36C195.876 175.408 195.641 175.527 195.454 175.705C195.266 175.882 195.133 176.109 195.07 176.36C195.02 176.693 195.071 177.034 195.215 177.338C195.359 177.643 195.591 177.897 195.88 178.07C196.083 178.226 196.315 178.338 196.563 178.4C196.81 178.462 197.068 178.472 197.32 178.43C197.819 178.329 198.278 178.086 198.643 177.732C199.008 177.377 199.264 176.926 199.38 176.43C199.486 175.817 199.407 175.187 199.154 174.619C198.902 174.052 198.486 173.571 197.96 173.24C197.584 172.939 197.147 172.723 196.679 172.607C196.211 172.492 195.723 172.479 195.25 172.57L194.93 172.64C194.284 172.817 193.693 173.153 193.211 173.618C192.728 174.083 192.371 174.661 192.17 175.3C191.94 175.998 191.889 176.742 192.02 177.465C192.151 178.188 192.46 178.867 192.92 179.44L193.04 179.6C194.017 180.753 195.197 181.719 196.52 182.45C201.16 185.05 201.3 188.92 201.31 189.45C201.315 189.533 201.315 189.617 201.31 189.7C201.316 190.59 200.996 191.45 200.41 192.12ZM196.41 190.4C196.443 190.73 196.604 191.034 196.858 191.247C197.112 191.46 197.439 191.565 197.77 191.54C198.25 191.501 198.696 191.275 199.01 190.91C199.106 190.792 199.19 190.665 199.26 190.53C199.103 190.681 198.898 190.773 198.68 190.79C198.435 190.809 198.192 190.731 198.005 190.571C197.817 190.412 197.701 190.185 197.68 189.94C197.67 189.849 197.634 189.762 197.578 189.69C197.521 189.618 197.446 189.562 197.36 189.53C197.227 189.5 197.088 189.509 196.96 189.557C196.832 189.605 196.721 189.69 196.64 189.8C196.497 189.944 196.415 190.137 196.41 190.34V190.4Z" fill="url(#paint18_linear_69_173)"/>
<path d="M209.27 180.66L209.18 180.77C208.055 182.134 206.68 183.27 205.13 184.12C201.85 185.96 201.37 188.44 201.3 189.24C201.413 188.905 201.6 188.599 201.848 188.346C202.096 188.094 202.397 187.9 202.73 187.78C203.2 187.622 203.707 187.607 204.186 187.737C204.664 187.867 205.094 188.136 205.42 188.51C205.682 188.779 205.884 189.102 206.011 189.455C206.139 189.809 206.19 190.185 206.16 190.56C206.086 191.379 205.692 192.137 205.063 192.667C204.433 193.197 203.62 193.457 202.8 193.39C201.839 193.316 200.947 192.866 200.316 192.137C199.685 191.409 199.367 190.461 199.43 189.5C199.43 188.94 199.58 185.1 204.22 182.5C205.55 181.766 206.733 180.793 207.71 179.63L207.82 179.49C208.28 178.917 208.59 178.238 208.721 177.515C208.852 176.792 208.8 176.048 208.57 175.35C208.369 174.711 208.012 174.133 207.529 173.668C207.047 173.203 206.456 172.867 205.81 172.69L205.49 172.62C205.017 172.529 204.529 172.542 204.061 172.657C203.594 172.773 203.156 172.989 202.78 173.29C202.254 173.621 201.839 174.102 201.586 174.669C201.333 175.237 201.254 175.867 201.36 176.48C201.475 176.976 201.73 177.428 202.096 177.783C202.461 178.138 202.921 178.38 203.42 178.48C203.672 178.522 203.93 178.512 204.177 178.45C204.425 178.388 204.658 178.276 204.86 178.12C205.166 177.95 205.413 177.69 205.567 177.375C205.721 177.061 205.774 176.706 205.72 176.36C205.658 176.109 205.524 175.882 205.337 175.705C205.149 175.527 204.914 175.408 204.66 175.36C204.436 175.327 204.207 175.381 204.021 175.512C203.835 175.642 203.706 175.838 203.66 176.06C203.612 176.303 203.47 176.516 203.265 176.654C203.059 176.792 202.808 176.843 202.565 176.795C202.322 176.747 202.109 176.605 201.971 176.4C201.833 176.194 201.782 175.943 201.83 175.7C201.973 174.985 202.392 174.356 202.998 173.949C203.603 173.542 204.344 173.392 205.06 173.53C205.671 173.645 206.235 173.937 206.683 174.368C207.131 174.8 207.443 175.353 207.58 175.96C207.716 176.645 207.645 177.355 207.376 178C207.107 178.644 206.652 179.194 206.07 179.58C205.661 179.89 205.192 180.111 204.692 180.228C204.193 180.345 203.674 180.356 203.17 180.26C202.319 180.098 201.533 179.693 200.908 179.093C200.283 178.493 199.846 177.724 199.65 176.88C199.463 175.919 199.563 174.925 199.936 174.02C200.31 173.115 200.94 172.34 201.75 171.79C202.34 171.337 203.02 171.014 203.743 170.842C204.467 170.67 205.219 170.652 205.95 170.79L206.39 170.89C207.329 171.152 208.188 171.645 208.887 172.324C209.586 173.004 210.102 173.848 210.39 174.78C210.6 175.426 210.705 176.101 210.7 176.78C210.679 178.198 210.175 179.567 209.27 180.66ZM201.72 190.91C202.034 191.275 202.48 191.501 202.96 191.54C203.291 191.565 203.618 191.46 203.872 191.247C204.126 191.034 204.287 190.73 204.32 190.4C204.325 190.29 204.307 190.179 204.267 190.076C204.228 189.973 204.167 189.879 204.09 189.8C204.008 189.689 203.895 189.604 203.765 189.556C203.636 189.508 203.495 189.499 203.36 189.53C203.277 189.565 203.204 189.621 203.15 189.693C203.095 189.765 203.061 189.85 203.05 189.94C203.03 190.185 202.913 190.412 202.726 190.571C202.538 190.731 202.295 190.809 202.05 190.79C201.832 190.775 201.626 190.683 201.47 190.53C201.54 190.665 201.624 190.792 201.72 190.91Z" fill="url(#paint19_linear_69_173)"/>
</g>
<defs>
<linearGradient id="paint0_linear_69_173" x1="952.31" y1="525.74" x2="-101.31" y2="-71.02" gradientUnits="userSpaceOnUse">
<stop stop-color="#EEDEBC"/>
<stop offset="0.06" stop-color="#DDC6A3"/>
<stop offset="0.14" stop-color="#C9A885"/>
<stop offset="0.26" stop-color="#9A7A5F"/>
<stop offset="0.36" stop-color="#C9A885"/>
<stop offset="0.49" stop-color="#EEDEBC"/>
<stop offset="0.54" stop-color="#DDC6A3"/>
<stop offset="0.61" stop-color="#C9A885"/>
<stop offset="0.72" stop-color="#9A7A5F"/>
<stop offset="0.84" stop-color="#C9A885"/>
<stop offset="1" stop-color="#EEDEBC"/>
</linearGradient>
<linearGradient id="paint1_linear_69_173" x1="-1.02304e+06" y1="2712.12" x2="-1.02285e+06" y2="-3768.61" gradientUnits="userSpaceOnUse">
<stop stop-color="#EEDEBC"/>
<stop offset="0.06" stop-color="#DDC6A3"/>
<stop offset="0.14" stop-color="#C9A885"/>
<stop offset="0.26" stop-color="#9A7A5F"/>
<stop offset="0.36" stop-color="#C9A885"/>
<stop offset="0.49" stop-color="#EEDEBC"/>
<stop offset="0.54" stop-color="#DDC6A3"/>
<stop offset="0.61" stop-color="#C9A885"/>
<stop offset="0.72" stop-color="#9A7A5F"/>
<stop offset="0.84" stop-color="#C9A885"/>
<stop offset="1" stop-color="#EEDEBC"/>
</linearGradient>
<linearGradient id="paint2_linear_69_173" x1="-14209.8" y1="164616" x2="-11134.6" y2="164592" gradientUnits="userSpaceOnUse">
<stop stop-color="#EEDEBC"/>
<stop offset="0.06" stop-color="#DDC6A3"/>
<stop offset="0.14" stop-color="#C9A885"/>
<stop offset="0.26" stop-color="#9A7A5F"/>
<stop offset="0.36" stop-color="#C9A885"/>
<stop offset="0.49" stop-color="#EEDEBC"/>
<stop offset="0.54" stop-color="#DDC6A3"/>
<stop offset="0.61" stop-color="#C9A885"/>
<stop offset="0.72" stop-color="#9A7A5F"/>
<stop offset="0.84" stop-color="#C9A885"/>
<stop offset="1" stop-color="#EEDEBC"/>
</linearGradient>
<linearGradient id="paint3_linear_69_173" x1="-189614" y1="32050.2" x2="-157801" y2="15571.2" gradientUnits="userSpaceOnUse">
<stop stop-color="#EEDEBC"/>
<stop offset="0.06" stop-color="#DDC6A3"/>
<stop offset="0.14" stop-color="#C9A885"/>
<stop offset="0.26" stop-color="#9A7A5F"/>
<stop offset="0.36" stop-color="#C9A885"/>
<stop offset="0.49" stop-color="#EEDEBC"/>
<stop offset="0.54" stop-color="#DDC6A3"/>
<stop offset="0.61" stop-color="#C9A885"/>
<stop offset="0.72" stop-color="#9A7A5F"/>
<stop offset="0.84" stop-color="#C9A885"/>
<stop offset="1" stop-color="#EEDEBC"/>
</linearGradient>
<linearGradient id="paint4_linear_69_173" x1="-209907" y1="28704.6" x2="-178050" y2="8541.59" gradientUnits="userSpaceOnUse">
<stop stop-color="#EEDEBC"/>
<stop offset="0.06" stop-color="#DDC6A3"/>
<stop offset="0.14" stop-color="#C9A885"/>
<stop offset="0.26" stop-color="#9A7A5F"/>
<stop offset="0.36" stop-color="#C9A885"/>
<stop offset="0.49" stop-color="#EEDEBC"/>
<stop offset="0.54" stop-color="#DDC6A3"/>
<stop offset="0.61" stop-color="#C9A885"/>
<stop offset="0.72" stop-color="#9A7A5F"/>
<stop offset="0.84" stop-color="#C9A885"/>
<stop offset="1" stop-color="#EEDEBC"/>
</linearGradient>
<linearGradient id="paint5_linear_69_173" x1="-147916" y1="37256.5" x2="-119742" y2="27679" gradientUnits="userSpaceOnUse">
<stop stop-color="#EEDEBC"/>
<stop offset="0.06" stop-color="#DDC6A3"/>
<stop offset="0.14" stop-color="#C9A885"/>
<stop offset="0.26" stop-color="#9A7A5F"/>
<stop offset="0.36" stop-color="#C9A885"/>
<stop offset="0.49" stop-color="#EEDEBC"/>
<stop offset="0.54" stop-color="#DDC6A3"/>
<stop offset="0.61" stop-color="#C9A885"/>
<stop offset="0.72" stop-color="#9A7A5F"/>
<stop offset="0.84" stop-color="#C9A885"/>
<stop offset="1" stop-color="#EEDEBC"/>
</linearGradient>
<linearGradient id="paint6_linear_69_173" x1="-249934" y1="20869.8" x2="-224099" y2="-5663.88" gradientUnits="userSpaceOnUse">
<stop stop-color="#EEDEBC"/>
<stop offset="0.06" stop-color="#DDC6A3"/>
<stop offset="0.14" stop-color="#C9A885"/>
<stop offset="0.26" stop-color="#9A7A5F"/>
<stop offset="0.36" stop-color="#C9A885"/>
<stop offset="0.49" stop-color="#EEDEBC"/>
<stop offset="0.54" stop-color="#DDC6A3"/>
<stop offset="0.61" stop-color="#C9A885"/>
<stop offset="0.72" stop-color="#9A7A5F"/>
<stop offset="0.84" stop-color="#C9A885"/>
<stop offset="1" stop-color="#EEDEBC"/>
</linearGradient>
<linearGradient id="paint7_linear_69_173" x1="-18292" y1="2856.92" x2="-15320.7" y2="1174.07" gradientUnits="userSpaceOnUse">
<stop stop-color="#EEDEBC"/>
<stop offset="0.06" stop-color="#DDC6A3"/>
<stop offset="0.14" stop-color="#C9A885"/>
<stop offset="0.26" stop-color="#9A7A5F"/>
<stop offset="0.36" stop-color="#C9A885"/>
<stop offset="0.49" stop-color="#EEDEBC"/>
<stop offset="0.54" stop-color="#DDC6A3"/>
<stop offset="0.61" stop-color="#C9A885"/>
<stop offset="0.72" stop-color="#9A7A5F"/>
<stop offset="0.84" stop-color="#C9A885"/>
<stop offset="1" stop-color="#EEDEBC"/>
</linearGradient>
<linearGradient id="paint8_linear_69_173" x1="-47735.8" y1="7350.78" x2="-40031.4" y2="2984.38" gradientUnits="userSpaceOnUse">
<stop stop-color="#EEDEBC"/>
<stop offset="0.06" stop-color="#DDC6A3"/>
<stop offset="0.14" stop-color="#C9A885"/>
<stop offset="0.26" stop-color="#9A7A5F"/>
<stop offset="0.36" stop-color="#C9A885"/>
<stop offset="0.49" stop-color="#EEDEBC"/>
<stop offset="0.54" stop-color="#DDC6A3"/>
<stop offset="0.61" stop-color="#C9A885"/>
<stop offset="0.72" stop-color="#9A7A5F"/>
<stop offset="0.84" stop-color="#C9A885"/>
<stop offset="1" stop-color="#EEDEBC"/>
</linearGradient>
<linearGradient id="paint9_linear_69_173" x1="-18284" y1="2892.65" x2="-15312.8" y2="1209.83" gradientUnits="userSpaceOnUse">
<stop stop-color="#EEDEBC"/>
<stop offset="0.06" stop-color="#DDC6A3"/>
<stop offset="0.14" stop-color="#C9A885"/>
<stop offset="0.26" stop-color="#9A7A5F"/>
<stop offset="0.36" stop-color="#C9A885"/>
<stop offset="0.49" stop-color="#EEDEBC"/>
<stop offset="0.54" stop-color="#DDC6A3"/>
<stop offset="0.61" stop-color="#C9A885"/>
<stop offset="0.72" stop-color="#9A7A5F"/>
<stop offset="0.84" stop-color="#C9A885"/>
<stop offset="1" stop-color="#EEDEBC"/>
</linearGradient>
<linearGradient id="paint10_linear_69_173" x1="-47653.8" y1="7437.96" x2="-39953.2" y2="3077.87" gradientUnits="userSpaceOnUse">
<stop stop-color="#EEDEBC"/>
<stop offset="0.06" stop-color="#DDC6A3"/>
<stop offset="0.14" stop-color="#C9A885"/>
<stop offset="0.26" stop-color="#9A7A5F"/>
<stop offset="0.36" stop-color="#C9A885"/>
<stop offset="0.49" stop-color="#EEDEBC"/>
<stop offset="0.54" stop-color="#DDC6A3"/>
<stop offset="0.61" stop-color="#C9A885"/>
<stop offset="0.72" stop-color="#9A7A5F"/>
<stop offset="0.84" stop-color="#C9A885"/>
<stop offset="1" stop-color="#EEDEBC"/>
</linearGradient>
<linearGradient id="paint11_linear_69_173" x1="-32089" y1="4840.06" x2="-26905.2" y2="1904.03" gradientUnits="userSpaceOnUse">
<stop stop-color="#EEDEBC"/>
<stop offset="0.06" stop-color="#DDC6A3"/>
<stop offset="0.14" stop-color="#C9A885"/>
<stop offset="0.26" stop-color="#9A7A5F"/>
<stop offset="0.36" stop-color="#C9A885"/>
<stop offset="0.49" stop-color="#EEDEBC"/>
<stop offset="0.54" stop-color="#DDC6A3"/>
<stop offset="0.61" stop-color="#C9A885"/>
<stop offset="0.72" stop-color="#9A7A5F"/>
<stop offset="0.84" stop-color="#C9A885"/>
<stop offset="1" stop-color="#EEDEBC"/>
</linearGradient>
<linearGradient id="paint12_linear_69_173" x1="-175115" y1="25790.5" x2="-147170" y2="9734.11" gradientUnits="userSpaceOnUse">
<stop stop-color="#EEDEBC"/>
<stop offset="0.06" stop-color="#DDC6A3"/>
<stop offset="0.14" stop-color="#C9A885"/>
<stop offset="0.26" stop-color="#9A7A5F"/>
<stop offset="0.36" stop-color="#C9A885"/>
<stop offset="0.49" stop-color="#EEDEBC"/>
<stop offset="0.54" stop-color="#DDC6A3"/>
<stop offset="0.61" stop-color="#C9A885"/>
<stop offset="0.72" stop-color="#9A7A5F"/>
<stop offset="0.84" stop-color="#C9A885"/>
<stop offset="1" stop-color="#EEDEBC"/>
</linearGradient>
<linearGradient id="paint13_linear_69_173" x1="-151214" y1="23410.1" x2="-126859" y2="9597.54" gradientUnits="userSpaceOnUse">
<stop stop-color="#EEDEBC"/>
<stop offset="0.06" stop-color="#DDC6A3"/>
<stop offset="0.14" stop-color="#C9A885"/>
<stop offset="0.26" stop-color="#9A7A5F"/>
<stop offset="0.36" stop-color="#C9A885"/>
<stop offset="0.49" stop-color="#EEDEBC"/>
<stop offset="0.54" stop-color="#DDC6A3"/>
<stop offset="0.61" stop-color="#C9A885"/>
<stop offset="0.72" stop-color="#9A7A5F"/>
<stop offset="0.84" stop-color="#C9A885"/>
<stop offset="1" stop-color="#EEDEBC"/>
</linearGradient>
<linearGradient id="paint14_linear_69_173" x1="-77004.7" y1="7027.68" x2="-68852.5" y2="-1192.54" gradientUnits="userSpaceOnUse">
<stop stop-color="#EEDEBC"/>
<stop offset="0.06" stop-color="#DDC6A3"/>
<stop offset="0.14" stop-color="#C9A885"/>
<stop offset="0.26" stop-color="#9A7A5F"/>
<stop offset="0.36" stop-color="#C9A885"/>
<stop offset="0.49" stop-color="#EEDEBC"/>
<stop offset="0.54" stop-color="#DDC6A3"/>
<stop offset="0.61" stop-color="#C9A885"/>
<stop offset="0.72" stop-color="#9A7A5F"/>
<stop offset="0.84" stop-color="#C9A885"/>
<stop offset="1" stop-color="#EEDEBC"/>
</linearGradient>
<linearGradient id="paint15_linear_69_173" x1="-148149" y1="11764.9" x2="-134479" y2="-3892.28" gradientUnits="userSpaceOnUse">
<stop stop-color="#EEDEBC"/>
<stop offset="0.06" stop-color="#DDC6A3"/>
<stop offset="0.14" stop-color="#C9A885"/>
<stop offset="0.26" stop-color="#9A7A5F"/>
<stop offset="0.36" stop-color="#C9A885"/>
<stop offset="0.49" stop-color="#EEDEBC"/>
<stop offset="0.54" stop-color="#DDC6A3"/>
<stop offset="0.61" stop-color="#C9A885"/>
<stop offset="0.72" stop-color="#9A7A5F"/>
<stop offset="0.84" stop-color="#C9A885"/>
<stop offset="1" stop-color="#EEDEBC"/>
</linearGradient>
<linearGradient id="paint16_linear_69_173" x1="-147621" y1="11852.8" x2="-133921" y2="-3765.54" gradientUnits="userSpaceOnUse">
<stop stop-color="#EEDEBC"/>
<stop offset="0.06" stop-color="#DDC6A3"/>
<stop offset="0.14" stop-color="#C9A885"/>
<stop offset="0.26" stop-color="#9A7A5F"/>
<stop offset="0.36" stop-color="#C9A885"/>
<stop offset="0.49" stop-color="#EEDEBC"/>
<stop offset="0.54" stop-color="#DDC6A3"/>
<stop offset="0.61" stop-color="#C9A885"/>
<stop offset="0.72" stop-color="#9A7A5F"/>
<stop offset="0.84" stop-color="#C9A885"/>
<stop offset="1" stop-color="#EEDEBC"/>
</linearGradient>
<linearGradient id="paint17_linear_69_173" x1="-42850" y1="13382.7" x2="-34466" y2="10703.2" gradientUnits="userSpaceOnUse">
<stop stop-color="#EEDEBC"/>
<stop offset="0.06" stop-color="#DDC6A3"/>
<stop offset="0.14" stop-color="#C9A885"/>
<stop offset="0.26" stop-color="#9A7A5F"/>
<stop offset="0.36" stop-color="#C9A885"/>
<stop offset="0.49" stop-color="#EEDEBC"/>
<stop offset="0.54" stop-color="#DDC6A3"/>
<stop offset="0.61" stop-color="#C9A885"/>
<stop offset="0.72" stop-color="#9A7A5F"/>
<stop offset="0.84" stop-color="#C9A885"/>
<stop offset="1" stop-color="#EEDEBC"/>
</linearGradient>
<linearGradient id="paint18_linear_69_173" x1="-72733.3" y1="25348.7" x2="-58235.3" y2="21284.2" gradientUnits="userSpaceOnUse">
<stop stop-color="#EEDEBC"/>
<stop offset="0.06" stop-color="#DDC6A3"/>
<stop offset="0.14" stop-color="#C9A885"/>
<stop offset="0.26" stop-color="#9A7A5F"/>
<stop offset="0.36" stop-color="#C9A885"/>
<stop offset="0.49" stop-color="#EEDEBC"/>
<stop offset="0.54" stop-color="#DDC6A3"/>
<stop offset="0.61" stop-color="#C9A885"/>
<stop offset="0.72" stop-color="#9A7A5F"/>
<stop offset="0.84" stop-color="#C9A885"/>
<stop offset="1" stop-color="#EEDEBC"/>
</linearGradient>
<linearGradient id="paint19_linear_69_173" x1="-73011.4" y1="25278.5" x2="-58468" y2="21186.3" gradientUnits="userSpaceOnUse">
<stop stop-color="#EEDEBC"/>
<stop offset="0.06" stop-color="#DDC6A3"/>
<stop offset="0.14" stop-color="#C9A885"/>
<stop offset="0.26" stop-color="#9A7A5F"/>
<stop offset="0.36" stop-color="#C9A885"/>
<stop offset="0.49" stop-color="#EEDEBC"/>
<stop offset="0.54" stop-color="#DDC6A3"/>
<stop offset="0.61" stop-color="#C9A885"/>
<stop offset="0.72" stop-color="#9A7A5F"/>
<stop offset="0.84" stop-color="#C9A885"/>
<stop offset="1" stop-color="#EEDEBC"/>
</linearGradient>
<clipPath id="clip0_69_173">
<rect width="212.54" height="212.54" fill="white"/>
</clipPath>
</defs>
</svg>
