<svg width="213" height="213" viewBox="0 0 213 213" fill="none" xmlns="http://www.w3.org/2000/svg">
<g clip-path="url(#clip0_69_198)">
<path d="M211.23 212.54L0.0100708 212.54L0.0100893 1.31997C0.0388063 0.991009 0.189746 0.68475 0.433185 0.461636C0.676624 0.238522 0.994876 0.114712 1.32509 0.114712C1.65531 0.114712 1.9735 0.238522 2.21694 0.461636C2.46038 0.68475 2.61138 0.991009 2.64009 1.31997L2.64008 209.91L211.23 209.91C211.559 209.939 211.865 210.09 212.088 210.333C212.311 210.577 212.435 210.895 212.435 211.225C212.435 211.555 212.311 211.873 212.088 212.117C211.865 212.36 211.559 212.511 211.23 212.54Z" fill="url(#paint0_linear_69_198)"/>
<path d="M191.37 201.38L37.54 201.38C37.3577 201.396 37.174 201.374 37.0007 201.315C36.8274 201.256 36.6682 201.162 36.5333 201.038C36.3984 200.914 36.2907 200.764 36.217 200.597C36.1433 200.429 36.1052 200.248 36.1052 200.065C36.1052 199.882 36.1433 199.701 36.217 199.533C36.2907 199.366 36.3984 199.215 36.5333 199.092C36.6682 198.968 36.8274 198.874 37.0007 198.815C37.174 198.756 37.3577 198.734 37.54 198.75L191.37 198.75C191.699 198.779 192.005 198.93 192.228 199.173C192.451 199.417 192.575 199.735 192.575 200.065C192.575 200.395 192.451 200.713 192.228 200.957C192.005 201.2 191.699 201.351 191.37 201.38Z" fill="url(#paint1_linear_69_198)"/>
<path d="M12.1901 177.42C11.8974 177.42 11.6166 177.304 11.4087 177.098C11.2008 176.892 11.0827 176.613 11.0801 176.32L11.0801 22.49C11.1063 22.215 11.234 21.9597 11.4383 21.774C11.6426 21.5882 11.9089 21.4852 12.1851 21.4852C12.4612 21.4852 12.7275 21.5882 12.9318 21.774C13.1362 21.9597 13.2639 22.215 13.2901 22.49L13.29 176.32C13.29 176.612 13.1742 176.892 12.9679 177.098C12.7616 177.304 12.4818 177.42 12.1901 177.42Z" fill="url(#paint2_linear_69_198)"/>
<path d="M27.82 173.62C27.65 173.8 27.48 173.97 27.29 174.14C26.4183 174.937 25.3873 175.541 24.265 175.909C23.1427 176.278 21.9548 176.405 20.78 176.28C20.3081 176.24 19.84 176.163 19.38 176.05C18.0903 175.807 16.8863 175.231 15.8868 174.381C14.8872 173.53 14.1266 172.434 13.68 171.2C13.2408 169.906 13.1865 168.512 13.5238 167.188C13.8611 165.864 14.5753 164.666 15.58 163.74C16.1713 163.203 16.8676 162.794 17.6249 162.539C18.3822 162.284 19.1841 162.189 19.98 162.26C20.317 162.293 20.6512 162.349 20.98 162.43C21.8715 162.601 22.7034 163 23.394 163.589C24.0847 164.178 24.6105 164.937 24.92 165.79C25.2247 166.668 25.2732 167.615 25.06 168.52C24.8323 169.483 24.3243 170.356 23.6 171.03C22.7841 171.785 21.7027 172.187 20.5917 172.147C19.4808 172.108 18.4305 171.631 17.67 170.82C17.5392 170.678 17.4445 170.507 17.394 170.32C17.3436 170.134 17.3387 169.939 17.38 169.75C17.4386 169.521 17.5598 169.314 17.73 169.15C17.9587 168.939 18.2615 168.827 18.5723 168.838C18.8832 168.85 19.1771 168.983 19.39 169.21C19.6381 169.48 19.9625 169.668 20.32 169.75C20.6155 169.818 20.923 169.812 21.2158 169.733C21.5086 169.655 21.7778 169.506 22 169.3C22.3821 168.946 22.6502 168.487 22.77 167.98C22.8731 167.505 22.8454 167.011 22.69 166.55C22.5086 166.078 22.2077 165.661 21.8168 165.34C21.4259 165.02 20.9584 164.806 20.46 164.72C20.2261 164.667 19.9889 164.63 19.75 164.61C19.2792 164.566 18.8043 164.619 18.3551 164.767C17.9059 164.915 17.4923 165.154 17.14 165.47C16.4446 166.113 15.957 166.948 15.74 167.87C15.5429 168.722 15.5879 169.612 15.87 170.44C16.1833 171.298 16.7186 172.057 17.4214 172.64C18.1241 173.224 18.9691 173.61 19.87 173.76C20.2395 173.842 20.6135 173.902 20.99 173.94C21.8348 174.033 22.6898 173.946 23.4984 173.684C24.3069 173.422 25.0505 172.991 25.68 172.42C25.82 172.29 25.95 172.15 26.08 172.01C26.9123 171.136 27.4958 170.055 27.77 168.88C28.0347 167.772 28.0347 166.618 27.77 165.51C27.4644 164.263 26.8512 163.113 25.9865 162.165C25.1218 161.216 24.0331 160.499 22.82 160.08L22.52 159.98C22.0032 159.792 21.4756 159.635 20.94 159.51C18.9708 159.079 16.9541 158.904 14.94 158.99C13.3055 159.082 11.6661 158.944 10.07 158.58C6.92835 157.963 4.1595 156.125 2.37 153.47C2.29426 153.367 2.2242 153.26 2.16003 153.15C1.43782 152.001 1.15706 150.63 1.37 149.29C1.37 149.14 1.37001 149 1.45001 148.85C1.76117 147.526 2.53406 146.356 3.63001 145.55C4.65381 144.802 5.93118 144.487 7.1853 144.674C8.43943 144.862 9.56929 145.536 10.33 146.55C10.6698 147.009 10.9072 147.536 11.0262 148.095C11.1452 148.654 11.1431 149.232 11.02 149.79L11.02 149.87C10.8814 150.592 10.538 151.258 10.0309 151.79C9.52376 152.322 8.87434 152.697 8.16003 152.87C7.65654 152.985 7.1335 152.985 6.63001 152.87C5.82774 152.681 5.11877 152.214 4.63001 151.55C4.53835 151.426 4.47211 151.285 4.43506 151.136C4.398 150.986 4.39089 150.83 4.41412 150.678C4.43736 150.526 4.49048 150.379 4.57043 150.247C4.65039 150.116 4.75558 150.001 4.88001 149.91C5.00476 149.818 5.14638 149.752 5.29681 149.714C5.44725 149.677 5.60356 149.67 5.75678 149.693C5.90999 149.716 6.05715 149.77 6.18982 149.85C6.32249 149.93 6.43811 150.035 6.53003 150.16C6.65977 150.338 6.83893 150.473 7.04523 150.55C7.25152 150.626 7.47579 150.64 7.69 150.59C7.93956 150.538 8.16471 150.404 8.33002 150.21C8.53864 149.964 8.67987 149.667 8.73999 149.35C8.79393 149.123 8.79863 148.886 8.75378 148.657C8.70894 148.427 8.61559 148.21 8.47998 148.02C8.13855 147.562 7.64623 147.24 7.09003 147.11C6.74608 147.032 6.3893 147.029 6.04413 147.101C5.69895 147.174 5.37352 147.32 5.09003 147.53C4.44421 148.002 3.98982 148.691 3.81 149.47C3.78761 149.555 3.77092 149.642 3.76001 149.73C3.69044 150.165 3.70859 150.609 3.81335 151.037C3.91812 151.464 4.10735 151.867 4.37 152.22L4.41998 152.3C5.89224 154.398 8.12942 155.835 10.65 156.3C12.0382 156.604 13.4607 156.722 14.88 156.65C17.0821 156.555 19.2872 156.747 21.44 157.22C22.0745 157.367 22.6991 157.554 23.31 157.78L23.59 157.88C25.1654 158.433 26.5772 159.371 27.6969 160.61C28.8165 161.848 29.6083 163.347 30 164.97C30.3759 166.434 30.393 167.968 30.05 169.44C29.6856 171.005 28.9167 172.446 27.82 173.62Z" fill="url(#paint3_linear_69_198)"/>
<path d="M40.1201 185.26C39.9401 185.43 39.7701 185.61 39.6001 185.79C38.8251 186.682 38.2465 187.727 37.9019 188.857C37.5573 189.987 37.4545 191.177 37.6001 192.35C37.6517 192.822 37.7352 193.29 37.8501 193.75C38.1261 195.036 38.7324 196.227 39.6091 197.208C40.4859 198.188 41.6029 198.923 42.8501 199.34C44.1041 199.74 45.4454 199.778 46.7201 199.45C48.0897 199.101 49.3229 198.348 50.2601 197.29C50.7875 196.689 51.1836 195.985 51.423 195.222C51.6623 194.459 51.7397 193.654 51.6501 192.86C51.6109 192.523 51.5508 192.189 51.4701 191.86C51.2762 190.972 50.8569 190.148 50.2527 189.469C49.6485 188.789 48.8797 188.276 48.0201 187.98C47.1345 187.704 46.1902 187.676 45.29 187.9C44.3394 188.14 43.4805 188.655 42.8201 189.38C42.0825 190.212 41.7035 191.302 41.7653 192.413C41.8271 193.523 42.3248 194.564 43.1501 195.31C43.2958 195.437 43.4701 195.527 43.6581 195.573C43.8462 195.618 44.0424 195.617 44.23 195.57C44.459 195.513 44.665 195.388 44.8201 195.21C44.9471 195.066 45.0372 194.894 45.0825 194.707C45.1278 194.521 45.127 194.326 45.0801 194.14C45.0195 193.913 44.8945 193.708 44.7201 193.55C44.3588 193.223 44.1414 192.766 44.1152 192.279C44.089 191.792 44.2561 191.314 44.5801 190.95C44.9244 190.56 45.3769 190.282 45.8801 190.15C46.3479 190.02 46.8422 190.02 47.3101 190.15C47.7897 190.318 48.2163 190.61 48.5464 190.997C48.8766 191.383 49.0987 191.85 49.1901 192.35C49.2506 192.58 49.294 192.814 49.3201 193.05C49.3746 193.521 49.3307 193.997 49.1913 194.45C49.0518 194.903 48.8199 195.322 48.5101 195.68C47.9053 196.362 47.1161 196.854 46.2377 197.097C45.3593 197.34 44.4293 197.324 43.5601 197.05C42.7002 196.755 41.9337 196.238 41.3383 195.552C40.7429 194.865 40.3398 194.033 40.17 193.14C40.0758 192.776 40.0089 192.404 39.9701 192.03C39.8545 191.187 39.9214 190.33 40.1664 189.515C40.4114 188.701 40.8288 187.949 41.3901 187.31C41.5201 187.17 41.65 187.03 41.79 186.9C42.6349 186.075 43.6787 185.483 44.8201 185.18C45.9277 184.915 47.0824 184.915 48.1901 185.18C49.4386 185.456 50.5983 186.04 51.564 186.878C52.5297 187.717 53.2708 188.783 53.7201 189.98L53.8301 190.27C54.0276 190.783 54.1946 191.307 54.3301 191.84C54.7993 193.784 55.0144 195.781 54.9701 197.78C54.9202 199.413 55.0951 201.045 55.49 202.63C56.2018 205.751 58.1175 208.464 60.8201 210.18C60.922 210.257 61.0289 210.327 61.1401 210.39C62.3061 211.085 63.6834 211.337 65.0201 211.1C65.1701 211.1 65.3201 211.04 65.4601 211.01C66.78 210.672 67.9361 209.874 68.7201 208.76C69.1242 208.186 69.3979 207.531 69.5223 206.84C69.6466 206.149 69.6186 205.439 69.4401 204.76C69.1708 203.668 68.5222 202.708 67.61 202.05C67.1419 201.721 66.6086 201.496 66.0463 201.391C65.4839 201.286 64.9055 201.303 64.3501 201.44L64.2601 201.44C63.5395 201.588 62.8772 201.941 62.3535 202.458C61.8299 202.974 61.4674 203.631 61.3101 204.35C61.1998 204.854 61.1998 205.376 61.3101 205.88C61.5114 206.69 61.9978 207.4 62.68 207.88C62.8231 207.982 62.987 208.051 63.1599 208.082C63.3328 208.113 63.5104 208.106 63.68 208.06C63.9539 207.992 64.1926 207.824 64.3501 207.59C64.4533 207.448 64.5231 207.284 64.5543 207.111C64.5854 206.937 64.5772 206.759 64.5301 206.59C64.4643 206.318 64.3005 206.079 64.0701 205.92C63.9291 205.819 63.8127 205.688 63.7295 205.536C63.6464 205.384 63.5987 205.215 63.5901 205.042C63.5814 204.869 63.612 204.696 63.6796 204.536C63.7471 204.377 63.8498 204.234 63.98 204.12C64.2246 203.91 64.5162 203.763 64.8301 203.69C65.057 203.632 65.2938 203.622 65.5247 203.661C65.7557 203.701 65.9756 203.789 66.17 203.92C66.6347 204.254 66.9646 204.744 67.1001 205.3C67.1866 205.64 67.1983 205.995 67.1344 206.341C67.0705 206.686 66.9325 207.013 66.73 207.3C66.2756 207.958 65.5964 208.428 64.8201 208.62L64.5601 208.68C63.6854 208.832 62.7863 208.631 62.0601 208.12L61.9701 208.07C59.8318 206.648 58.3378 204.443 57.8101 201.93C57.4727 200.55 57.3247 199.13 57.3701 197.71C57.417 195.502 57.1784 193.297 56.6601 191.15C56.5022 190.517 56.3017 189.896 56.0601 189.29L55.9601 189.02C55.3747 187.457 54.4073 186.065 53.1462 184.972C51.8851 183.878 50.3703 183.118 48.74 182.76C47.2713 182.404 45.7389 182.404 44.2701 182.76C42.6861 183.203 41.2517 184.067 40.1201 185.26Z" fill="url(#paint4_linear_69_198)"/>
<path d="M31.5801 211.73C31.8301 211.73 32.0801 211.61 32.3301 211.54C33.5226 211.188 34.6269 210.588 35.5699 209.777C36.5128 208.967 37.273 207.966 37.8 206.84C38.0183 206.39 38.2054 205.926 38.36 205.45C38.8362 204.155 38.9696 202.759 38.747 201.398C38.5245 200.036 37.9537 198.756 37.0901 197.68C36.1624 196.58 34.9356 195.772 33.5583 195.355C32.1809 194.938 30.7122 194.929 29.3301 195.33C28.5236 195.571 27.7763 195.977 27.1357 196.523C26.4952 197.068 25.9755 197.742 25.61 198.5C25.4434 198.821 25.3029 199.156 25.19 199.5C24.8619 200.399 24.7715 201.368 24.9274 202.312C25.0833 203.256 25.4804 204.144 26.0801 204.89C26.7276 205.665 27.5869 206.235 28.553 206.53C29.519 206.824 30.55 206.831 31.5201 206.55C32.2175 206.349 32.8553 205.98 33.3781 205.477C33.901 204.973 34.293 204.349 34.5201 203.66C34.7752 202.822 34.7752 201.928 34.5201 201.09C34.4643 200.894 34.3613 200.715 34.22 200.569C34.0787 200.422 33.9036 200.313 33.7101 200.25C33.4752 200.18 33.2249 200.18 32.99 200.25C32.7935 200.304 32.6136 200.406 32.4669 200.548C32.3202 200.689 32.2113 200.866 32.1501 201.06C32.08 201.295 32.08 201.545 32.1501 201.78C32.2893 202.275 32.2277 202.804 31.9786 203.253C31.7296 203.703 31.3132 204.036 30.82 204.18C30.2946 204.335 29.7355 204.335 29.2101 204.18C28.727 204.02 28.2977 203.729 27.9701 203.34C27.6433 202.921 27.431 202.424 27.3539 201.898C27.2767 201.372 27.3374 200.835 27.5301 200.34C27.6113 200.101 27.7082 199.867 27.82 199.64C28.0351 199.192 28.3408 198.794 28.7178 198.47C29.0948 198.147 29.5348 197.905 30.01 197.76C30.9307 197.498 31.9073 197.505 32.8238 197.782C33.7402 198.058 34.558 198.592 35.18 199.32C35.7778 200.067 36.169 200.958 36.3147 201.904C36.4603 202.85 36.3553 203.817 36.01 204.71C35.8842 205.086 35.7338 205.453 35.56 205.81C35.1872 206.624 34.6444 207.348 33.9683 207.935C33.2922 208.521 32.4983 208.956 31.6401 209.21L31.06 209.35C29.819 209.618 28.5296 209.555 27.32 209.17C26.1871 208.791 25.1594 208.15 24.32 207.3C23.3645 206.354 22.6601 205.185 22.2707 203.898C21.8813 202.611 21.8192 201.247 22.0901 199.93L22.1601 199.6C22.266 199.03 22.413 198.469 22.6001 197.92C23.2716 195.928 24.1993 194.032 25.36 192.28C26.3277 190.856 27.0918 189.305 27.63 187.67C28.7851 184.507 28.6377 181.015 27.2201 177.96C27.2201 177.83 27.11 177.71 27.05 177.59C26.404 176.317 25.3213 175.32 24 174.78L23.56 174.61C22.1975 174.168 20.722 174.229 19.4001 174.78C18.7216 175.061 18.1126 175.487 17.6152 176.028C17.1179 176.568 16.7442 177.21 16.5201 177.91C16.1485 179.033 16.1874 180.252 16.63 181.35C16.8631 181.904 17.2108 182.403 17.6503 182.813C18.0898 183.223 18.6111 183.536 19.18 183.73L19.26 183.73C19.9853 184.006 20.7751 184.065 21.5333 183.9C22.2915 183.734 22.9852 183.352 23.5301 182.8C23.9 182.401 24.1797 181.927 24.3501 181.41C24.6178 180.578 24.5823 179.678 24.25 178.87C24.1806 178.706 24.0769 178.558 23.9458 178.438C23.8147 178.317 23.6593 178.226 23.49 178.17C23.2121 178.07 22.908 178.07 22.63 178.17C22.4634 178.238 22.3141 178.343 22.193 178.476C22.0719 178.609 21.9821 178.768 21.93 178.94C21.8254 179.214 21.8254 179.516 21.93 179.79C22.0296 180.058 22.0296 180.352 21.93 180.62C21.8777 180.792 21.7852 180.95 21.6601 181.08C21.474 181.272 21.2328 181.401 20.9701 181.45C20.6335 181.497 20.2906 181.463 19.9701 181.35L19.9101 181.35C19.6728 181.267 19.4557 181.136 19.273 180.963C19.0904 180.791 18.9462 180.582 18.8501 180.35C18.5961 179.717 18.6029 179.01 18.8689 178.382C19.135 177.754 19.6388 177.257 20.2701 177C21.0458 176.678 21.9106 176.643 22.7101 176.9L22.98 177C23.4071 177.174 23.7952 177.432 24.1214 177.759C24.4477 178.085 24.7056 178.473 24.88 178.9L24.93 179C26.0338 181.47 26.1236 184.274 25.18 186.81C24.6989 188.228 24.026 189.574 23.18 190.81C21.8989 192.746 20.8738 194.84 20.13 197.04C19.9154 197.694 19.745 198.363 19.62 199.04L19.56 199.34C19.2 201.06 19.2768 202.842 19.7834 204.524C20.29 206.207 21.2103 207.735 22.4601 208.97C23.5795 210.1 24.95 210.95 26.4601 211.45C28.1112 211.998 29.879 212.095 31.5801 211.73Z" fill="url(#paint5_linear_69_198)"/>
<path d="M0.460084 182.64C0.460084 182.38 0.540097 182.12 0.600099 181.87C0.870286 180.657 1.39513 179.515 2.13989 178.521C2.88466 177.526 3.83228 176.701 4.92005 176.1C5.35381 175.851 5.80502 175.634 6.27008 175.45C7.52975 174.887 8.91366 174.659 10.2874 174.788C11.6612 174.918 12.978 175.401 14.1101 176.19C15.2671 177.043 16.1534 178.212 16.6625 179.557C17.1716 180.901 17.2818 182.364 16.98 183.77C16.794 184.591 16.4393 185.364 15.9384 186.041C15.4374 186.718 14.8011 187.283 14.0701 187.7C13.7471 187.884 13.4131 188.047 13.0701 188.19C12.1966 188.577 11.238 188.733 10.2869 188.642C9.33581 188.551 8.42422 188.216 7.64008 187.67C6.82545 187.074 6.20234 186.253 5.84711 185.308C5.49188 184.363 5.41994 183.335 5.64008 182.35C5.79243 181.641 6.11647 180.98 6.58374 180.426C7.05102 179.871 7.64723 179.44 8.32007 179.17C9.13281 178.844 10.0251 178.771 10.8801 178.96C11.0792 179.001 11.2649 179.091 11.4203 179.222C11.5757 179.353 11.696 179.521 11.7701 179.71C11.8655 179.938 11.8865 180.19 11.8301 180.43C11.8014 180.593 11.7402 180.749 11.6503 180.888C11.5603 181.027 11.4433 181.147 11.3063 181.24C11.1692 181.334 11.0149 181.398 10.8524 181.431C10.6898 181.464 10.5224 181.463 10.36 181.43C9.98641 181.343 9.59503 181.375 9.24005 181.52C8.94611 181.643 8.68572 181.833 8.48047 182.077C8.27523 182.321 8.13108 182.61 8.06006 182.92C7.94631 183.455 7.9915 184.011 8.19007 184.52C8.38104 184.997 8.70356 185.409 9.12006 185.71C9.55557 186.009 10.0624 186.188 10.5892 186.228C11.116 186.269 11.644 186.169 12.1201 185.94C12.3552 185.848 12.5826 185.738 12.8001 185.61C13.2348 185.367 13.6141 185.036 13.9137 184.638C14.2133 184.241 14.4266 183.785 14.54 183.3C14.7452 182.327 14.6582 181.314 14.29 180.39C13.9457 179.534 13.3712 178.79 12.6301 178.24C11.8454 177.693 10.9302 177.362 9.97681 177.281C9.02345 177.2 8.06568 177.372 7.20008 177.78C6.83477 177.935 6.47762 178.108 6.13007 178.3C5.34303 178.727 4.65647 179.317 4.11658 180.031C3.57669 180.745 3.19599 181.566 3.00006 182.44C3.00006 182.64 2.93009 182.83 2.90009 183.03C2.71549 184.287 2.86731 185.571 3.34009 186.75C3.79174 187.858 4.49736 188.845 5.40009 189.63C6.40924 190.52 7.62495 191.144 8.93659 191.444C10.2482 191.744 11.6142 191.712 12.9101 191.35L13.23 191.26C13.7872 191.113 14.3349 190.933 14.8701 190.72C16.8138 189.907 18.6454 188.848 20.3201 187.57C21.6732 186.508 23.1676 185.64 24.7601 184.99C27.8409 183.628 31.3357 183.542 34.48 184.75L34.86 184.89C36.168 185.457 37.2315 186.471 37.86 187.75C37.93 187.89 37.9901 188.03 38.0501 188.18C38.5908 189.507 38.6299 190.986 38.1601 192.34C37.7375 193.605 36.8315 194.652 35.6399 195.251C34.4483 195.851 33.0679 195.955 31.8001 195.54C31.2312 195.348 30.7101 195.036 30.2719 194.625C29.8338 194.215 29.4887 193.715 29.2601 193.16L29.2601 193.08C28.9366 192.375 28.8249 191.592 28.9385 190.825C29.0521 190.058 29.3862 189.341 29.9001 188.76C30.2716 188.363 30.7255 188.052 31.23 187.85C32.0408 187.522 32.9425 187.497 33.7701 187.78C33.9385 187.838 34.0925 187.931 34.2218 188.054C34.3512 188.176 34.4529 188.325 34.5201 188.49C34.6254 188.767 34.6254 189.073 34.5201 189.35C34.462 189.518 34.3686 189.672 34.2462 189.802C34.1237 189.931 33.975 190.033 33.8101 190.1C33.5331 190.205 33.2271 190.205 32.9501 190.1C32.6824 190 32.3878 190 32.1201 190.1C31.9537 190.162 31.8057 190.265 31.6901 190.4C31.5067 190.598 31.3942 190.851 31.3701 191.12C31.3398 191.461 31.3948 191.805 31.5301 192.12L31.5301 192.17C31.6201 192.396 31.7552 192.601 31.9271 192.773C32.0991 192.945 32.3042 193.08 32.5301 193.17C33.1787 193.376 33.8823 193.32 34.49 193.014C35.0976 192.707 35.5608 192.174 35.7801 191.53C36.0475 190.731 36.0227 189.863 35.7101 189.08L35.6001 188.82C35.1927 187.989 34.474 187.353 33.6001 187.05L33.4901 187.05C30.9536 186.103 28.1451 186.2 25.6801 187.32C24.3007 187.888 23.0054 188.641 21.8301 189.56C19.9869 190.966 17.9703 192.129 15.8301 193.02C15.1778 193.279 14.5098 193.496 13.8301 193.67L13.54 193.75C11.8469 194.223 10.0626 194.265 8.34918 193.872C6.63581 193.479 5.04788 192.663 3.73004 191.5C2.52868 190.46 1.58988 189.151 0.990052 187.68C0.373162 186.076 0.190373 184.337 0.460084 182.64Z" fill="url(#paint6_linear_69_198)"/>
<path d="M31.27 181.35C30.8787 181.567 30.4746 181.761 30.06 181.93C30.2228 181.534 30.4064 181.147 30.61 180.77C30.9253 180.171 31.3651 179.645 31.9 179.23C32.0076 179.152 32.1371 179.11 32.27 179.11C32.3487 179.109 32.4268 179.124 32.4992 179.155C32.5716 179.186 32.6366 179.232 32.69 179.29C32.8058 179.4 32.874 179.551 32.88 179.71C32.8772 179.847 32.8318 179.98 32.75 180.09C32.3543 180.613 31.8493 181.043 31.27 181.35Z" fill="url(#paint7_linear_69_198)"/>
<path d="M34.1001 177.89L33.82 178.18L34.07 177.93C33.8335 177.69 33.5518 177.499 33.2411 177.369C32.9304 177.238 32.597 177.171 32.26 177.17C31.7293 177.176 31.2117 177.336 30.77 177.63C29.6533 178.501 28.7986 179.664 28.3 180.99C27.9818 181.73 27.7275 182.496 27.54 183.28C27.5351 183.347 27.5351 183.413 27.54 183.48C27.54 183.745 27.6454 184 27.8329 184.187C28.0204 184.375 28.2748 184.48 28.54 184.48L28.74 184.48C29.525 184.297 30.2916 184.043 31.03 183.72C32.3579 183.225 33.5215 182.37 34.39 181.25C34.6888 180.81 34.849 180.291 34.8501 179.76C34.8586 179.414 34.7965 179.069 34.6676 178.748C34.5386 178.426 34.3455 178.134 34.1001 177.89ZM32.89 179.71C32.8872 179.847 32.8418 179.98 32.76 180.09C32.3615 180.614 31.8529 181.044 31.27 181.35C30.8787 181.567 30.4746 181.761 30.06 181.93C30.2228 181.534 30.4064 181.147 30.61 180.77C30.9253 180.171 31.3652 179.645 31.9 179.23C32.0076 179.152 32.1371 179.11 32.27 179.11C32.3488 179.109 32.4269 179.124 32.4992 179.155C32.5716 179.186 32.6366 179.232 32.69 179.29C32.8095 179.398 32.8815 179.549 32.89 179.71Z" fill="url(#paint8_linear_69_198)"/>
<path d="M39.77 171.59C40.1624 171.374 40.5663 171.181 40.98 171.01C40.8255 171.41 40.6417 171.797 40.43 172.17C40.1212 172.774 39.6803 173.3 39.14 173.71C39.0293 173.789 38.8962 173.831 38.76 173.83C38.6813 173.831 38.6032 173.816 38.5308 173.785C38.4585 173.754 38.3934 173.708 38.34 173.65C38.227 173.539 38.1623 173.388 38.16 173.23C38.1628 173.093 38.2082 172.96 38.29 172.85C38.6847 172.326 39.1901 171.896 39.77 171.59Z" fill="url(#paint9_linear_69_198)"/>
<path d="M36.95 175.05L37.19 174.8L36.95 175.05C37.1862 175.29 37.4679 175.481 37.7786 175.612C38.0894 175.742 38.423 175.81 38.76 175.81C39.2876 175.804 39.8019 175.644 40.24 175.35C41.3596 174.479 42.2177 173.317 42.72 171.99C43.0323 171.248 43.2832 170.483 43.47 169.7C43.4799 169.634 43.4799 169.566 43.47 169.5C43.4663 169.236 43.3584 168.985 43.17 168.8C42.9853 168.612 42.7338 168.504 42.47 168.5L42.28 168.5C41.4981 168.682 40.7347 168.936 40 169.26C38.6693 169.75 37.5044 170.606 36.64 171.73C36.3388 172.169 36.1752 172.688 36.17 173.22C36.169 173.562 36.2377 173.901 36.3718 174.215C36.5059 174.53 36.7026 174.814 36.95 175.05ZM38.16 173.18C38.1628 173.043 38.2082 172.91 38.29 172.8C38.6847 172.276 39.19 171.846 39.77 171.54C40.1624 171.324 40.5663 171.131 40.98 170.96C40.8255 171.36 40.6417 171.747 40.43 172.12C40.1212 172.724 39.6803 173.25 39.14 173.66C39.0293 173.739 38.8962 173.781 38.76 173.78C38.6813 173.781 38.6032 173.766 38.5308 173.735C38.4584 173.704 38.3934 173.658 38.34 173.6C38.227 173.489 38.1623 173.338 38.16 173.18Z" fill="url(#paint10_linear_69_198)"/>
<path d="M16.62 198.36C16.618 197.874 16.472 197.399 16.2005 196.996C15.929 196.593 15.5441 196.279 15.0945 196.094C14.6448 195.91 14.1505 195.862 13.674 195.958C13.1975 196.055 12.76 196.29 12.417 196.634C12.0739 196.978 11.8407 197.417 11.7466 197.894C11.6524 198.371 11.7017 198.865 11.8882 199.314C12.0747 199.763 12.39 200.146 12.7944 200.416C13.1987 200.686 13.6739 200.83 14.16 200.83C14.4839 200.83 14.8046 200.766 15.1037 200.642C15.4028 200.518 15.6744 200.335 15.903 200.106C16.1316 199.876 16.3126 199.604 16.4356 199.304C16.5586 199.005 16.6213 198.684 16.62 198.36Z" fill="url(#paint11_linear_69_198)"/>
<path d="M27.75 211.18C27.7474 211.47 27.6303 211.747 27.4243 211.951C27.2183 212.155 26.94 212.27 26.65 212.27C19.8967 212.232 13.4234 209.567 8.60004 204.84C6.23179 202.513 4.34515 199.743 3.04797 196.687C1.7508 193.631 1.06845 190.35 1.03998 187.03C1.03998 186.741 1.15484 186.464 1.35926 186.259C1.56367 186.055 1.84092 185.94 2.13001 185.94C2.41909 185.94 2.69634 186.055 2.90076 186.259C3.10517 186.464 3.22003 186.741 3.22003 187.03C3.28002 193.156 5.76887 199.008 10.14 203.3C14.5518 207.63 20.4782 210.07 26.66 210.1C26.9458 210.105 27.2186 210.22 27.4217 210.421C27.6247 210.622 27.7423 210.894 27.75 211.18Z" fill="url(#paint12_linear_69_198)"/>
<path d="M49.6601 184.77C49.3949 184.77 49.1405 184.665 48.9529 184.477C48.7654 184.29 48.6601 184.035 48.6601 183.77C48.6216 178.42 46.464 173.303 42.6601 169.54C38.7992 165.749 33.6111 163.614 28.2001 163.59C27.9924 163.529 27.8099 163.403 27.6801 163.23C27.5502 163.057 27.48 162.846 27.48 162.63C27.48 162.414 27.5502 162.203 27.6801 162.03C27.8099 161.857 27.9924 161.731 28.2001 161.67C34.11 161.703 39.7743 164.038 43.9901 168.18C48.1725 172.292 50.5532 177.895 50.61 183.76C50.613 184.018 50.5157 184.268 50.3386 184.456C50.1614 184.645 49.9183 184.757 49.6601 184.77Z" fill="url(#paint13_linear_69_198)"/>
<path d="M201.71 199.35C201.842 199.433 201.951 199.548 202.027 199.684C202.103 199.821 202.142 199.974 202.142 200.13C202.142 200.286 202.103 200.439 202.027 200.576C201.951 200.712 201.842 200.827 201.71 200.91C201.51 201.04 196.71 204.07 193.01 203.33C192.258 203.197 191.578 202.803 191.087 202.218C190.597 201.633 190.328 200.893 190.328 200.13C190.328 199.367 190.597 198.627 191.087 198.042C191.578 197.457 192.258 197.063 193.01 196.93C193.418 196.85 193.834 196.809 194.25 196.81C197.73 196.81 201.53 199.18 201.71 199.35ZM193.37 201.5C195.3 201.89 197.77 200.89 199.3 200.13C197.65 199.31 195.2 198.39 193.37 198.75C193.04 198.799 192.739 198.965 192.521 199.217C192.304 199.469 192.184 199.792 192.184 200.125C192.184 200.458 192.304 200.781 192.521 201.033C192.739 201.285 193.04 201.451 193.37 201.5Z" fill="url(#paint14_linear_69_198)"/>
<path d="M188.74 200.07C189.109 200.38 189.413 200.761 189.632 201.191C189.852 201.62 189.984 202.089 190.02 202.57C190.081 203.39 189.818 204.202 189.287 204.83C188.756 205.459 187.999 205.854 187.18 205.93C186.806 205.955 186.43 205.902 186.077 205.775C185.725 205.648 185.402 205.448 185.13 205.19C184.758 204.861 184.49 204.429 184.36 203.949C184.23 203.47 184.244 202.962 184.4 202.49C184.521 202.159 184.715 201.859 184.967 201.613C185.22 201.367 185.525 201.181 185.86 201.07C185.05 201.14 182.58 201.62 180.74 204.91C179.892 206.438 178.766 207.795 177.42 208.91L177.28 209.02C176.467 209.675 175.503 210.116 174.475 210.301C173.448 210.486 172.391 210.41 171.4 210.08C170.468 209.796 169.623 209.28 168.944 208.58C168.266 207.881 167.776 207.021 167.52 206.08C167.52 205.93 167.44 205.78 167.41 205.63C167.273 204.901 167.291 204.15 167.463 203.428C167.636 202.706 167.958 202.029 168.41 201.44C168.959 200.628 169.733 199.996 170.638 199.621C171.543 199.245 172.538 199.144 173.5 199.33C174.344 199.532 175.112 199.972 175.713 200.598C176.314 201.224 176.722 202.009 176.89 202.86C176.981 203.365 176.967 203.883 176.848 204.382C176.73 204.881 176.509 205.35 176.2 205.76C175.814 206.341 175.263 206.795 174.619 207.064C173.975 207.333 173.265 207.404 172.58 207.27C171.975 207.13 171.423 206.818 170.991 206.37C170.56 205.923 170.268 205.36 170.15 204.75C170.012 204.034 170.162 203.293 170.569 202.687C170.976 202.082 171.605 201.663 172.32 201.52C172.44 201.496 172.564 201.497 172.684 201.521C172.804 201.545 172.918 201.592 173.02 201.661C173.121 201.729 173.209 201.817 173.277 201.918C173.344 202.02 173.391 202.135 173.415 202.255C173.439 202.375 173.438 202.499 173.414 202.619C173.39 202.739 173.343 202.853 173.274 202.955C173.206 203.056 173.119 203.144 173.017 203.211C172.915 203.279 172.8 203.326 172.68 203.35C172.458 203.396 172.262 203.525 172.132 203.711C172.002 203.897 171.947 204.125 171.98 204.35C172.026 204.605 172.144 204.841 172.322 205.029C172.5 205.217 172.728 205.35 172.98 205.41C173.312 205.462 173.653 205.414 173.957 205.271C174.262 205.129 174.517 204.898 174.69 204.61C174.842 204.406 174.952 204.173 175.012 203.926C175.072 203.678 175.082 203.421 175.04 203.17C174.942 202.67 174.701 202.209 174.346 201.843C173.991 201.477 173.537 201.223 173.04 201.11C172.428 201.002 171.799 201.078 171.23 201.329C170.662 201.581 170.182 201.995 169.85 202.52C169.554 202.899 169.341 203.337 169.226 203.803C169.111 204.27 169.095 204.757 169.18 205.23C169.201 205.338 169.228 205.445 169.26 205.55C169.431 206.199 169.765 206.793 170.231 207.276C170.696 207.759 171.278 208.115 171.92 208.31C172.617 208.541 173.361 208.594 174.084 208.465C174.807 208.336 175.486 208.028 176.06 207.57L176.21 207.44C177.366 206.469 178.332 205.293 179.06 203.97C181.67 199.32 185.53 199.18 186.06 199.17L186.3 199.17C187.198 199.152 188.069 199.474 188.74 200.07ZM187.02 204.07C187.349 204.039 187.653 203.881 187.866 203.628C188.08 203.376 188.185 203.05 188.16 202.72C188.143 202.482 188.079 202.249 187.97 202.036C187.862 201.823 187.713 201.634 187.53 201.48C187.414 201.382 187.286 201.298 187.15 201.23C187.274 201.356 187.36 201.515 187.397 201.689C187.434 201.862 187.421 202.042 187.359 202.208C187.297 202.374 187.189 202.519 187.047 202.626C186.906 202.732 186.737 202.796 186.56 202.81C186.471 202.819 186.387 202.853 186.316 202.908C186.245 202.963 186.191 203.036 186.16 203.12C186.128 203.255 186.136 203.396 186.184 203.526C186.232 203.656 186.318 203.769 186.43 203.85C186.576 203.991 186.768 204.073 186.97 204.08L187.02 204.07Z" fill="url(#paint15_linear_69_198)"/>
<path d="M177.28 191.18L177.4 191.28C178.751 192.395 179.884 193.751 180.74 195.28C182.58 198.57 185.06 199.05 185.86 199.12C185.526 199.005 185.221 198.817 184.969 198.57C184.716 198.322 184.522 198.022 184.4 197.69C184.245 197.219 184.231 196.714 184.361 196.235C184.491 195.757 184.758 195.328 185.13 195C185.4 194.738 185.722 194.536 186.075 194.407C186.428 194.278 186.805 194.224 187.18 194.25C187.999 194.326 188.756 194.721 189.287 195.349C189.818 195.978 190.081 196.789 190.02 197.61C189.946 198.571 189.496 199.465 188.768 200.098C188.04 200.73 187.093 201.051 186.13 200.99C185.56 200.99 181.72 200.84 179.13 196.2C178.399 194.865 177.426 193.678 176.26 192.7L176.13 192.59C175.556 192.132 174.877 191.824 174.154 191.695C173.431 191.565 172.687 191.619 171.99 191.85C171.348 192.045 170.766 192.401 170.301 192.884C169.835 193.367 169.501 193.961 169.33 194.61C169.33 194.72 169.27 194.82 169.25 194.93C169.164 195.403 169.18 195.89 169.295 196.357C169.411 196.824 169.624 197.261 169.92 197.64C170.252 198.165 170.733 198.58 171.3 198.832C171.868 199.085 172.498 199.164 173.11 199.06C173.607 198.943 174.06 198.686 174.414 198.319C174.769 197.952 175.01 197.491 175.11 196.99C175.152 196.74 175.142 196.485 175.082 196.239C175.022 195.993 174.912 195.762 174.76 195.56C174.587 195.271 174.333 195.039 174.028 194.895C173.724 194.751 173.383 194.7 173.05 194.75C172.799 194.811 172.571 194.944 172.393 195.132C172.216 195.32 172.097 195.556 172.05 195.81C172.02 196.034 172.075 196.261 172.205 196.447C172.334 196.632 172.529 196.762 172.75 196.81C172.877 196.826 172.999 196.867 173.109 196.933C173.219 196.998 173.314 197.085 173.389 197.188C173.464 197.292 173.516 197.409 173.544 197.534C173.571 197.659 173.572 197.788 173.548 197.913C173.523 198.039 173.472 198.157 173.4 198.262C173.327 198.367 173.233 198.456 173.125 198.524C173.016 198.591 172.895 198.635 172.769 198.653C172.642 198.672 172.513 198.664 172.39 198.63C171.676 198.49 171.046 198.072 170.64 197.468C170.233 196.865 170.082 196.125 170.22 195.41C170.338 194.799 170.631 194.235 171.062 193.786C171.493 193.338 172.044 193.023 172.65 192.88C173.335 192.745 174.045 192.817 174.689 193.086C175.333 193.355 175.884 193.809 176.27 194.39C176.579 194.801 176.8 195.272 176.919 195.773C177.037 196.274 177.051 196.794 176.96 197.3C176.794 198.151 176.386 198.936 175.785 199.56C175.183 200.185 174.414 200.622 173.57 200.82C172.609 201.007 171.615 200.907 170.71 200.534C169.805 200.16 169.03 199.53 168.48 198.72C168.029 198.129 167.706 197.45 167.534 196.726C167.362 196.003 167.343 195.251 167.48 194.52C167.48 194.37 167.55 194.22 167.59 194.07C167.847 193.13 168.338 192.271 169.016 191.572C169.695 190.872 170.539 190.356 171.47 190.07C172.116 189.858 172.791 189.75 173.47 189.75C174.864 189.791 176.204 190.294 177.28 191.18ZM187.53 198.74C187.712 198.587 187.861 198.4 187.969 198.189C188.078 197.977 188.142 197.747 188.16 197.51C188.177 197.184 188.068 196.865 187.856 196.617C187.644 196.369 187.345 196.213 187.02 196.18C186.911 196.172 186.801 196.189 186.699 196.229C186.597 196.268 186.505 196.33 186.43 196.41C186.318 196.489 186.232 196.6 186.184 196.728C186.135 196.857 186.127 196.997 186.16 197.13C186.188 197.216 186.241 197.291 186.312 197.347C186.384 197.402 186.47 197.434 186.56 197.44C186.737 197.454 186.906 197.518 187.047 197.624C187.189 197.731 187.297 197.876 187.359 198.042C187.421 198.208 187.434 198.388 187.397 198.561C187.36 198.735 187.274 198.894 187.15 199.02C187.29 198.955 187.419 198.867 187.53 198.76L187.53 198.74Z" fill="url(#paint16_linear_69_198)"/>
<path d="M11.4101 7.44998C11.4956 7.32126 11.6115 7.21556 11.7475 7.1423C11.8836 7.06905 12.0356 7.03044 12.1901 7.02994C12.3453 7.03379 12.4975 7.0738 12.6347 7.1467C12.7718 7.2196 12.89 7.32344 12.9801 7.44998C13.1101 7.64998 16.1401 12.4499 15.3901 16.1599C15.2456 16.9026 14.8473 17.5719 14.2635 18.0531C13.6797 18.5343 12.9467 18.7974 12.1901 18.7974C11.4335 18.7974 10.7005 18.5343 10.1167 18.0531C9.53284 17.5719 9.13456 16.9026 8.99008 16.1599C8.91007 15.7481 8.86989 15.3295 8.87008 14.9099C8.82008 11.4399 11.2901 7.62998 11.4101 7.44998ZM13.5701 15.7899C13.9501 13.8599 12.9501 11.39 12.1901 9.86996C11.3701 11.51 10.4601 13.9699 10.8201 15.7899C10.8689 16.1197 11.0347 16.4209 11.2871 16.6387C11.5395 16.8565 11.8617 16.9763 12.1951 16.9763C12.5285 16.9763 12.8507 16.8565 13.1031 16.6387C13.3555 16.4209 13.5213 16.1197 13.5701 15.7899Z" fill="url(#paint17_linear_69_198)"/>
<path d="M12.1301 20.4199C12.4425 20.0539 12.8242 19.7532 13.2532 19.5353C13.6823 19.3173 14.1502 19.1863 14.6301 19.1499C15.4501 19.0833 16.2633 19.3433 16.8926 19.8734C17.5219 20.4034 17.9163 21.1605 17.99 21.9799C18.0185 22.3545 17.9672 22.7309 17.8397 23.0842C17.7121 23.4376 17.5112 23.7598 17.2501 24.0299C16.924 24.4038 16.4945 24.6727 16.0157 24.8026C15.5369 24.9326 15.0304 24.9177 14.5601 24.76C14.2286 24.6404 13.9281 24.4481 13.6806 24.1972C13.4331 23.9462 13.245 23.6431 13.1301 23.3099C13.2001 24.1099 13.6901 26.5799 16.9701 28.4199C18.5011 29.2684 19.8581 30.3982 20.9701 31.75L21.0801 31.88C21.7345 32.6931 22.1752 33.6571 22.3621 34.684C22.549 35.711 22.4761 36.7684 22.1501 37.76C21.8636 38.691 21.3468 39.5346 20.6476 40.2128C19.9484 40.8911 19.0894 41.3819 18.1501 41.64L17.7001 41.75C16.969 41.888 16.2171 41.8702 15.4934 41.6979C14.7697 41.5256 14.0905 41.2026 13.5001 40.75C12.6902 40.2002 12.0596 39.4248 11.6863 38.52C11.313 37.6152 11.2135 36.6208 11.4001 35.6599C11.5961 34.816 12.0332 34.0473 12.6581 33.4472C13.2831 32.8471 14.0689 32.4416 14.92 32.2799C15.4241 32.1836 15.9428 32.1944 16.4424 32.3116C16.942 32.4287 17.4114 32.6497 17.8201 32.96C18.4025 33.3455 18.8571 33.8955 19.126 34.5401C19.3949 35.1847 19.4659 35.8948 19.3301 36.58C19.1927 37.1866 18.8809 37.7398 18.4332 38.1715C17.9854 38.6033 17.4213 38.8947 16.8101 39.01C16.0942 39.1482 15.3528 38.9976 14.7476 38.591C14.1424 38.1844 13.7227 37.5549 13.5801 36.8399C13.5323 36.5972 13.5829 36.3456 13.7208 36.1402C13.8586 35.9349 14.0724 35.7927 14.3151 35.7449C14.5577 35.6972 14.8094 35.7478 15.0148 35.8856C15.2201 36.0235 15.3624 36.2373 15.4101 36.4799C15.4561 36.7021 15.5853 36.8983 15.7712 37.0284C15.957 37.1585 16.1856 37.2127 16.4101 37.1799C16.6639 37.1321 16.8987 37.0125 17.0866 36.8353C17.2745 36.658 17.4076 36.4306 17.4701 36.1799C17.5197 35.8467 17.4692 35.5063 17.3249 35.2019C17.1807 34.8974 16.9493 34.6426 16.6601 34.4699C16.4576 34.3143 16.2253 34.202 15.9775 34.1401C15.7298 34.0782 15.472 34.0679 15.2201 34.1099C14.7214 34.2113 14.2622 34.4536 13.897 34.8081C13.5319 35.1626 13.2762 35.6144 13.1601 36.1099C13.0544 36.7225 13.1329 37.3527 13.3857 37.9205C13.6385 38.4884 14.0542 38.9685 14.5801 39.2999C14.9564 39.6011 15.3936 39.817 15.8614 39.9326C16.3293 40.0483 16.8167 40.061 17.29 39.9699L17.61 39.8999C18.256 39.723 18.8472 39.3868 19.3295 38.9221C19.8117 38.4573 20.1695 37.8789 20.3701 37.2399C20.5998 36.542 20.6516 35.7977 20.5206 35.0747C20.3896 34.3517 20.0801 33.6729 19.6201 33.0999L19.5001 32.94C18.5227 31.7865 17.3435 30.8207 16.0201 30.0899C11.3801 27.4899 11.24 23.6199 11.23 23.0899C11.2253 23.0067 11.2253 22.9232 11.23 22.8399C11.2243 21.9504 11.5444 21.0895 12.1301 20.4199ZM16.1301 22.14C16.0971 21.81 15.9363 21.506 15.6822 21.293C15.4281 21.08 15.1007 20.9748 14.7701 21C14.2899 21.0386 13.8444 21.2649 13.5301 21.63C13.4342 21.7479 13.3504 21.8752 13.2801 22.01C13.4374 21.8586 13.6424 21.7666 13.86 21.75C14.1053 21.7306 14.3482 21.8092 14.5356 21.9685C14.723 22.1278 14.8396 22.3548 14.86 22.5999C14.8706 22.691 14.9061 22.7775 14.9626 22.8498C15.019 22.9221 15.0942 22.9776 15.1801 23.01C15.3133 23.0401 15.4525 23.0307 15.5804 22.9827C15.7084 22.9347 15.8195 22.8503 15.9001 22.7399C16.0433 22.5962 16.1256 22.4028 16.1301 22.2L16.1301 22.14Z" fill="url(#paint18_linear_69_198)"/>
<path d="M3.27001 31.88L3.35998 31.77C4.48517 30.4064 5.85968 29.2695 7.41003 28.4199C10.69 26.5799 11.17 24.0999 11.24 23.2999C11.1269 23.6353 10.9396 23.9408 10.692 24.1936C10.4444 24.4464 10.1429 24.64 9.80999 24.76C9.33966 24.9177 8.83314 24.9326 8.35436 24.8026C7.87559 24.6727 7.44604 24.4038 7.11999 24.0299C6.85782 23.7606 6.65617 23.4384 6.52856 23.0849C6.40094 22.7313 6.3503 22.3546 6.38 21.9799C6.45377 21.1605 6.84825 20.4034 7.47753 19.8734C8.10681 19.3433 8.91994 19.0833 9.73998 19.1499C10.7007 19.2242 11.5933 19.6743 12.2242 20.4025C12.8551 21.1308 13.1734 22.0785 13.11 23.0399C13.11 23.5999 12.96 27.4399 8.32 30.0399C6.99007 30.7738 5.80695 31.7468 4.83001 32.9099L4.72002 33.0499C4.26001 33.6229 3.95043 34.3017 3.81945 35.0247C3.68847 35.7477 3.74025 36.492 3.97002 37.19C4.17061 37.8289 4.52839 38.4073 5.01061 38.8721C5.49284 39.3368 6.08402 39.6731 6.72997 39.8499L7.04998 39.9199C7.52327 40.011 8.01068 39.9983 8.47857 39.8826C8.94646 39.767 9.38369 39.5511 9.76 39.25C10.2859 38.9185 10.7015 38.4384 10.9543 37.8706C11.2071 37.3027 11.2856 36.6725 11.18 36.0599C11.0651 35.5639 10.8097 35.1115 10.4443 34.7568C10.079 34.4021 9.61921 34.1602 9.11999 34.0599C8.86811 34.0179 8.61028 34.0282 8.36254 34.0901C8.1148 34.152 7.88244 34.2643 7.67999 34.4199C7.3736 34.5899 7.12683 34.8498 6.97301 35.1646C6.8192 35.4794 6.76579 35.8338 6.82 36.1799C6.8825 36.4306 7.0156 36.658 7.20348 36.8353C7.39137 37.0125 7.62616 37.1321 7.88 37.1799C8.1045 37.2127 8.33304 37.1585 8.51891 37.0284C8.70478 36.8983 8.83394 36.7021 8.88 36.4799C8.92774 36.2373 9.06991 36.0235 9.27526 35.8856C9.48061 35.7478 9.73236 35.6972 9.97503 35.7449C10.2177 35.7927 10.4314 35.9349 10.5693 36.1402C10.7071 36.3456 10.7578 36.5972 10.71 36.8399C10.5674 37.5549 10.1476 38.1844 9.54247 38.591C8.9373 38.9976 8.19581 39.1482 7.47997 39.01C6.86877 38.8947 6.30459 38.6033 5.85686 38.1715C5.40914 37.7398 5.09742 37.1866 4.96001 36.58C4.82415 35.8948 4.89516 35.1847 5.16406 34.5401C5.43295 33.8955 5.88758 33.3455 6.47002 32.96C6.87873 32.6497 7.3481 32.4287 7.84771 32.3116C8.34732 32.1944 8.86595 32.1836 9.36999 32.2799C10.2212 32.4416 11.007 32.8471 11.632 33.4472C12.2569 34.0473 12.694 34.816 12.89 35.6599C13.0766 36.6208 12.9771 37.6152 12.6038 38.52C12.2305 39.4248 11.5998 40.2002 10.79 40.75C10.1996 41.2026 9.5204 41.5256 8.79668 41.6979C8.07297 41.8702 7.32105 41.888 6.59002 41.75L6.15002 41.6499C5.21083 41.3884 4.35234 40.8952 3.65343 40.2155C2.95453 39.5358 2.43759 38.6915 2.15002 37.76C1.93992 37.1143 1.83524 36.439 1.84002 35.76C1.86104 34.3415 2.36551 32.9728 3.27001 31.88ZM10.82 21.63C10.5057 21.2649 10.0601 21.0386 9.58001 21C9.24936 20.9748 8.92197 21.08 8.66784 21.293C8.41371 21.506 8.25301 21.81 8.22003 22.14C8.21541 22.2504 8.23339 22.3605 8.27294 22.4637C8.3125 22.5669 8.37277 22.6609 8.45001 22.7399C8.53218 22.8511 8.64503 22.9359 8.77471 22.9839C8.90439 23.0319 9.04523 23.0409 9.17999 23.01C9.26333 22.9752 9.33597 22.9189 9.39044 22.8469C9.4449 22.7748 9.47924 22.6896 9.48998 22.5999C9.51038 22.3548 9.62709 22.1278 9.81451 21.9685C10.0019 21.8092 10.2448 21.7306 10.49 21.75C10.7081 21.765 10.9137 21.8571 11.07 22.01C10.9997 21.8752 10.9159 21.7479 10.82 21.63Z" fill="url(#paint19_linear_69_198)"/>
</g>
<defs>
<linearGradient id="paint0_linear_69_198" x1="-739.77" y1="-313.2" x2="313.85" y2="283.56" gradientUnits="userSpaceOnUse">
<stop stop-color="#EEDEBC"/>
<stop offset="0.06" stop-color="#DDC6A3"/>
<stop offset="0.14" stop-color="#C9A885"/>
<stop offset="0.26" stop-color="#9A7A5F"/>
<stop offset="0.36" stop-color="#C9A885"/>
<stop offset="0.49" stop-color="#EEDEBC"/>
<stop offset="0.54" stop-color="#DDC6A3"/>
<stop offset="0.61" stop-color="#C9A885"/>
<stop offset="0.72" stop-color="#9A7A5F"/>
<stop offset="0.84" stop-color="#C9A885"/>
<stop offset="1" stop-color="#EEDEBC"/>
</linearGradient>
<linearGradient id="paint1_linear_69_198" x1="1.02325e+06" y1="-2499.49" x2="1.02306e+06" y2="3981.24" gradientUnits="userSpaceOnUse">
<stop stop-color="#EEDEBC"/>
<stop offset="0.06" stop-color="#DDC6A3"/>
<stop offset="0.14" stop-color="#C9A885"/>
<stop offset="0.26" stop-color="#9A7A5F"/>
<stop offset="0.36" stop-color="#C9A885"/>
<stop offset="0.49" stop-color="#EEDEBC"/>
<stop offset="0.54" stop-color="#DDC6A3"/>
<stop offset="0.61" stop-color="#C9A885"/>
<stop offset="0.72" stop-color="#9A7A5F"/>
<stop offset="0.84" stop-color="#C9A885"/>
<stop offset="1" stop-color="#EEDEBC"/>
</linearGradient>
<linearGradient id="paint2_linear_69_198" x1="14422.4" y1="-164404" x2="11347.1" y2="-164379" gradientUnits="userSpaceOnUse">
<stop stop-color="#EEDEBC"/>
<stop offset="0.06" stop-color="#DDC6A3"/>
<stop offset="0.14" stop-color="#C9A885"/>
<stop offset="0.26" stop-color="#9A7A5F"/>
<stop offset="0.36" stop-color="#C9A885"/>
<stop offset="0.49" stop-color="#EEDEBC"/>
<stop offset="0.54" stop-color="#DDC6A3"/>
<stop offset="0.61" stop-color="#C9A885"/>
<stop offset="0.72" stop-color="#9A7A5F"/>
<stop offset="0.84" stop-color="#C9A885"/>
<stop offset="1" stop-color="#EEDEBC"/>
</linearGradient>
<linearGradient id="paint3_linear_69_198" x1="189827" y1="-31837.7" x2="158013" y2="-15358.7" gradientUnits="userSpaceOnUse">
<stop stop-color="#EEDEBC"/>
<stop offset="0.06" stop-color="#DDC6A3"/>
<stop offset="0.14" stop-color="#C9A885"/>
<stop offset="0.26" stop-color="#9A7A5F"/>
<stop offset="0.36" stop-color="#C9A885"/>
<stop offset="0.49" stop-color="#EEDEBC"/>
<stop offset="0.54" stop-color="#DDC6A3"/>
<stop offset="0.61" stop-color="#C9A885"/>
<stop offset="0.72" stop-color="#9A7A5F"/>
<stop offset="0.84" stop-color="#C9A885"/>
<stop offset="1" stop-color="#EEDEBC"/>
</linearGradient>
<linearGradient id="paint4_linear_69_198" x1="210120" y1="-28492.1" x2="178262" y2="-8329.03" gradientUnits="userSpaceOnUse">
<stop stop-color="#EEDEBC"/>
<stop offset="0.06" stop-color="#DDC6A3"/>
<stop offset="0.14" stop-color="#C9A885"/>
<stop offset="0.26" stop-color="#9A7A5F"/>
<stop offset="0.36" stop-color="#C9A885"/>
<stop offset="0.49" stop-color="#EEDEBC"/>
<stop offset="0.54" stop-color="#DDC6A3"/>
<stop offset="0.61" stop-color="#C9A885"/>
<stop offset="0.72" stop-color="#9A7A5F"/>
<stop offset="0.84" stop-color="#C9A885"/>
<stop offset="1" stop-color="#EEDEBC"/>
</linearGradient>
<linearGradient id="paint5_linear_69_198" x1="148128" y1="-37044" x2="119955" y2="-27466.5" gradientUnits="userSpaceOnUse">
<stop stop-color="#EEDEBC"/>
<stop offset="0.06" stop-color="#DDC6A3"/>
<stop offset="0.14" stop-color="#C9A885"/>
<stop offset="0.26" stop-color="#9A7A5F"/>
<stop offset="0.36" stop-color="#C9A885"/>
<stop offset="0.49" stop-color="#EEDEBC"/>
<stop offset="0.54" stop-color="#DDC6A3"/>
<stop offset="0.61" stop-color="#C9A885"/>
<stop offset="0.72" stop-color="#9A7A5F"/>
<stop offset="0.84" stop-color="#C9A885"/>
<stop offset="1" stop-color="#EEDEBC"/>
</linearGradient>
<linearGradient id="paint6_linear_69_198" x1="250146" y1="-20657.3" x2="224312" y2="5876.44" gradientUnits="userSpaceOnUse">
<stop stop-color="#EEDEBC"/>
<stop offset="0.06" stop-color="#DDC6A3"/>
<stop offset="0.14" stop-color="#C9A885"/>
<stop offset="0.26" stop-color="#9A7A5F"/>
<stop offset="0.36" stop-color="#C9A885"/>
<stop offset="0.49" stop-color="#EEDEBC"/>
<stop offset="0.54" stop-color="#DDC6A3"/>
<stop offset="0.61" stop-color="#C9A885"/>
<stop offset="0.72" stop-color="#9A7A5F"/>
<stop offset="0.84" stop-color="#C9A885"/>
<stop offset="1" stop-color="#EEDEBC"/>
</linearGradient>
<linearGradient id="paint7_linear_69_198" x1="18504.5" y1="-2644.37" x2="15533.3" y2="-961.527" gradientUnits="userSpaceOnUse">
<stop stop-color="#EEDEBC"/>
<stop offset="0.06" stop-color="#DDC6A3"/>
<stop offset="0.14" stop-color="#C9A885"/>
<stop offset="0.26" stop-color="#9A7A5F"/>
<stop offset="0.36" stop-color="#C9A885"/>
<stop offset="0.49" stop-color="#EEDEBC"/>
<stop offset="0.54" stop-color="#DDC6A3"/>
<stop offset="0.61" stop-color="#C9A885"/>
<stop offset="0.72" stop-color="#9A7A5F"/>
<stop offset="0.84" stop-color="#C9A885"/>
<stop offset="1" stop-color="#EEDEBC"/>
</linearGradient>
<linearGradient id="paint8_linear_69_198" x1="47948.4" y1="-7138.23" x2="40244" y2="-2771.83" gradientUnits="userSpaceOnUse">
<stop stop-color="#EEDEBC"/>
<stop offset="0.06" stop-color="#DDC6A3"/>
<stop offset="0.14" stop-color="#C9A885"/>
<stop offset="0.26" stop-color="#9A7A5F"/>
<stop offset="0.36" stop-color="#C9A885"/>
<stop offset="0.49" stop-color="#EEDEBC"/>
<stop offset="0.54" stop-color="#DDC6A3"/>
<stop offset="0.61" stop-color="#C9A885"/>
<stop offset="0.72" stop-color="#9A7A5F"/>
<stop offset="0.84" stop-color="#C9A885"/>
<stop offset="1" stop-color="#EEDEBC"/>
</linearGradient>
<linearGradient id="paint9_linear_69_198" x1="18496.5" y1="-2680.11" x2="15525.4" y2="-997.29" gradientUnits="userSpaceOnUse">
<stop stop-color="#EEDEBC"/>
<stop offset="0.06" stop-color="#DDC6A3"/>
<stop offset="0.14" stop-color="#C9A885"/>
<stop offset="0.26" stop-color="#9A7A5F"/>
<stop offset="0.36" stop-color="#C9A885"/>
<stop offset="0.49" stop-color="#EEDEBC"/>
<stop offset="0.54" stop-color="#DDC6A3"/>
<stop offset="0.61" stop-color="#C9A885"/>
<stop offset="0.72" stop-color="#9A7A5F"/>
<stop offset="0.84" stop-color="#C9A885"/>
<stop offset="1" stop-color="#EEDEBC"/>
</linearGradient>
<linearGradient id="paint10_linear_69_198" x1="47866.3" y1="-7225.41" x2="40165.7" y2="-2865.32" gradientUnits="userSpaceOnUse">
<stop stop-color="#EEDEBC"/>
<stop offset="0.06" stop-color="#DDC6A3"/>
<stop offset="0.14" stop-color="#C9A885"/>
<stop offset="0.26" stop-color="#9A7A5F"/>
<stop offset="0.36" stop-color="#C9A885"/>
<stop offset="0.49" stop-color="#EEDEBC"/>
<stop offset="0.54" stop-color="#DDC6A3"/>
<stop offset="0.61" stop-color="#C9A885"/>
<stop offset="0.72" stop-color="#9A7A5F"/>
<stop offset="0.84" stop-color="#C9A885"/>
<stop offset="1" stop-color="#EEDEBC"/>
</linearGradient>
<linearGradient id="paint11_linear_69_198" x1="32301.5" y1="-4627.52" x2="27117.8" y2="-1691.48" gradientUnits="userSpaceOnUse">
<stop stop-color="#EEDEBC"/>
<stop offset="0.06" stop-color="#DDC6A3"/>
<stop offset="0.14" stop-color="#C9A885"/>
<stop offset="0.26" stop-color="#9A7A5F"/>
<stop offset="0.36" stop-color="#C9A885"/>
<stop offset="0.49" stop-color="#EEDEBC"/>
<stop offset="0.54" stop-color="#DDC6A3"/>
<stop offset="0.61" stop-color="#C9A885"/>
<stop offset="0.72" stop-color="#9A7A5F"/>
<stop offset="0.84" stop-color="#C9A885"/>
<stop offset="1" stop-color="#EEDEBC"/>
</linearGradient>
<linearGradient id="paint12_linear_69_198" x1="175327" y1="-25578" x2="147383" y2="-9521.56" gradientUnits="userSpaceOnUse">
<stop stop-color="#EEDEBC"/>
<stop offset="0.06" stop-color="#DDC6A3"/>
<stop offset="0.14" stop-color="#C9A885"/>
<stop offset="0.26" stop-color="#9A7A5F"/>
<stop offset="0.36" stop-color="#C9A885"/>
<stop offset="0.49" stop-color="#EEDEBC"/>
<stop offset="0.54" stop-color="#DDC6A3"/>
<stop offset="0.61" stop-color="#C9A885"/>
<stop offset="0.72" stop-color="#9A7A5F"/>
<stop offset="0.84" stop-color="#C9A885"/>
<stop offset="1" stop-color="#EEDEBC"/>
</linearGradient>
<linearGradient id="paint13_linear_69_198" x1="151426" y1="-23197.5" x2="127071" y2="-9384.99" gradientUnits="userSpaceOnUse">
<stop stop-color="#EEDEBC"/>
<stop offset="0.06" stop-color="#DDC6A3"/>
<stop offset="0.14" stop-color="#C9A885"/>
<stop offset="0.26" stop-color="#9A7A5F"/>
<stop offset="0.36" stop-color="#C9A885"/>
<stop offset="0.49" stop-color="#EEDEBC"/>
<stop offset="0.54" stop-color="#DDC6A3"/>
<stop offset="0.61" stop-color="#C9A885"/>
<stop offset="0.72" stop-color="#9A7A5F"/>
<stop offset="0.84" stop-color="#C9A885"/>
<stop offset="1" stop-color="#EEDEBC"/>
</linearGradient>
<linearGradient id="paint14_linear_69_198" x1="77217.2" y1="-6815.13" x2="69065.1" y2="1405.09" gradientUnits="userSpaceOnUse">
<stop stop-color="#EEDEBC"/>
<stop offset="0.06" stop-color="#DDC6A3"/>
<stop offset="0.14" stop-color="#C9A885"/>
<stop offset="0.26" stop-color="#9A7A5F"/>
<stop offset="0.36" stop-color="#C9A885"/>
<stop offset="0.49" stop-color="#EEDEBC"/>
<stop offset="0.54" stop-color="#DDC6A3"/>
<stop offset="0.61" stop-color="#C9A885"/>
<stop offset="0.72" stop-color="#9A7A5F"/>
<stop offset="0.84" stop-color="#C9A885"/>
<stop offset="1" stop-color="#EEDEBC"/>
</linearGradient>
<linearGradient id="paint15_linear_69_198" x1="148362" y1="-11552.4" x2="134692" y2="4104.84" gradientUnits="userSpaceOnUse">
<stop stop-color="#EEDEBC"/>
<stop offset="0.06" stop-color="#DDC6A3"/>
<stop offset="0.14" stop-color="#C9A885"/>
<stop offset="0.26" stop-color="#9A7A5F"/>
<stop offset="0.36" stop-color="#C9A885"/>
<stop offset="0.49" stop-color="#EEDEBC"/>
<stop offset="0.54" stop-color="#DDC6A3"/>
<stop offset="0.61" stop-color="#C9A885"/>
<stop offset="0.72" stop-color="#9A7A5F"/>
<stop offset="0.84" stop-color="#C9A885"/>
<stop offset="1" stop-color="#EEDEBC"/>
</linearGradient>
<linearGradient id="paint16_linear_69_198" x1="147833" y1="-11640.2" x2="134134" y2="3978.09" gradientUnits="userSpaceOnUse">
<stop stop-color="#EEDEBC"/>
<stop offset="0.06" stop-color="#DDC6A3"/>
<stop offset="0.14" stop-color="#C9A885"/>
<stop offset="0.26" stop-color="#9A7A5F"/>
<stop offset="0.36" stop-color="#C9A885"/>
<stop offset="0.49" stop-color="#EEDEBC"/>
<stop offset="0.54" stop-color="#DDC6A3"/>
<stop offset="0.61" stop-color="#C9A885"/>
<stop offset="0.72" stop-color="#9A7A5F"/>
<stop offset="0.84" stop-color="#C9A885"/>
<stop offset="1" stop-color="#EEDEBC"/>
</linearGradient>
<linearGradient id="paint17_linear_69_198" x1="43062.5" y1="-13170.2" x2="34678.6" y2="-10490.7" gradientUnits="userSpaceOnUse">
<stop stop-color="#EEDEBC"/>
<stop offset="0.06" stop-color="#DDC6A3"/>
<stop offset="0.14" stop-color="#C9A885"/>
<stop offset="0.26" stop-color="#9A7A5F"/>
<stop offset="0.36" stop-color="#C9A885"/>
<stop offset="0.49" stop-color="#EEDEBC"/>
<stop offset="0.54" stop-color="#DDC6A3"/>
<stop offset="0.61" stop-color="#C9A885"/>
<stop offset="0.72" stop-color="#9A7A5F"/>
<stop offset="0.84" stop-color="#C9A885"/>
<stop offset="1" stop-color="#EEDEBC"/>
</linearGradient>
<linearGradient id="paint18_linear_69_198" x1="72945.9" y1="-25136.1" x2="58447.9" y2="-21071.6" gradientUnits="userSpaceOnUse">
<stop stop-color="#EEDEBC"/>
<stop offset="0.06" stop-color="#DDC6A3"/>
<stop offset="0.14" stop-color="#C9A885"/>
<stop offset="0.26" stop-color="#9A7A5F"/>
<stop offset="0.36" stop-color="#C9A885"/>
<stop offset="0.49" stop-color="#EEDEBC"/>
<stop offset="0.54" stop-color="#DDC6A3"/>
<stop offset="0.61" stop-color="#C9A885"/>
<stop offset="0.72" stop-color="#9A7A5F"/>
<stop offset="0.84" stop-color="#C9A885"/>
<stop offset="1" stop-color="#EEDEBC"/>
</linearGradient>
<linearGradient id="paint19_linear_69_198" x1="73224" y1="-25066" x2="58680.5" y2="-20973.8" gradientUnits="userSpaceOnUse">
<stop stop-color="#EEDEBC"/>
<stop offset="0.06" stop-color="#DDC6A3"/>
<stop offset="0.14" stop-color="#C9A885"/>
<stop offset="0.26" stop-color="#9A7A5F"/>
<stop offset="0.36" stop-color="#C9A885"/>
<stop offset="0.49" stop-color="#EEDEBC"/>
<stop offset="0.54" stop-color="#DDC6A3"/>
<stop offset="0.61" stop-color="#C9A885"/>
<stop offset="0.72" stop-color="#9A7A5F"/>
<stop offset="0.84" stop-color="#C9A885"/>
<stop offset="1" stop-color="#EEDEBC"/>
</linearGradient>
<clipPath id="clip0_69_198">
<rect width="212.54" height="212.54" fill="white" transform="translate(212.54 212.54) rotate(-180)"/>
</clipPath>
</defs>
</svg>
