<svg width="210" height="210" viewBox="0 0 210 210" fill="none" xmlns="http://www.w3.org/2000/svg">
<g clip-path="url(#clip0_11_295)">
<path d="M166.38 190.25L165.7 190.02L166.38 190.25C165.761 192.062 164.834 193.753 163.64 195.25C161.729 197.671 159.215 199.547 156.35 200.69L156.28 200.69C153.196 201.89 149.908 202.478 146.6 202.42C140.717 202.255 134.898 201.14 129.37 199.12C124.928 197.573 120.587 195.753 116.37 193.67C94.9501 183.19 70.4601 179.5 54.4401 179.5C49.856 179.379 45.2745 179.826 40.8001 180.83C38.6773 181.409 36.5958 182.131 34.57 182.99C33.86 183.29 33.32 183.55 32.95 183.73L32.5501 183.94L32.4401 183.99C32.2598 184.092 32.057 184.147 31.8501 184.15C31.6449 184.143 31.445 184.083 31.2698 183.976C31.0946 183.87 30.95 183.719 30.8501 183.54C30.7426 183.362 30.6871 183.158 30.6901 182.95C30.6968 182.746 30.7554 182.547 30.8604 182.372C30.9654 182.197 31.1133 182.052 31.2901 181.95C34.1299 180.478 37.1296 179.337 40.2301 178.55C44.8968 177.493 49.6766 177.019 54.46 177.14C64.2047 177.224 73.9178 178.262 83.46 180.24C95.2448 182.561 106.691 186.354 117.53 191.53C121.604 193.575 125.802 195.362 130.1 196.88C135.377 198.817 140.932 199.887 146.55 200.05C149.531 200.106 152.494 199.59 155.28 198.53C155.866 198.051 156.332 197.441 156.64 196.75C157.316 195.302 157.817 193.777 158.13 192.21C158.48 190.66 158.68 189.21 158.78 188.48C158.887 187.622 159.27 186.822 159.87 186.2C160.23 185.818 160.664 185.514 161.145 185.306C161.627 185.098 162.146 184.99 162.67 184.99C162.881 184.995 163.092 185.015 163.3 185.05L163.37 185.05L163.44 185.05C164.324 185.249 165.114 185.743 165.68 186.449C166.247 187.156 166.557 188.034 166.56 188.94C166.571 189.383 166.511 189.826 166.38 190.25Z" fill="#E3D6A5"/>
<path d="M26.76 179.28C26.6581 179.457 26.5128 179.605 26.3378 179.71C26.1629 179.815 25.964 179.873 25.76 179.88C25.5525 179.881 25.3485 179.826 25.1701 179.72C24.8971 179.561 24.6971 179.301 24.613 178.997C24.529 178.692 24.5674 178.367 24.72 178.09C24.72 178.09 24.8201 177.91 25.0001 177.54C26.214 175.025 27.185 172.4 27.9 169.7C28.9034 165.226 29.3501 160.644 29.2301 156.06C29.2301 140.06 25.54 115.55 15.07 94.1301C12.9854 89.9127 11.162 85.5712 9.61007 81.1301C7.5877 75.6028 6.47653 69.7837 6.32003 63.9001C6.25925 60.5923 6.8435 57.3044 8.04006 54.2201L8.04006 54.1601C9.18588 51.2941 11.0612 48.7775 13.4801 46.8601C14.9793 45.6723 16.6702 44.749 18.4801 44.1301L18.71 44.8101L18.4801 44.1301C18.8943 43.9835 19.3306 43.9091 19.77 43.9101C20.679 43.9111 21.5606 44.2216 22.2695 44.7905C22.9784 45.3595 23.4724 46.1529 23.6701 47.0401C23.7932 47.683 23.7534 48.3466 23.5543 48.9702C23.3552 49.5937 23.003 50.1576 22.5301 50.6101C21.9078 51.2103 21.1079 51.5927 20.2501 51.7001C18.4548 51.9039 16.6768 52.2382 14.9301 52.7001C13.8973 52.9703 12.8927 53.3387 11.9301 53.8001C11.2386 54.108 10.6289 54.5738 10.15 55.1601C9.08965 57.9426 8.57368 60.9029 8.63009 63.8801C8.79264 69.5018 9.8631 75.0602 11.8001 80.3401C13.3129 84.6939 15.0963 88.9488 17.14 93.0801C22.3142 103.916 26.1072 115.359 28.4301 127.14C30.4071 136.682 31.4454 146.395 31.53 156.14C31.6552 160.924 31.1816 165.704 30.1201 170.37C29.3438 173.459 28.2164 176.448 26.76 179.28Z" fill="#E3D6A5"/>
<path d="M31.1901 151.55C30.9329 152.028 30.5945 152.458 30.1901 152.82C29.2143 153.693 27.9591 154.19 26.65 154.22C26.0433 154.265 25.435 154.156 24.8811 153.905C24.3272 153.653 23.8454 153.266 23.48 152.78C23.3245 152.472 23.236 152.134 23.2205 151.79C23.205 151.445 23.2627 151.101 23.39 150.78C23.6017 150.344 23.9539 149.992 24.39 149.78C25.2 149.35 25.86 149.7 26.66 149.53C29.4 148.94 27.95 147.07 27.04 146.53C26.3884 146.223 25.6686 146.089 24.95 146.14C17.7 146.44 19.8601 154.46 21.4401 158.2C23.0201 161.94 25.6801 165.52 26.7401 169.56C27.2901 171.65 27.16 174.51 25.39 176.21L24.8001 175.51C24.6901 175.24 24.57 174.97 24.45 174.7C24.8071 173.285 24.8886 171.815 24.6901 170.37C24.3801 167.37 22.9901 164.58 21.6901 161.89C20.5069 159.626 19.5586 157.247 18.8601 154.79C18.3001 152.65 17.6301 150.05 18.4301 147.79C19.1495 146.072 20.4798 144.682 22.1641 143.888C23.8484 143.094 25.7673 142.952 27.5501 143.49C30.9001 144.64 32.9601 148.27 31.1901 151.55Z" fill="#E3D6A5"/>
<path d="M20.9401 158.76C21.0301 158.95 21.11 159.15 21.2 159.33L20.9401 158.76Z" fill="#E3D6A5"/>
<path d="M0.560057 179.36C0.231696 178.22 0.194199 177.016 0.450988 175.858C0.707776 174.7 1.25063 173.624 2.03003 172.73C3.73003 170.89 6.93003 170.12 8.91003 171.44C9.37392 171.793 9.73819 172.261 9.96722 172.797C10.1963 173.333 10.2822 173.92 10.2167 174.499C10.1512 175.079 9.93654 175.631 9.59357 176.103C9.2506 176.575 8.79107 176.949 8.26001 177.19C6.95001 177.75 5.34006 177.55 4.19006 178.37C3.74089 178.71 3.41021 179.183 3.24505 179.721C3.0799 180.26 3.08863 180.837 3.27002 181.37C3.69496 182.39 4.45281 183.236 5.42004 183.77C12.6 188.28 22.4201 182.77 23.9401 175.19C25.3101 168.26 20.38 162.75 15.35 157.96C12.69 155.43 6.63004 154.22 4.60004 158.62C4.40004 159.05 4.12004 159.62 3.60004 159.56C3.42369 159.539 3.25879 159.462 3.13007 159.34C2.63622 158.929 2.24519 158.409 1.98822 157.82C1.73125 157.232 1.61542 156.591 1.65003 155.95C1.742 154.168 2.5026 152.486 3.78003 151.24C4.35003 150.68 6.38003 150.03 6.65003 149.46C6.92003 148.89 5.47006 146.59 5.18006 145.99C2.40006 140.24 -1.44999 134.11 0.510013 127.33C0.930013 125.87 2.30007 126.59 2.88007 127.41C4.08007 129.1 5.93002 130.41 6.96002 132.17C7.65003 131.9 8.26002 131.26 9.02002 130.97C9.8912 130.643 10.8208 130.5 11.7501 130.55C13.1839 130.586 14.56 131.122 15.6395 132.067C16.7191 133.011 17.4339 134.304 17.66 135.72C17.74 136.16 17.17 136.48 16.72 136.21C14.01 134.58 12.26 138.21 12.14 139.77C12.0526 141.583 12.1869 143.4 12.54 145.18C13.2223 148.596 14.7915 151.772 17.09 154.39C21.63 158.8 25.58 163.92 27.09 169.91C28.19 174.34 27.38 179.56 23.76 183.07C22.3245 184.427 20.6215 185.469 18.76 186.13C17.8531 186.469 16.92 186.733 15.97 186.92C9.43003 188.18 2.10006 185.1 0.560057 179.36Z" fill="#E3D6A5"/>
<path d="M56.84 178.37C56.3619 178.627 55.9321 178.966 55.57 179.37C54.6997 180.347 54.2068 181.602 54.1801 182.91C54.1333 183.517 54.2408 184.126 54.4926 184.68C54.7444 185.234 55.1322 185.716 55.6201 186.08C55.9281 186.236 56.2656 186.324 56.6104 186.34C56.9551 186.355 57.2993 186.297 57.6201 186.17C58.0531 185.954 58.404 185.603 58.6201 185.17C59.0401 184.37 58.7001 183.7 58.8701 182.91C59.4601 180.17 61.3301 181.62 61.8701 182.53C62.1807 183.177 62.3152 183.894 62.26 184.61C61.97 191.87 53.95 189.71 50.2 188.13C46.45 186.55 42.88 183.89 38.85 182.83C36.75 182.28 33.85 182.41 32.2 184.18L32.9 184.76C33.17 184.87 33.44 185 33.7 185.12C35.1179 184.763 36.5914 184.681 38.04 184.88C41.04 185.18 43.83 186.58 46.52 187.88C48.7828 189.068 51.1621 190.02 53.6201 190.72C55.7601 191.28 58.3601 191.95 60.6201 191.15C62.3347 190.427 63.722 189.096 64.5156 187.413C65.3092 185.73 65.4532 183.813 64.92 182.03C63.76 178.65 60.1 176.59 56.84 178.37Z" fill="#E3D6A5"/>
<path d="M49.6301 188.61L49.0601 188.36L49.6301 188.61Z" fill="#E3D6A5"/>
<path d="M29.03 208.97C30.1716 209.298 31.3771 209.336 32.5368 209.079C33.6966 208.822 34.7737 208.28 35.67 207.5C37.51 205.8 38.27 202.6 36.95 200.62C36.5967 200.156 36.129 199.792 35.5928 199.563C35.0565 199.334 34.47 199.248 33.8905 199.313C33.3111 199.379 32.7586 199.594 32.287 199.937C31.8154 200.28 31.4408 200.739 31.2 201.27C30.65 202.58 30.85 204.19 30.02 205.33C29.6811 205.78 29.2083 206.112 28.6694 206.277C28.1305 206.443 27.5531 206.433 27.02 206.25C26.0036 205.828 25.1609 205.074 24.63 204.11C20.12 196.93 25.63 187.11 33.21 185.59C40.13 184.22 45.64 189.14 50.43 194.18C52.97 196.84 54.17 202.9 49.77 204.93C49.35 205.13 48.77 205.41 48.83 205.93C48.8572 206.104 48.9336 206.267 49.05 206.4C49.4627 206.894 49.9848 207.285 50.575 207.542C51.1653 207.799 51.8072 207.915 52.45 207.88C54.2307 207.786 55.9098 207.021 57.15 205.74C57.71 205.17 58.37 203.15 58.94 202.88C59.51 202.61 61.81 204.06 62.41 204.35C68.16 207.12 74.29 210.97 81.1 208.97C82.56 208.54 81.84 207.18 81.02 206.6C79.32 205.4 78.02 203.55 76.26 202.52C76.53 201.83 77.16 201.22 77.45 200.46C77.7819 199.59 77.9251 198.66 77.87 197.73C77.8347 196.298 77.2995 194.923 76.3571 193.843C75.4147 192.764 74.1245 192.048 72.71 191.82C72.26 191.74 71.94 192.31 72.21 192.76C73.85 195.47 70.21 197.22 68.65 197.34C66.8405 197.423 65.0276 197.289 63.25 196.94C59.831 196.258 56.6514 194.689 54.03 192.39C49.62 187.85 44.51 183.9 38.51 182.39C34.08 181.29 28.86 182.1 25.36 185.72C24.0046 187.159 22.9596 188.86 22.29 190.72C21.9511 191.63 21.6901 192.566 21.51 193.52C20.21 200.13 23.3 207.48 29.03 208.97Z" fill="#E3D6A5"/>
<path d="M31.3701 161.91C34.9601 164.03 34.3701 170.31 33.3701 174.91C33.2501 175.46 33.1201 175.99 33.0001 176.47C33.4601 176.28 34.0001 176.09 34.4801 175.92C38.9001 174.37 45.0701 173.04 47.6101 176.34C48.5201 170.5 43.09 169.14 35.7 173.42C39.1 165.54 37.1001 160.31 31.3701 161.91Z" fill="#E3D6A5"/>
<path d="M208.65 186.53L56.21 186.53C56.0367 186.53 55.8651 186.496 55.7049 186.43C55.5447 186.363 55.3992 186.266 55.2767 186.143C55.1541 186.021 55.0569 185.875 54.9905 185.715C54.9242 185.555 54.89 185.383 54.89 185.21C54.89 185.037 54.9242 184.865 54.9905 184.705C55.0569 184.545 55.1541 184.399 55.2767 184.277C55.3992 184.154 55.5447 184.057 55.7049 183.99C55.8651 183.924 56.0367 183.89 56.21 183.89L208.65 183.89C209 183.89 209.336 184.029 209.583 184.277C209.831 184.524 209.97 184.86 209.97 185.21C209.97 185.56 209.831 185.896 209.583 186.143C209.336 186.391 209 186.53 208.65 186.53Z" fill="#E3D6A5"/>
<path d="M24.65 152.82C24.2999 152.82 23.9642 152.681 23.7167 152.433C23.4691 152.186 23.33 151.85 23.33 151.5L23.33 1.32007C23.33 0.969986 23.4691 0.634231 23.7167 0.386688C23.9642 0.139145 24.3 6.08892e-05 24.65 6.09198e-05C25.0001 6.09504e-05 25.3359 0.139145 25.5834 0.386688C25.831 0.634232 25.97 0.969986 25.97 1.32007L25.97 151.5C25.97 151.673 25.9359 151.845 25.8696 152.005C25.8032 152.165 25.706 152.311 25.5834 152.433C25.4609 152.556 25.3153 152.653 25.1552 152.72C24.995 152.786 24.8234 152.82 24.65 152.82Z" fill="#E3D6A5"/>
<path d="M30.86 202.7C30.8617 199.329 30.1814 195.992 28.86 192.89C26.9167 188.357 23.7132 184.477 19.6301 181.71C15.472 178.872 10.554 177.356 5.52002 177.36L5.33002 177.36C4.49273 177.314 3.70497 176.948 3.1286 176.339C2.55224 175.73 2.23108 174.924 2.23108 174.085C2.23108 173.246 2.55224 172.44 3.1286 171.831C3.70497 171.221 4.49273 170.856 5.33002 170.81L5.54004 170.81C9.79212 170.807 14.0005 171.668 17.91 173.34C23.5879 175.777 28.4469 179.793 31.91 184.91C35.4763 190.157 37.3822 196.356 37.3801 202.7C37.3801 203.129 37.2954 203.555 37.1311 203.951C36.9668 204.348 36.7259 204.709 36.4223 205.012C36.1187 205.316 35.7581 205.557 35.3614 205.721C34.9647 205.885 34.5395 205.97 34.11 205.97C33.6806 205.97 33.2554 205.885 32.8586 205.721C32.4619 205.557 32.1014 205.316 31.7978 205.012C31.4941 204.709 31.2533 204.348 31.0889 203.951C30.9246 203.555 30.84 203.129 30.84 202.7L30.86 202.7Z" fill="#E3D6A5"/>
<path d="M20.2401 192.78C20.238 191.786 19.8913 190.823 19.2591 190.055C18.6269 189.287 17.7482 188.763 16.7726 188.57C15.797 188.378 14.7848 188.529 13.9084 188.999C13.032 189.469 12.3455 190.228 11.9658 191.147C11.5862 192.066 11.5368 193.088 11.8261 194.04C12.1154 194.991 12.7254 195.813 13.5525 196.365C14.3795 196.917 15.3724 197.166 16.362 197.068C17.3516 196.971 18.2768 196.533 18.9801 195.83C19.3815 195.43 19.6996 194.955 19.9159 194.431C20.1321 193.908 20.2423 193.346 20.2401 192.78ZM17.6101 192.78C17.6105 193.166 17.4769 193.541 17.2321 193.84C16.9873 194.139 16.6463 194.344 16.2674 194.419C15.8885 194.495 15.4951 194.437 15.1542 194.255C14.8133 194.073 14.5459 193.779 14.3977 193.422C14.2496 193.065 14.2297 192.668 14.3416 192.298C14.4534 191.928 14.69 191.609 15.0111 191.394C15.3322 191.179 15.7179 191.082 16.1024 191.12C16.487 191.157 16.8467 191.327 17.1201 191.6C17.4315 191.914 17.6074 192.338 17.6101 192.78Z" fill="#E3D6A5"/>
</g>
<defs>
<clipPath id="clip0_11_295">
<rect width="209.96" height="209.55" fill="white" transform="translate(209.96 209.55) rotate(-180)"/>
</clipPath>
</defs>
</svg>
