<svg width="213" height="213" viewBox="0 0 213 213" fill="none" xmlns="http://www.w3.org/2000/svg">
<g clip-path="url(#clip0_69_248)">
<path d="M1.58051e-07 211.23L2.78562e-05 0.00997925L211.22 0.0100069C211.549 0.038724 211.855 0.189664 212.078 0.433103C212.301 0.676542 212.425 0.994794 212.425 1.32501C212.425 1.65522 212.301 1.97342 212.078 2.21686C211.855 2.46029 211.549 2.61129 211.22 2.64001L2.63003 2.63998L2.63001 211.23C2.60129 211.559 2.45029 211.865 2.20685 212.088C1.96341 212.311 1.64522 212.435 1.315 212.435C0.984787 212.435 0.666534 212.311 0.423096 212.088C0.179658 211.865 0.0287145 211.559 1.58051e-07 211.23Z" fill="url(#paint0_linear_69_248)"/>
<path d="M11.16 191.37L11.16 37.5399C11.1441 37.3576 11.1663 37.174 11.2252 37.0007C11.284 36.8274 11.3783 36.6682 11.502 36.5333C11.6256 36.3984 11.776 36.2906 11.9435 36.2169C12.111 36.1432 12.292 36.1052 12.4751 36.1052C12.6581 36.1052 12.8391 36.1432 13.0066 36.2169C13.1741 36.2906 13.3245 36.3984 13.4482 36.5333C13.5719 36.6682 13.6661 36.8274 13.7249 37.0007C13.7838 37.174 13.806 37.3576 13.7901 37.5399L13.79 191.37C13.7613 191.699 13.6104 192.005 13.3669 192.228C13.1235 192.451 12.8052 192.575 12.475 192.575C12.1448 192.575 11.8266 192.451 11.5832 192.228C11.3397 192.005 11.1887 191.699 11.16 191.37Z" fill="url(#paint1_linear_69_248)"/>
<path d="M35.12 12.19C35.12 11.8973 35.2355 11.6165 35.4415 11.4086C35.6475 11.2007 35.9273 11.0826 36.22 11.08L190.05 11.08C190.325 11.1062 190.58 11.2339 190.766 11.4382C190.952 11.6426 191.055 11.9088 191.055 12.185C191.055 12.4612 190.952 12.7274 190.766 12.9318C190.58 13.1361 190.325 13.2638 190.05 13.29L36.22 13.2899C35.9282 13.2899 35.6484 13.1741 35.4421 12.9678C35.2358 12.7615 35.12 12.4817 35.12 12.19Z" fill="url(#paint2_linear_69_248)"/>
<path d="M38.92 27.82C38.74 27.65 38.5699 27.4799 38.3999 27.2899C37.6025 26.4183 36.9994 25.3872 36.6305 24.2649C36.2615 23.1426 36.1353 21.9548 36.26 20.78C36.3001 20.3081 36.3769 19.8399 36.49 19.38C36.7332 18.0903 37.3085 16.8863 38.159 15.8867C39.0095 14.8872 40.1058 14.1266 41.3399 13.68C42.6339 13.2407 44.0275 13.1865 45.3517 13.5238C46.6759 13.861 47.8738 14.5753 48.8 15.58C49.3374 16.1713 49.7464 16.8675 50.0011 17.6248C50.2559 18.3822 50.3508 19.1841 50.2799 19.9799C50.2474 20.3169 50.1906 20.6511 50.11 20.9799C49.9391 21.8715 49.5397 22.7033 48.9507 23.394C48.3617 24.0847 47.6033 24.6105 46.75 24.92C45.8717 25.2246 44.9248 25.2732 44.0199 25.06C43.0573 24.8323 42.1838 24.3243 41.51 23.6C40.755 22.7841 40.3533 21.7026 40.3927 20.5917C40.432 19.4808 40.9091 18.4304 41.72 17.67C41.8618 17.5391 42.0332 17.4445 42.2195 17.394C42.4057 17.3435 42.6014 17.3387 42.79 17.38C43.0186 17.4386 43.2264 17.5598 43.39 17.7299C43.6008 17.9587 43.7128 18.2614 43.7015 18.5723C43.6903 18.8832 43.5567 19.1771 43.3299 19.39C43.0599 19.6381 42.8716 19.9624 42.79 20.32C42.7224 20.6155 42.7281 20.923 42.8065 21.2158C42.8849 21.5086 43.0337 21.7778 43.24 22C43.5937 22.3821 44.0532 22.6502 44.56 22.77C45.0351 22.873 45.5293 22.8454 45.99 22.69C46.462 22.5085 46.8788 22.2076 47.1996 21.8167C47.5204 21.4258 47.7342 20.9583 47.82 20.46C47.8728 20.2261 47.9095 19.9889 47.93 19.75C47.9743 19.2791 47.9207 18.8042 47.7727 18.3551C47.6247 17.9059 47.3855 17.4922 47.07 17.14C46.4274 16.4445 45.5916 15.957 44.67 15.74C43.8179 15.5428 42.9277 15.5879 42.1 15.87C41.2421 16.1832 40.4827 16.7186 39.8995 17.4214C39.3162 18.1241 38.9298 18.9691 38.7799 19.87C38.6982 20.2395 38.6381 20.6134 38.6 20.99C38.5067 21.8348 38.594 22.6898 38.856 23.4983C39.118 24.3069 39.5489 25.0505 40.12 25.68C40.25 25.82 40.3899 25.95 40.5299 26.08C41.404 26.9122 42.4846 27.4957 43.66 27.77C44.7677 28.0347 45.9222 28.0347 47.0299 27.77C48.2766 27.4644 49.4268 26.8512 50.3753 25.9865C51.3239 25.1218 52.0406 24.0331 52.4599 22.82L52.56 22.52C52.7481 22.0032 52.905 21.4756 53.0299 20.94C53.461 18.9707 53.6358 16.954 53.55 14.94C53.4578 13.3054 53.5958 11.6661 53.9599 10.07C54.5774 6.92832 56.415 4.15947 59.07 2.36997C59.1728 2.29423 59.2796 2.22417 59.39 2.16C60.5385 1.43779 61.9101 1.15703 63.25 1.36997C63.4 1.36997 63.54 1.36998 63.69 1.44998C65.0142 1.76114 66.1842 2.53403 66.99 3.62998C67.7381 4.65378 68.0526 5.93115 67.8655 7.18527C67.6783 8.4394 67.0044 9.56926 65.99 10.33C65.5305 10.6698 65.0036 10.9071 64.4447 11.0262C63.8859 11.1452 63.308 11.1431 62.75 11.02L62.67 11.02C61.9482 10.8814 61.2816 10.538 60.7497 10.0309C60.2177 9.52373 59.8429 8.87431 59.67 8.16C59.5548 7.65651 59.5548 7.13347 59.67 6.62998C59.8585 5.82771 60.3264 5.11874 60.99 4.62998C61.1139 4.53832 61.2548 4.47208 61.4044 4.43503C61.554 4.39798 61.7095 4.39086 61.8619 4.41409C62.0143 4.43733 62.1607 4.49045 62.2925 4.57041C62.4243 4.65036 62.539 4.75555 62.63 4.87998C62.7219 5.00473 62.7884 5.14635 62.8255 5.29679C62.8627 5.44722 62.8699 5.60353 62.8467 5.75675C62.8235 5.90996 62.7703 6.05712 62.6902 6.18979C62.6101 6.32246 62.5047 6.43808 62.38 6.53C62.2023 6.65974 62.0667 6.8389 61.9903 7.0452C61.9138 7.25149 61.8998 7.47576 61.95 7.68997C62.0022 7.93953 62.1358 8.16468 62.3299 8.32999C62.5764 8.53861 62.8727 8.67984 63.19 8.73996C63.4174 8.7939 63.6537 8.7986 63.8831 8.75376C64.1125 8.70891 64.3296 8.61556 64.5199 8.47995C64.9778 8.13852 65.3002 7.6462 65.43 7.09C65.5081 6.74605 65.5109 6.38927 65.4385 6.0441C65.366 5.69893 65.2198 5.37349 65.01 5.09C64.538 4.44418 63.8494 3.98979 63.07 3.80997C62.9845 3.78758 62.8977 3.77089 62.81 3.75998C62.3752 3.69041 61.931 3.70856 61.5033 3.81333C61.0757 3.91809 60.6734 4.10732 60.32 4.36997L60.24 4.41995C58.1418 5.89221 56.7054 8.12939 56.24 10.65C55.936 12.0382 55.8183 13.4607 55.89 14.88C55.9846 17.0821 55.793 19.2872 55.32 21.44C55.173 22.0745 54.986 22.6991 54.76 23.31L54.66 23.59C54.1072 25.1654 53.1688 26.5772 51.9304 27.6969C50.692 28.8165 49.1929 29.6083 47.57 30C46.1057 30.3758 44.5723 30.393 43.1 30.05C41.5353 29.6856 40.0939 28.9166 38.92 27.82Z" fill="url(#paint3_linear_69_248)"/>
<path d="M27.28 40.12C27.11 39.94 26.93 39.77 26.75 39.6C25.8581 38.825 24.8131 38.2464 23.6829 37.9018C22.5527 37.5572 21.3626 37.4544 20.19 37.6C19.7183 37.6516 19.2505 37.7351 18.79 37.85C17.5042 38.1261 16.3125 38.7323 15.3323 39.609C14.3521 40.4858 13.6172 41.6028 13.2001 42.85C12.8003 44.104 12.7621 45.4453 13.09 46.72C13.4394 48.0896 14.1919 49.3228 15.25 50.26C15.8509 50.7874 16.5554 51.1835 17.3182 51.4229C18.0811 51.6622 18.8855 51.7396 19.68 51.65C20.0168 51.6108 20.3508 51.5507 20.68 51.47C21.5684 51.2761 22.3919 50.8569 23.0714 50.2527C23.7509 49.6485 24.2636 48.8796 24.56 48.02C24.8359 47.1344 24.8636 46.1901 24.6401 45.2899C24.3996 44.3393 23.8849 43.4804 23.16 42.82C22.3275 42.0825 21.2376 41.7034 20.1271 41.7652C19.0167 41.827 17.9755 42.3247 17.23 43.15C17.1029 43.2957 17.0128 43.47 16.9675 43.658C16.9222 43.8461 16.9231 44.0423 16.97 44.2299C17.0267 44.4589 17.1523 44.6649 17.33 44.82C17.4738 44.947 17.6464 45.0371 17.8329 45.0824C18.0193 45.1277 18.214 45.1269 18.4 45.08C18.6273 45.0194 18.8322 44.8944 18.99 44.72C19.3175 44.3587 19.7743 44.1414 20.2612 44.1151C20.7481 44.0889 21.2256 44.256 21.59 44.58C21.9798 44.9243 22.2583 45.3768 22.3901 45.88C22.5196 46.3478 22.5196 46.8421 22.3901 47.31C22.2219 47.7896 21.9297 48.2162 21.5433 48.5464C21.1569 48.8765 20.69 49.0986 20.19 49.19C19.9602 49.2505 19.7262 49.2939 19.49 49.32C19.0195 49.3745 18.5427 49.3306 18.0899 49.1912C17.6372 49.0518 17.2184 48.8198 16.86 48.51C16.1781 47.9052 15.6859 47.116 15.4428 46.2376C15.1997 45.3592 15.2161 44.4292 15.49 43.56C15.7847 42.7001 16.3016 41.9336 16.9883 41.3382C17.6751 40.7428 18.5071 40.3397 19.4 40.1699C19.7645 40.0757 20.1356 40.0089 20.5101 39.97C21.3526 39.8544 22.2102 39.9213 23.0246 40.1663C23.839 40.4114 24.5911 40.8287 25.23 41.39C25.37 41.52 25.5101 41.6499 25.6401 41.7899C26.465 42.6348 27.0574 43.6786 27.36 44.82C27.6255 45.9276 27.6255 47.0823 27.36 48.19C27.0836 49.4385 26.4998 50.5982 25.6615 51.5639C24.8233 52.5296 23.7573 53.2707 22.56 53.72L22.27 53.83C21.757 54.0275 21.2328 54.1945 20.7001 54.33C18.756 54.7992 16.7594 55.0144 14.76 54.97C13.1272 54.9201 11.4952 55.095 9.91001 55.49C6.78906 56.2017 4.07555 58.1174 2.36002 60.82C2.2831 60.9219 2.21293 61.0288 2.15 61.14C1.4549 62.306 1.20291 63.6834 1.44004 65.02C1.44004 65.17 1.50001 65.32 1.53001 65.46C1.86781 66.7799 2.66568 67.936 3.78001 68.72C4.35408 69.1241 5.0095 69.3978 5.70042 69.5222C6.39133 69.6465 7.10106 69.6185 7.78001 69.44C8.87181 69.1707 9.83237 68.5221 10.49 67.61C10.8189 67.1418 11.0436 66.6086 11.1488 66.0462C11.2541 65.4838 11.2374 64.9054 11.1 64.35L11.1 64.26C10.9525 63.5394 10.599 62.8771 10.0825 62.3534C9.56595 61.8298 8.90856 61.4673 8.19004 61.31C7.686 61.1997 7.16405 61.1997 6.66001 61.31C5.85032 61.5113 5.14029 61.9977 4.66001 62.68C4.55806 62.823 4.48905 62.9869 4.45792 63.1598C4.4268 63.3327 4.43435 63.5103 4.48002 63.68C4.54836 63.9538 4.71585 64.1925 4.95005 64.35C5.09248 64.4533 5.25635 64.523 5.42948 64.5542C5.60262 64.5853 5.78056 64.5771 5.95005 64.53C6.22231 64.4642 6.4608 64.3004 6.62003 64.07C6.72079 63.929 6.85211 63.8126 7.00419 63.7295C7.15627 63.6463 7.32517 63.5986 7.49827 63.59C7.67136 63.5813 7.84421 63.6119 8.00382 63.6795C8.16344 63.747 8.3057 63.8497 8.42002 63.9799C8.62972 64.2245 8.77723 64.5162 8.85001 64.83C8.90843 65.0569 8.91816 65.2937 8.87852 65.5246C8.83887 65.7556 8.75078 65.9755 8.62003 66.1699C8.28567 66.6346 7.79622 66.9645 7.24003 67.1C6.89972 67.1865 6.5447 67.1982 6.19944 67.1343C5.85418 67.0704 5.52687 66.9325 5.24003 66.7299C4.58188 66.2755 4.11244 65.5963 3.92002 64.82L3.86002 64.56C3.70808 63.6853 3.90949 62.7862 4.42002 62.06L4.47001 61.97C5.8919 59.8318 8.09699 58.3377 10.61 57.81C11.9902 57.4727 13.4099 57.3246 14.83 57.37C17.0381 57.4169 19.2431 57.1783 21.3901 56.66C22.0228 56.5021 22.6442 56.3016 23.25 56.06L23.52 55.96C25.0831 55.3746 26.4748 54.4072 27.5682 53.1461C28.6616 51.885 29.422 50.3702 29.78 48.74C30.1355 47.2712 30.1355 45.7388 29.78 44.27C29.3375 42.686 28.4734 41.2517 27.28 40.12Z" fill="url(#paint4_linear_69_248)"/>
<path d="M0.810069 31.58C0.810069 31.83 0.930071 32.08 1.00007 32.33C1.35154 33.5225 1.95228 34.6268 2.76252 35.5698C3.57276 36.5128 4.57405 37.2729 5.70008 37.7999C6.15003 38.0182 6.61442 38.2053 7.09004 38.3599C8.38476 38.8361 9.78064 38.9695 11.1421 38.747C12.5036 38.5244 13.7843 37.9536 14.8601 37.09C15.9603 36.1624 16.7679 34.9355 17.185 33.5582C17.6021 32.1808 17.6108 30.7121 17.21 29.33C16.9694 28.5235 16.5632 27.7762 16.0174 27.1356C15.4716 26.4951 14.7981 25.9754 14.0401 25.6099C13.7185 25.4433 13.3841 25.3029 13.0401 25.1899C12.141 24.8619 11.1725 24.7714 10.2282 24.9273C9.28396 25.0832 8.39589 25.4803 7.65004 26.08C6.87491 26.7275 6.30518 27.5868 6.01039 28.5529C5.7156 29.5189 5.70853 30.55 5.99006 31.52C6.19126 32.2175 6.55967 32.8553 7.0633 33.3781C7.56694 33.9009 8.19059 34.2929 8.88008 34.52C9.71774 34.7751 10.6124 34.7751 11.4501 34.52C11.6458 34.4642 11.8248 34.3612 11.9713 34.2199C12.1178 34.0787 12.2273 33.9035 12.29 33.71C12.3601 33.4751 12.3601 33.2248 12.29 32.9899C12.236 32.7934 12.1335 32.6135 11.992 32.4668C11.8505 32.3201 11.6745 32.2112 11.4801 32.15C11.2452 32.0799 10.995 32.0799 10.7601 32.15C10.2655 32.2892 9.73597 32.2276 9.28657 31.9785C8.83717 31.7295 8.5042 31.3131 8.36006 30.82C8.20475 30.2945 8.20475 29.7354 8.36006 29.21C8.51994 28.7269 8.81075 28.2976 9.20008 27.97C9.61927 27.6432 10.1161 27.4309 10.6419 27.3538C11.1678 27.2766 11.7047 27.3374 12.2001 27.53C12.4395 27.6112 12.6733 27.7081 12.9 27.82C13.3479 28.035 13.7462 28.3408 14.0698 28.7177C14.3934 29.0947 14.6353 29.5347 14.78 30.01C15.0422 30.9306 15.0346 31.9072 14.7581 32.8237C14.4815 33.7401 13.9477 34.5579 13.22 35.1799C12.4727 35.7777 11.5817 36.1689 10.6359 36.3146C9.69006 36.4602 8.72255 36.3552 7.83003 36.01C7.45395 35.8841 7.08652 35.7338 6.73005 35.5599C5.91637 35.1871 5.19193 34.6444 4.60548 33.9682C4.01902 33.2921 3.58413 32.4982 3.33003 31.64L3.19007 31.0599C2.9225 29.8189 2.98455 28.5295 3.37007 27.32C3.74927 26.187 4.38988 25.1593 5.24006 24.32C6.18598 23.3644 7.3554 22.66 8.64235 22.2706C9.92929 21.8812 11.2931 21.8191 12.6101 22.09L12.9401 22.16C13.51 22.2659 14.0714 22.4129 14.6201 22.6C16.6118 23.2715 18.5078 24.1992 20.2601 25.3599C21.6835 26.3276 23.2352 27.0917 24.8701 27.63C28.0332 28.785 31.5255 28.6376 34.58 27.22C34.71 27.22 34.8301 27.1099 34.9501 27.0499C36.2228 26.4039 37.2203 25.3212 37.7601 23.9999L37.9301 23.5599C38.3717 22.1974 38.3115 20.7219 37.7601 19.4C37.4787 18.7215 37.0529 18.1125 36.5123 17.6151C35.9718 17.1178 35.3296 16.7441 34.6301 16.52C33.5065 16.1484 32.2876 16.1874 31.1901 16.63C30.6359 16.863 30.1373 17.2107 29.7271 17.6502C29.3169 18.0897 29.0044 18.611 28.8101 19.1799L28.8101 19.26C28.5342 19.9852 28.4753 20.7751 28.6404 21.5332C28.8055 22.2914 29.1876 22.9851 29.7401 23.53C30.1392 23.8999 30.6132 24.1796 31.1301 24.35C31.962 24.6177 32.8618 24.5822 33.6701 24.2499C33.8342 24.1805 33.9815 24.0768 34.1022 23.9457C34.223 23.8146 34.3143 23.6592 34.3701 23.4899C34.4701 23.212 34.4701 22.9079 34.3701 22.63C34.3019 22.4633 34.1974 22.314 34.0642 22.1929C33.9309 22.0718 33.7724 21.982 33.6 21.9299C33.3264 21.8253 33.0237 21.8253 32.7501 21.9299C32.4824 22.0296 32.1878 22.0296 31.9201 21.9299C31.7475 21.8776 31.5899 21.7851 31.46 21.66C31.2682 21.4739 31.1389 21.2328 31.09 20.97C31.0427 20.6334 31.0771 20.2905 31.1901 19.97L31.1901 19.91C31.2725 19.6727 31.4043 19.4557 31.5766 19.273C31.749 19.0903 31.958 18.9461 32.1901 18.85C32.8228 18.596 33.5303 18.6028 34.158 18.8688C34.7857 19.1349 35.2826 19.6387 35.54 20.27C35.8617 21.0457 35.8972 21.9105 35.6401 22.71L35.54 22.9799C35.3656 23.407 35.1077 23.7951 34.7814 24.1213C34.4552 24.4476 34.0672 24.7055 33.6401 24.88L33.54 24.9299C31.0701 26.0337 28.2655 26.1235 25.7301 25.1799C24.3117 24.6988 22.9659 24.0259 21.7301 23.1799C19.7936 21.8989 17.6996 20.8737 15.5001 20.13C14.8456 19.9153 14.1774 19.7449 13.5001 19.6199L13.2001 19.5599C11.4804 19.1999 9.69793 19.2767 8.01564 19.7833C6.33334 20.2899 4.80493 21.2102 3.57008 22.46C2.43996 23.5794 1.59018 24.9499 1.09004 26.46C0.541558 28.1111 0.444913 29.8789 0.810069 31.58Z" fill="url(#paint5_linear_69_248)"/>
<path d="M29.9 0.459993C30.16 0.459993 30.42 0.540007 30.67 0.600008C31.883 0.870195 33.0246 1.39504 34.0193 2.1398C35.0141 2.88457 35.8392 3.83219 36.4401 4.91995C36.6889 5.35372 36.9061 5.80493 37.09 6.26999C37.6533 7.52966 37.8812 8.91357 37.7515 10.2873C37.6219 11.6611 37.139 12.9779 36.35 14.11C35.4967 15.267 34.3277 16.1533 32.9831 16.6624C31.6386 17.1715 30.1757 17.2817 28.77 16.98C27.949 16.7939 27.1756 16.4392 26.499 15.9383C25.8224 15.4373 25.2575 14.801 24.84 14.07C24.6564 13.747 24.4927 13.413 24.35 13.07C23.9628 12.1965 23.8073 11.238 23.8984 10.2868C23.9895 9.33572 24.3241 8.42412 24.87 7.63999C25.4662 6.82535 26.287 6.20225 27.2319 5.84702C28.1768 5.49178 29.2049 5.41985 30.1901 5.63999C30.899 5.79234 31.5596 6.11638 32.1141 6.58365C32.6685 7.05092 33.0998 7.64714 33.3701 8.31998C33.6961 9.13272 33.7693 10.025 33.58 10.88C33.539 11.0791 33.449 11.2648 33.318 11.4202C33.187 11.5756 33.0193 11.6959 32.83 11.77C32.6024 11.8655 32.3504 11.8864 32.11 11.83C31.9468 11.8013 31.791 11.7401 31.6518 11.6502C31.5126 11.5602 31.3928 11.4432 31.2996 11.3062C31.2063 11.1691 31.1416 11.0148 31.109 10.8523C31.0764 10.6897 31.0768 10.5223 31.11 10.36C31.1969 9.98632 31.1654 9.59494 31.02 9.23996C30.8975 8.94602 30.7065 8.68562 30.463 8.48038C30.2195 8.27514 29.9305 8.13099 29.62 8.05997C29.0855 7.94621 28.5292 7.99141 28.02 8.18998C27.5432 8.38095 27.1305 8.70347 26.83 9.11997C26.5309 9.55548 26.3521 10.0623 26.3118 10.5891C26.2714 11.1159 26.3708 11.6439 26.6 12.12C26.6917 12.3551 26.8021 12.5825 26.93 12.8C27.1729 13.2347 27.5038 13.614 27.9015 13.9136C28.2993 14.2132 28.7552 14.4265 29.24 14.54C30.2135 14.7451 31.2258 14.6581 32.15 14.29C33.0061 13.9456 33.7503 13.3711 34.3 12.63C34.8474 11.8453 35.1782 10.9301 35.259 9.97672C35.3397 9.02336 35.1677 8.06559 34.7601 7.19999C34.6051 6.83468 34.4315 6.47753 34.24 6.12998C33.8134 5.34294 33.2232 4.65638 32.5091 4.11649C31.795 3.5766 30.9736 3.1959 30.1 2.99997C29.9 2.99997 29.7101 2.92999 29.5101 2.9C28.253 2.7154 26.9694 2.86722 25.79 3.34C24.682 3.79165 23.6955 4.49727 22.91 5.39999C22.02 6.40915 21.3963 7.62486 21.0959 8.9365C20.7955 10.2481 20.8279 11.6141 21.1901 12.91L21.28 13.23C21.4266 13.7871 21.6069 14.3348 21.8201 14.87C22.633 16.8137 23.6916 18.6453 24.97 20.32C26.0318 21.6731 26.9002 23.1675 27.55 24.76C28.9119 27.8408 28.9981 31.3356 27.79 34.48L27.65 34.86C27.0833 36.1679 26.0695 37.2314 24.79 37.86C24.65 37.93 24.51 37.99 24.36 38.05C23.0328 38.5907 21.5541 38.6298 20.2001 38.16C18.9348 37.7374 17.8881 36.8314 17.2886 35.6398C16.689 34.4482 16.5853 33.0678 17.0001 31.8C17.1921 31.2311 17.504 30.71 17.9145 30.2718C18.3251 29.8337 18.8248 29.4886 19.3801 29.26L19.46 29.26C20.1646 28.9365 20.9481 28.8248 21.7151 28.9384C22.482 29.052 23.1994 29.3861 23.78 29.9C24.1769 30.2715 24.4875 30.7255 24.6901 31.23C25.0177 32.0407 25.0426 32.9424 24.7601 33.77C24.702 33.9384 24.6086 34.0924 24.4861 34.2217C24.3637 34.3511 24.215 34.4528 24.05 34.52C23.773 34.6253 23.467 34.6253 23.1901 34.52C23.0217 34.4619 22.8676 34.3685 22.7383 34.2461C22.6089 34.1236 22.5073 33.9749 22.4401 33.81C22.3347 33.533 22.3347 33.227 22.4401 32.95C22.5397 32.6823 22.5397 32.3877 22.4401 32.12C22.378 31.9536 22.2748 31.8056 22.1401 31.69C21.9421 31.5066 21.6888 31.3941 21.42 31.37C21.0786 31.3397 20.735 31.3947 20.42 31.53L20.37 31.53C20.1442 31.62 19.939 31.7551 19.7671 31.927C19.5952 32.099 19.4601 32.3041 19.37 32.53C19.1636 33.1786 19.2197 33.8822 19.5264 34.4899C19.833 35.0976 20.3657 35.5607 21.0101 35.78C21.8093 36.0474 22.6774 36.0226 23.46 35.71L23.72 35.6C24.5505 35.1926 25.1866 34.4739 25.49 33.6L25.49 33.49C26.4371 30.9535 26.34 28.145 25.22 25.68C24.6521 24.3006 23.8985 23.0053 22.98 21.83C21.5739 19.9868 20.411 17.9702 19.52 15.83C19.2613 15.1777 19.0443 14.5097 18.87 13.83L18.79 13.5399C18.3173 11.8469 18.2755 10.0625 18.6685 8.34909C19.0614 6.63572 19.8767 5.04779 21.04 3.72995C22.0799 2.52859 23.3887 1.58979 24.86 0.989961C26.4642 0.373071 28.2026 0.190282 29.9 0.459993Z" fill="url(#paint6_linear_69_248)"/>
<path d="M31.19 31.27C30.9726 30.8786 30.7789 30.4745 30.61 30.06C31.0061 30.2228 31.3932 30.4063 31.77 30.61C32.3694 30.9252 32.8945 31.3651 33.31 31.9C33.388 32.0076 33.43 32.1371 33.43 32.27C33.4312 32.3487 33.4158 32.4268 33.3848 32.4992C33.3537 32.5715 33.3078 32.6366 33.25 32.69C33.1402 32.8058 32.9894 32.874 32.83 32.88C32.6929 32.8772 32.5601 32.8317 32.45 32.75C31.9272 32.3543 31.4972 31.8492 31.19 31.27Z" fill="url(#paint7_linear_69_248)"/>
<path d="M34.65 34.1L34.36 33.82L34.61 34.07C34.85 33.8335 35.0408 33.5517 35.1712 33.2411C35.3017 32.9304 35.3692 32.5969 35.3701 32.26C35.3643 31.7293 35.2044 31.2116 34.91 30.77C34.0386 29.6533 32.8759 28.7986 31.55 28.3C30.8098 27.9818 30.0437 27.7275 29.2601 27.54C29.1935 27.5351 29.1266 27.5351 29.0601 27.54C28.7948 27.54 28.5405 27.6453 28.353 27.8329C28.1654 28.0204 28.0601 28.2747 28.0601 28.54L28.0601 28.74C28.2428 29.5249 28.4973 30.2915 28.8201 31.03C29.315 32.3579 30.1703 33.5215 31.29 34.39C31.7296 34.6887 32.2486 34.849 32.78 34.85C33.1263 34.8586 33.4707 34.7965 33.7922 34.6675C34.1137 34.5386 34.4056 34.3455 34.65 34.1ZM32.83 32.89C32.6929 32.8872 32.5602 32.8418 32.4501 32.76C31.9261 32.3615 31.496 31.8529 31.1901 31.27C30.9727 30.8786 30.779 30.4746 30.61 30.06C31.0061 30.2228 31.3933 30.4064 31.77 30.61C32.3695 30.9253 32.8946 31.3651 33.3101 31.9C33.3881 32.0076 33.4301 32.1371 33.4301 32.27C33.4313 32.3487 33.4158 32.4268 33.3848 32.4992C33.3538 32.5716 33.3079 32.6366 33.2501 32.69C33.142 32.8095 32.9909 32.8814 32.83 32.89Z" fill="url(#paint8_linear_69_248)"/>
<path d="M40.9501 39.77C41.1655 40.1623 41.3591 40.5662 41.53 40.98C41.1303 40.8255 40.7426 40.6416 40.3701 40.43C39.7663 40.1212 39.2398 39.6803 38.83 39.14C38.7506 39.0293 38.7086 38.8962 38.71 38.76C38.7088 38.6813 38.7242 38.6032 38.7553 38.5308C38.7863 38.4584 38.8322 38.3934 38.8901 38.34C39.0009 38.2269 39.1518 38.1623 39.3101 38.16C39.4472 38.1628 39.58 38.2082 39.6901 38.2899C40.2138 38.6846 40.644 39.19 40.9501 39.77Z" fill="url(#paint9_linear_69_248)"/>
<path d="M37.49 36.95L37.74 37.19L37.49 36.95C37.2496 37.1862 37.0585 37.4678 36.928 37.7786C36.7976 38.0893 36.7302 38.4229 36.73 38.76C36.736 39.2876 36.8959 39.8019 37.19 40.24C38.0609 41.3596 39.2234 42.2177 40.55 42.72C41.2915 43.0323 42.0574 43.2831 42.84 43.47C42.9063 43.4799 42.9737 43.4799 43.04 43.47C43.3037 43.4662 43.5554 43.3584 43.74 43.1699C43.9284 42.9853 44.0362 42.7338 44.04 42.47L44.04 42.28C43.858 41.498 43.6035 40.7347 43.28 40C42.7903 38.6692 41.934 37.5043 40.81 36.64C40.371 36.3388 39.8523 36.1751 39.32 36.1699C38.978 36.169 38.6394 36.2376 38.3248 36.3717C38.0102 36.5058 37.7261 36.7026 37.49 36.95ZM39.36 38.16C39.4971 38.1628 39.6299 38.2082 39.74 38.2899C40.2637 38.6846 40.6939 39.19 41 39.77C41.2155 40.1623 41.409 40.5662 41.58 40.9799C41.1803 40.8255 40.7926 40.6416 40.42 40.43C39.8162 40.1212 39.2898 39.6803 38.88 39.14C38.8006 39.0293 38.7586 38.8962 38.76 38.76C38.7588 38.6812 38.7742 38.6032 38.8052 38.5308C38.8362 38.4584 38.8822 38.3934 38.94 38.34C39.0508 38.2269 39.2017 38.1622 39.36 38.16Z" fill="url(#paint10_linear_69_248)"/>
<path d="M14.18 16.6199C14.6661 16.618 15.1407 16.472 15.5439 16.2005C15.9472 15.929 16.2609 15.5441 16.4456 15.0944C16.6302 14.6448 16.6775 14.1505 16.5815 13.674C16.4854 13.1974 16.2504 12.76 15.9059 12.4169C15.5615 12.0739 15.1232 11.8406 14.6462 11.7465C14.1693 11.6524 13.6752 11.7017 13.2263 11.8882C12.7774 12.0747 12.3938 12.39 12.1239 12.7943C11.854 13.1986 11.71 13.6739 11.71 14.16C11.71 14.4839 11.7739 14.8045 11.8982 15.1036C12.0224 15.4028 12.2045 15.6744 12.434 15.903C12.6635 16.1315 12.9359 16.3125 13.2355 16.4356C13.5352 16.5586 13.8561 16.6213 14.18 16.6199Z" fill="url(#paint11_linear_69_248)"/>
<path d="M1.36005 27.75C1.07004 27.7473 0.792816 27.6303 0.588684 27.4243C0.384552 27.2183 0.270008 26.94 0.27002 26.65C0.308488 19.8967 2.97319 13.4234 7.70008 8.60001C10.0266 6.23176 12.7969 4.34512 15.8528 3.04795C18.9088 1.75077 22.1904 1.06842 25.5101 1.03995C25.7992 1.03995 26.0764 1.15481 26.2808 1.35923C26.4852 1.56364 26.6 1.84089 26.6 2.12998C26.6 2.41906 26.4852 2.69632 26.2808 2.90073C26.0764 3.10514 25.7992 3.22 25.5101 3.22C19.3841 3.27999 13.5324 5.76884 9.24005 10.14C4.90978 14.5518 2.47036 20.4782 2.44006 26.66C2.43502 26.9458 2.3199 27.2186 2.11871 27.4217C1.91753 27.6247 1.64578 27.7423 1.36005 27.75Z" fill="url(#paint12_linear_69_248)"/>
<path d="M27.77 49.66C27.77 49.3948 27.8754 49.1404 28.0629 48.9528C28.2505 48.7653 28.5048 48.66 28.77 48.66C34.1204 48.6215 39.2374 46.464 43.0001 42.66C46.7913 38.7991 48.9261 33.611 48.9501 28.2C49.0107 27.9923 49.137 27.8098 49.3101 27.68C49.4832 27.5501 49.6937 27.48 49.91 27.48C50.1264 27.48 50.337 27.5501 50.5101 27.68C50.6832 27.8098 50.8095 27.9923 50.8701 28.2C50.8373 34.1099 48.502 39.7742 44.36 43.99C40.248 48.1724 34.645 50.5531 28.78 50.61C28.5215 50.6129 28.272 50.5156 28.0837 50.3385C27.8954 50.1613 27.7829 49.9182 27.77 49.66Z" fill="url(#paint13_linear_69_248)"/>
<path d="M13.19 201.71C13.1073 201.842 12.9923 201.951 12.8559 202.027C12.7194 202.102 12.566 202.142 12.41 202.142C12.254 202.142 12.1006 202.102 11.9641 202.027C11.8277 201.951 11.7128 201.842 11.63 201.71C11.5 201.51 8.46999 196.71 9.21 193.01C9.3434 192.258 9.73724 191.577 10.3224 191.087C10.9075 190.597 11.6465 190.328 12.41 190.328C13.1735 190.328 13.9126 190.597 14.4977 191.087C15.0828 191.577 15.4766 192.258 15.61 193.01C15.6905 193.418 15.7307 193.834 15.73 194.25C15.73 197.73 13.36 201.53 13.19 201.71ZM11.04 193.37C10.65 195.3 11.65 197.77 12.41 199.3C13.23 197.65 14.15 195.2 13.79 193.37C13.7412 193.04 13.5754 192.739 13.323 192.521C13.0706 192.303 12.7484 192.184 12.415 192.184C12.0816 192.184 11.7594 192.303 11.507 192.521C11.2546 192.739 11.0889 193.04 11.04 193.37Z" fill="url(#paint14_linear_69_248)"/>
<path d="M12.4701 188.74C12.1596 189.109 11.7786 189.413 11.3493 189.632C10.92 189.852 10.451 189.984 9.97006 190.02C9.1496 190.081 8.33791 189.818 7.70956 189.287C7.08121 188.756 6.6864 187.999 6.61007 187.18C6.5848 186.806 6.63754 186.43 6.76492 186.077C6.8923 185.724 7.09154 185.402 7.35006 185.13C7.67927 184.757 8.11059 184.49 8.59054 184.36C9.07049 184.23 9.57798 184.244 10.0501 184.4C10.3815 184.521 10.6814 184.715 10.9273 184.967C11.1732 185.22 11.3587 185.525 11.4701 185.86C11.4001 185.05 10.9201 182.58 7.63009 180.74C6.10186 179.892 4.74531 178.766 3.63009 177.42L3.52005 177.28C2.86484 176.467 2.42444 175.503 2.23923 174.475C2.05401 173.448 2.12991 172.39 2.46005 171.4C2.74407 170.468 3.26004 169.623 3.95962 168.944C4.6592 168.265 5.51951 167.776 6.46005 167.52C6.61005 167.52 6.76006 167.44 6.91006 167.41C7.63952 167.273 8.38975 167.291 9.11172 167.463C9.83369 167.636 10.5112 167.958 11.1001 168.41C11.9117 168.958 12.5443 169.733 12.9195 170.638C13.2946 171.543 13.3956 172.538 13.2101 173.5C13.0081 174.344 12.5681 175.112 11.9423 175.713C11.3165 176.314 10.5313 176.722 9.68008 176.89C9.17525 176.981 8.65699 176.967 8.15793 176.848C7.65886 176.729 7.18974 176.509 6.78006 176.2C6.19859 175.814 5.74482 175.263 5.47604 174.619C5.20726 173.975 5.13555 173.265 5.27005 172.58C5.40981 171.975 5.72232 171.423 6.16965 170.991C6.61697 170.56 7.17989 170.268 7.79007 170.15C8.50591 170.012 9.24739 170.162 9.85257 170.569C10.4577 170.976 10.8774 171.605 11.02 172.32C11.0437 172.44 11.0435 172.564 11.0193 172.684C10.9952 172.804 10.9476 172.918 10.8794 173.02C10.8111 173.121 10.7235 173.209 10.6215 173.276C10.5196 173.344 10.4052 173.391 10.2851 173.415C10.1649 173.439 10.0413 173.438 9.92123 173.414C9.80117 173.39 9.68704 173.343 9.58536 173.274C9.48368 173.206 9.3964 173.118 9.32858 173.016C9.26076 172.915 9.21373 172.8 9.19009 172.68C9.14404 172.458 9.01488 172.262 8.82901 172.132C8.64314 172.001 8.4146 171.947 8.19009 171.98C7.93526 172.025 7.69924 172.144 7.51095 172.322C7.32267 172.5 7.1903 172.728 7.13009 172.98C7.07816 173.312 7.1265 173.653 7.26901 173.957C7.41152 174.262 7.64172 174.517 7.93008 174.69C8.13415 174.842 8.36689 174.952 8.61435 175.012C8.8618 175.072 9.11886 175.082 9.37008 175.04C9.87033 174.942 10.3313 174.701 10.6971 174.346C11.0628 173.991 11.3175 173.537 11.4301 173.04C11.5381 172.428 11.4616 171.798 11.2105 171.23C10.9595 170.662 10.545 170.182 10.02 169.85C9.64086 169.554 9.20351 169.341 8.73654 169.226C8.26957 169.11 7.78352 169.095 7.31009 169.18C7.20203 169.201 7.0952 169.227 6.99008 169.26C6.34122 169.431 5.74689 169.765 5.26376 170.231C4.78063 170.696 4.42478 171.278 4.23007 171.92C3.99893 172.617 3.94557 173.361 4.0748 174.084C4.20402 174.807 4.51173 175.486 4.97006 176.06L5.10006 176.21C6.07092 177.366 7.24745 178.332 8.5701 179.06C13.2201 181.67 13.3601 185.53 13.3701 186.06L13.3701 186.3C13.3875 187.198 13.0662 188.069 12.4701 188.74ZM8.47006 187.02C8.50059 187.349 8.65924 187.653 8.91177 187.866C9.1643 188.08 9.49052 188.185 9.82009 188.16C10.0584 188.143 10.2908 188.079 10.5038 187.97C10.7167 187.862 10.9059 187.712 11.0601 187.53C11.1582 187.414 11.2421 187.286 11.3101 187.15C11.1839 187.274 11.0248 187.36 10.8515 187.397C10.6782 187.434 10.4979 187.421 10.3319 187.359C10.1659 187.297 10.0211 187.189 9.91446 187.047C9.80783 186.906 9.74386 186.737 9.73007 186.56C9.72078 186.471 9.68682 186.387 9.63205 186.316C9.57727 186.245 9.50387 186.191 9.42007 186.16C9.28533 186.128 9.14402 186.136 9.01406 186.184C8.88411 186.232 8.77139 186.318 8.69009 186.43C8.54942 186.575 8.46746 186.768 8.46005 186.97L8.47006 187.02Z" fill="url(#paint15_linear_69_248)"/>
<path d="M21.36 177.28L21.26 177.4C20.145 178.751 18.7886 179.884 17.26 180.74C13.97 182.58 13.49 185.06 13.42 185.86C13.535 185.526 13.7229 185.221 13.9703 184.969C14.2176 184.716 14.5182 184.522 14.85 184.4C15.3206 184.245 15.8264 184.231 16.3046 184.361C16.7828 184.491 17.2124 184.758 17.54 185.13C17.8018 185.4 18.004 185.722 18.1332 186.075C18.2624 186.428 18.3158 186.805 18.29 187.18C18.2137 187.999 17.8189 188.756 17.1905 189.287C16.5622 189.818 15.7505 190.081 14.93 190.02C13.9685 189.946 13.0749 189.496 12.4424 188.768C11.8099 188.04 11.4893 187.092 11.55 186.13C11.55 185.56 11.7 181.72 16.34 179.13C17.6749 178.399 18.8619 177.426 19.84 176.26L19.95 176.13C20.4084 175.556 20.7161 174.877 20.8453 174.154C20.9745 173.431 20.9212 172.687 20.69 171.99C20.4953 171.348 20.1394 170.766 19.6563 170.301C19.1731 169.835 18.5789 169.501 17.93 169.33C17.82 169.33 17.72 169.27 17.61 169.25C17.1366 169.164 16.6504 169.18 16.1833 169.295C15.7162 169.41 15.2789 169.623 14.9 169.92C14.3751 170.252 13.9602 170.733 13.7075 171.3C13.4549 171.868 13.3757 172.497 13.48 173.11C13.5968 173.607 13.854 174.06 14.2211 174.414C14.5881 174.769 15.0495 175.01 15.55 175.11C15.7996 175.151 16.0551 175.142 16.3009 175.082C16.5467 175.021 16.7777 174.912 16.98 174.76C17.2693 174.587 17.5007 174.333 17.6449 174.028C17.7891 173.724 17.8396 173.383 17.79 173.05C17.7286 172.799 17.5959 172.571 17.4078 172.393C17.2197 172.216 16.9843 172.097 16.73 172.05C16.5058 172.02 16.2785 172.075 16.0932 172.205C15.9079 172.334 15.7782 172.529 15.73 172.75C15.7142 172.877 15.6725 172.999 15.6074 173.109C15.5424 173.219 15.4554 173.314 15.3519 173.389C15.2484 173.464 15.1305 173.516 15.0058 173.544C14.881 173.571 14.752 173.572 14.6267 173.547C14.5014 173.523 14.3825 173.472 14.2775 173.4C14.1726 173.327 14.0837 173.233 14.0164 173.125C13.9492 173.016 13.905 172.895 13.8867 172.768C13.8684 172.642 13.8763 172.513 13.91 172.39C14.0503 171.676 14.468 171.046 15.0716 170.64C15.6752 170.233 16.4154 170.082 17.13 170.22C17.741 170.338 18.3048 170.631 18.7536 171.062C19.2025 171.493 19.5172 172.044 19.66 172.65C19.7945 173.335 19.7228 174.045 19.4541 174.689C19.1853 175.333 18.7314 175.884 18.15 176.27C17.7385 176.579 17.2677 176.8 16.767 176.919C16.2663 177.037 15.7464 177.051 15.24 176.96C14.3891 176.794 13.6042 176.386 12.9798 175.784C12.3553 175.183 11.9178 174.414 11.72 173.57C11.5334 172.609 11.6329 171.615 12.0062 170.71C12.3795 169.805 13.0102 169.03 13.82 168.48C14.411 168.028 15.0903 167.706 15.8138 167.534C16.5373 167.362 17.2889 167.343 18.02 167.48C18.17 167.48 18.32 167.55 18.47 167.59C19.4097 167.847 20.2691 168.338 20.9685 169.016C21.6678 169.694 22.1843 170.539 22.47 171.47C22.6821 172.115 22.7902 172.791 22.79 173.47C22.7494 174.864 22.2463 176.204 21.36 177.28ZM13.8 187.53C13.9527 187.712 14.1402 187.861 14.3514 187.969C14.5626 188.077 14.7933 188.142 15.03 188.16C15.3556 188.177 15.6754 188.068 15.923 187.856C16.1706 187.644 16.3271 187.344 16.36 187.02C16.3677 186.911 16.3511 186.801 16.3113 186.699C16.2715 186.597 16.2096 186.505 16.13 186.43C16.0513 186.318 15.9404 186.232 15.8118 186.183C15.6833 186.135 15.5432 186.127 15.41 186.16C15.3242 186.188 15.2487 186.241 15.1934 186.312C15.1382 186.384 15.1056 186.47 15.1 186.56C15.0862 186.737 15.0222 186.906 14.9156 187.047C14.809 187.189 14.6642 187.297 14.4982 187.359C14.3322 187.421 14.1519 187.434 13.9786 187.397C13.8053 187.36 13.6462 187.274 13.52 187.15C13.5849 187.29 13.6728 187.419 13.78 187.53L13.8 187.53Z" fill="url(#paint16_linear_69_248)"/>
<path d="M205.09 11.4101C205.219 11.4955 205.324 11.6114 205.398 11.7475C205.471 11.8835 205.51 12.0355 205.51 12.19C205.506 12.3453 205.466 12.4975 205.393 12.6346C205.32 12.7717 205.217 12.89 205.09 12.98C204.89 13.11 200.09 16.14 196.38 15.39C195.637 15.2456 194.968 14.8473 194.487 14.2635C194.006 13.6796 193.743 12.9466 193.743 12.19C193.743 11.4335 194.006 10.7004 194.487 10.1166C194.968 9.53278 195.637 9.1345 196.38 8.99002C196.792 8.91001 197.21 8.86983 197.63 8.87002C201.1 8.82002 204.91 11.2901 205.09 11.4101ZM196.75 13.57C198.68 13.95 201.15 12.95 202.67 12.19C201.03 11.37 198.57 10.46 196.75 10.82C196.42 10.8689 196.119 11.0346 195.901 11.287C195.683 11.5394 195.564 11.8617 195.564 12.195C195.564 12.5284 195.683 12.8507 195.901 13.1031C196.119 13.3555 196.42 13.5212 196.75 13.57Z" fill="url(#paint17_linear_69_248)"/>
<path d="M192.12 12.13C192.486 12.4424 192.787 12.8241 193.005 13.2532C193.223 13.6822 193.354 14.1501 193.39 14.63C193.457 15.4501 193.197 16.2632 192.667 16.8925C192.137 17.5218 191.38 17.9162 190.56 17.99C190.185 18.0184 189.809 17.9671 189.456 17.8396C189.102 17.7121 188.78 17.5111 188.51 17.25C188.136 16.9239 187.867 16.4944 187.737 16.0156C187.607 15.5369 187.622 15.0303 187.78 14.56C187.9 14.2285 188.092 13.928 188.343 13.6805C188.594 13.4331 188.897 13.245 189.23 13.13C188.43 13.2 185.96 13.69 184.12 16.97C183.272 18.501 182.142 19.8581 180.79 20.97L180.66 21.08C179.847 21.7345 178.883 22.1752 177.856 22.3621C176.829 22.5489 175.772 22.476 174.78 22.15C173.849 21.8635 173.005 21.3467 172.327 20.6475C171.649 19.9483 171.158 19.0893 170.9 18.15L170.79 17.7C170.652 16.969 170.67 16.2171 170.842 15.4933C171.014 14.7696 171.337 14.0904 171.79 13.5C172.34 12.6902 173.115 12.0595 174.02 11.6862C174.925 11.3129 175.919 11.2134 176.88 11.4C177.724 11.5961 178.493 12.0331 179.093 12.6581C179.693 13.283 180.098 14.0688 180.26 14.92C180.356 15.424 180.346 15.9427 180.228 16.4423C180.111 16.9419 179.89 17.4113 179.58 17.82C179.195 18.4025 178.645 18.857 178 19.1259C177.355 19.3948 176.645 19.4659 175.96 19.33C175.353 19.1926 174.8 18.8808 174.368 18.4331C173.937 17.9854 173.645 17.4212 173.53 16.81C173.392 16.0942 173.542 15.3527 173.949 14.7476C174.356 14.1424 174.985 13.7226 175.7 13.58C175.943 13.5323 176.194 13.5829 176.4 13.7207C176.605 13.8585 176.747 14.0723 176.795 14.315C176.843 14.5577 176.792 14.8094 176.654 15.0147C176.517 15.2201 176.303 15.3623 176.06 15.41C175.838 15.4561 175.642 15.5852 175.512 15.7711C175.382 15.957 175.327 16.1855 175.36 16.41C175.408 16.6639 175.527 16.8987 175.705 17.0865C175.882 17.2744 176.109 17.4075 176.36 17.47C176.693 17.5196 177.034 17.4691 177.338 17.3249C177.643 17.1807 177.897 16.9493 178.07 16.66C178.226 16.4576 178.338 16.2252 178.4 15.9775C178.462 15.7297 178.472 15.4719 178.43 15.22C178.329 14.7213 178.086 14.2621 177.732 13.897C177.377 13.5318 176.926 13.2761 176.43 13.16C175.818 13.0544 175.187 13.1329 174.619 13.3857C174.052 13.6385 173.572 14.0542 173.24 14.58C172.939 14.9563 172.723 15.3935 172.607 15.8614C172.492 16.3293 172.479 16.8167 172.57 17.29L172.64 17.61C172.817 18.2559 173.153 18.8472 173.618 19.3294C174.083 19.8116 174.661 20.1694 175.3 20.37C175.998 20.5998 176.742 20.6515 177.465 20.5206C178.188 20.3896 178.867 20.08 179.44 19.62L179.6 19.5C180.753 18.5227 181.719 17.3434 182.45 16.02C185.05 11.38 188.92 11.24 189.45 11.23C189.533 11.2252 189.617 11.2252 189.7 11.23C190.59 11.2242 191.45 11.5444 192.12 12.13ZM190.4 16.13C190.73 16.097 191.034 15.9363 191.247 15.6821C191.46 15.428 191.565 15.1007 191.54 14.77C191.501 14.2899 191.275 13.8443 190.91 13.53C190.792 13.4341 190.665 13.3504 190.53 13.28C190.681 13.4373 190.773 13.6423 190.79 13.86C190.809 14.1052 190.731 14.3481 190.572 14.5355C190.412 14.7229 190.185 14.8396 189.94 14.86C189.849 14.8706 189.763 14.9061 189.69 14.9625C189.618 15.019 189.562 15.0942 189.53 15.18C189.5 15.3133 189.509 15.4524 189.557 15.5804C189.605 15.7083 189.69 15.8195 189.8 15.9C189.944 16.0432 190.137 16.1255 190.34 16.13L190.4 16.13Z" fill="url(#paint18_linear_69_248)"/>
<path d="M180.66 3.27001L180.77 3.35998C182.134 4.48517 183.271 5.85968 184.12 7.41003C185.96 10.69 188.44 11.17 189.24 11.24C188.905 11.1269 188.599 10.9396 188.346 10.692C188.094 10.4444 187.9 10.1429 187.78 9.80999C187.622 9.33966 187.607 8.83314 187.737 8.35436C187.867 7.87559 188.136 7.44604 188.51 7.11999C188.779 6.85782 189.102 6.65618 189.455 6.52856C189.809 6.40094 190.185 6.35031 190.56 6.38C191.38 6.45377 192.137 6.84825 192.667 7.47753C193.197 8.10681 193.457 8.91994 193.39 9.73999C193.316 10.7007 192.866 11.5933 192.137 12.2242C191.409 12.8551 190.462 13.1734 189.5 13.11C188.94 13.11 185.1 12.96 182.5 8.32C181.766 6.99007 180.793 5.80695 179.63 4.83001L179.49 4.72002C178.917 4.26001 178.238 3.95043 177.515 3.81945C176.792 3.68847 176.048 3.74025 175.35 3.97002C174.711 4.17061 174.133 4.52839 173.668 5.01061C173.203 5.49284 172.867 6.08402 172.69 6.72997L172.62 7.04998C172.529 7.52327 172.542 8.01068 172.657 8.47857C172.773 8.94646 172.989 9.38369 173.29 9.76C173.622 10.2859 174.102 10.7015 174.669 10.9543C175.237 11.2071 175.867 11.2856 176.48 11.18C176.976 11.0651 177.429 10.8097 177.783 10.4443C178.138 10.079 178.38 9.61921 178.48 9.11999C178.522 8.86811 178.512 8.61028 178.45 8.36254C178.388 8.1148 178.276 7.88244 178.12 7.67999C177.95 7.3736 177.69 7.12683 177.375 6.97302C177.061 6.8192 176.706 6.76579 176.36 6.82C176.109 6.8825 175.882 7.0156 175.705 7.20348C175.527 7.39137 175.408 7.62616 175.36 7.88C175.327 8.1045 175.382 8.33304 175.512 8.51891C175.642 8.70478 175.838 8.83394 176.06 8.88C176.303 8.92774 176.517 9.06991 176.654 9.27526C176.792 9.48061 176.843 9.73236 176.795 9.97503C176.747 10.2177 176.605 10.4314 176.4 10.5693C176.194 10.7071 175.943 10.7578 175.7 10.71C174.985 10.5674 174.356 10.1476 173.949 9.54247C173.542 8.9373 173.392 8.19581 173.53 7.47997C173.645 6.86877 173.937 6.30459 174.368 5.85686C174.8 5.40914 175.353 5.09742 175.96 4.96001C176.645 4.82415 177.355 4.89516 178 5.16406C178.645 5.43295 179.195 5.88758 179.58 6.47002C179.89 6.87873 180.111 7.3481 180.228 7.84771C180.346 8.34732 180.356 8.86595 180.26 9.36999C180.098 10.2212 179.693 11.007 179.093 11.632C178.493 12.2569 177.724 12.694 176.88 12.89C175.919 13.0766 174.925 12.9771 174.02 12.6038C173.115 12.2305 172.34 11.5998 171.79 10.79C171.337 10.1996 171.014 9.5204 170.842 8.79668C170.67 8.07297 170.652 7.32105 170.79 6.59002L170.89 6.15002C171.152 5.21083 171.645 4.35234 172.324 3.65343C173.004 2.95453 173.849 2.43759 174.78 2.15002C175.426 1.93992 176.101 1.83524 176.78 1.84002C178.198 1.86104 179.567 2.36551 180.66 3.27001ZM190.91 10.82C191.275 10.5057 191.501 10.0602 191.54 9.58001C191.565 9.24936 191.46 8.92197 191.247 8.66784C191.034 8.41371 190.73 8.25302 190.4 8.22003C190.29 8.21541 190.179 8.23339 190.076 8.27294C189.973 8.3125 189.879 8.37277 189.8 8.45001C189.689 8.53218 189.604 8.64503 189.556 8.77471C189.508 8.90439 189.499 9.04523 189.53 9.17999C189.565 9.26333 189.621 9.33597 189.693 9.39044C189.765 9.4449 189.85 9.47924 189.94 9.48998C190.185 9.51038 190.412 9.62709 190.572 9.81451C190.731 10.0019 190.809 10.2448 190.79 10.49C190.775 10.7081 190.683 10.9137 190.53 11.07C190.665 10.9997 190.792 10.9159 190.91 10.82Z" fill="url(#paint19_linear_69_248)"/>
</g>
<defs>
<linearGradient id="paint0_linear_69_248" x1="525.74" y1="-739.77" x2="-71.02" y2="313.85" gradientUnits="userSpaceOnUse">
<stop stop-color="#EEDEBC"/>
<stop offset="0.06" stop-color="#DDC6A3"/>
<stop offset="0.14" stop-color="#C9A885"/>
<stop offset="0.26" stop-color="#9A7A5F"/>
<stop offset="0.36" stop-color="#C9A885"/>
<stop offset="0.49" stop-color="#EEDEBC"/>
<stop offset="0.54" stop-color="#DDC6A3"/>
<stop offset="0.61" stop-color="#C9A885"/>
<stop offset="0.72" stop-color="#9A7A5F"/>
<stop offset="0.84" stop-color="#C9A885"/>
<stop offset="1" stop-color="#EEDEBC"/>
</linearGradient>
<linearGradient id="paint1_linear_69_248" x1="2711.98" y1="1.02325e+06" x2="-3768.75" y2="1.02306e+06" gradientUnits="userSpaceOnUse">
<stop stop-color="#EEDEBC"/>
<stop offset="0.06" stop-color="#DDC6A3"/>
<stop offset="0.14" stop-color="#C9A885"/>
<stop offset="0.26" stop-color="#9A7A5F"/>
<stop offset="0.36" stop-color="#C9A885"/>
<stop offset="0.49" stop-color="#EEDEBC"/>
<stop offset="0.54" stop-color="#DDC6A3"/>
<stop offset="0.61" stop-color="#C9A885"/>
<stop offset="0.72" stop-color="#9A7A5F"/>
<stop offset="0.84" stop-color="#C9A885"/>
<stop offset="1" stop-color="#EEDEBC"/>
</linearGradient>
<linearGradient id="paint2_linear_69_248" x1="164616" y1="14422.4" x2="164592" y2="11347.1" gradientUnits="userSpaceOnUse">
<stop stop-color="#EEDEBC"/>
<stop offset="0.06" stop-color="#DDC6A3"/>
<stop offset="0.14" stop-color="#C9A885"/>
<stop offset="0.26" stop-color="#9A7A5F"/>
<stop offset="0.36" stop-color="#C9A885"/>
<stop offset="0.49" stop-color="#EEDEBC"/>
<stop offset="0.54" stop-color="#DDC6A3"/>
<stop offset="0.61" stop-color="#C9A885"/>
<stop offset="0.72" stop-color="#9A7A5F"/>
<stop offset="0.84" stop-color="#C9A885"/>
<stop offset="1" stop-color="#EEDEBC"/>
</linearGradient>
<linearGradient id="paint3_linear_69_248" x1="32050.2" y1="189827" x2="15571.2" y2="158013" gradientUnits="userSpaceOnUse">
<stop stop-color="#EEDEBC"/>
<stop offset="0.06" stop-color="#DDC6A3"/>
<stop offset="0.14" stop-color="#C9A885"/>
<stop offset="0.26" stop-color="#9A7A5F"/>
<stop offset="0.36" stop-color="#C9A885"/>
<stop offset="0.49" stop-color="#EEDEBC"/>
<stop offset="0.54" stop-color="#DDC6A3"/>
<stop offset="0.61" stop-color="#C9A885"/>
<stop offset="0.72" stop-color="#9A7A5F"/>
<stop offset="0.84" stop-color="#C9A885"/>
<stop offset="1" stop-color="#EEDEBC"/>
</linearGradient>
<linearGradient id="paint4_linear_69_248" x1="28704.6" y1="210120" x2="8541.56" y2="178262" gradientUnits="userSpaceOnUse">
<stop stop-color="#EEDEBC"/>
<stop offset="0.06" stop-color="#DDC6A3"/>
<stop offset="0.14" stop-color="#C9A885"/>
<stop offset="0.26" stop-color="#9A7A5F"/>
<stop offset="0.36" stop-color="#C9A885"/>
<stop offset="0.49" stop-color="#EEDEBC"/>
<stop offset="0.54" stop-color="#DDC6A3"/>
<stop offset="0.61" stop-color="#C9A885"/>
<stop offset="0.72" stop-color="#9A7A5F"/>
<stop offset="0.84" stop-color="#C9A885"/>
<stop offset="1" stop-color="#EEDEBC"/>
</linearGradient>
<linearGradient id="paint5_linear_69_248" x1="37256.5" y1="148128" x2="27679" y2="119955" gradientUnits="userSpaceOnUse">
<stop stop-color="#EEDEBC"/>
<stop offset="0.06" stop-color="#DDC6A3"/>
<stop offset="0.14" stop-color="#C9A885"/>
<stop offset="0.26" stop-color="#9A7A5F"/>
<stop offset="0.36" stop-color="#C9A885"/>
<stop offset="0.49" stop-color="#EEDEBC"/>
<stop offset="0.54" stop-color="#DDC6A3"/>
<stop offset="0.61" stop-color="#C9A885"/>
<stop offset="0.72" stop-color="#9A7A5F"/>
<stop offset="0.84" stop-color="#C9A885"/>
<stop offset="1" stop-color="#EEDEBC"/>
</linearGradient>
<linearGradient id="paint6_linear_69_248" x1="20869.8" y1="250146" x2="-5663.91" y2="224312" gradientUnits="userSpaceOnUse">
<stop stop-color="#EEDEBC"/>
<stop offset="0.06" stop-color="#DDC6A3"/>
<stop offset="0.14" stop-color="#C9A885"/>
<stop offset="0.26" stop-color="#9A7A5F"/>
<stop offset="0.36" stop-color="#C9A885"/>
<stop offset="0.49" stop-color="#EEDEBC"/>
<stop offset="0.54" stop-color="#DDC6A3"/>
<stop offset="0.61" stop-color="#C9A885"/>
<stop offset="0.72" stop-color="#9A7A5F"/>
<stop offset="0.84" stop-color="#C9A885"/>
<stop offset="1" stop-color="#EEDEBC"/>
</linearGradient>
<linearGradient id="paint7_linear_69_248" x1="2856.91" y1="18504.5" x2="1174.07" y2="15533.3" gradientUnits="userSpaceOnUse">
<stop stop-color="#EEDEBC"/>
<stop offset="0.06" stop-color="#DDC6A3"/>
<stop offset="0.14" stop-color="#C9A885"/>
<stop offset="0.26" stop-color="#9A7A5F"/>
<stop offset="0.36" stop-color="#C9A885"/>
<stop offset="0.49" stop-color="#EEDEBC"/>
<stop offset="0.54" stop-color="#DDC6A3"/>
<stop offset="0.61" stop-color="#C9A885"/>
<stop offset="0.72" stop-color="#9A7A5F"/>
<stop offset="0.84" stop-color="#C9A885"/>
<stop offset="1" stop-color="#EEDEBC"/>
</linearGradient>
<linearGradient id="paint8_linear_69_248" x1="7350.77" y1="47948.4" x2="2984.37" y2="40244" gradientUnits="userSpaceOnUse">
<stop stop-color="#EEDEBC"/>
<stop offset="0.06" stop-color="#DDC6A3"/>
<stop offset="0.14" stop-color="#C9A885"/>
<stop offset="0.26" stop-color="#9A7A5F"/>
<stop offset="0.36" stop-color="#C9A885"/>
<stop offset="0.49" stop-color="#EEDEBC"/>
<stop offset="0.54" stop-color="#DDC6A3"/>
<stop offset="0.61" stop-color="#C9A885"/>
<stop offset="0.72" stop-color="#9A7A5F"/>
<stop offset="0.84" stop-color="#C9A885"/>
<stop offset="1" stop-color="#EEDEBC"/>
</linearGradient>
<linearGradient id="paint9_linear_69_248" x1="2892.65" y1="18496.5" x2="1209.83" y2="15525.4" gradientUnits="userSpaceOnUse">
<stop stop-color="#EEDEBC"/>
<stop offset="0.06" stop-color="#DDC6A3"/>
<stop offset="0.14" stop-color="#C9A885"/>
<stop offset="0.26" stop-color="#9A7A5F"/>
<stop offset="0.36" stop-color="#C9A885"/>
<stop offset="0.49" stop-color="#EEDEBC"/>
<stop offset="0.54" stop-color="#DDC6A3"/>
<stop offset="0.61" stop-color="#C9A885"/>
<stop offset="0.72" stop-color="#9A7A5F"/>
<stop offset="0.84" stop-color="#C9A885"/>
<stop offset="1" stop-color="#EEDEBC"/>
</linearGradient>
<linearGradient id="paint10_linear_69_248" x1="7437.95" y1="47866.3" x2="3077.86" y2="40165.7" gradientUnits="userSpaceOnUse">
<stop stop-color="#EEDEBC"/>
<stop offset="0.06" stop-color="#DDC6A3"/>
<stop offset="0.14" stop-color="#C9A885"/>
<stop offset="0.26" stop-color="#9A7A5F"/>
<stop offset="0.36" stop-color="#C9A885"/>
<stop offset="0.49" stop-color="#EEDEBC"/>
<stop offset="0.54" stop-color="#DDC6A3"/>
<stop offset="0.61" stop-color="#C9A885"/>
<stop offset="0.72" stop-color="#9A7A5F"/>
<stop offset="0.84" stop-color="#C9A885"/>
<stop offset="1" stop-color="#EEDEBC"/>
</linearGradient>
<linearGradient id="paint11_linear_69_248" x1="4840.06" y1="32301.5" x2="1904.02" y2="27117.8" gradientUnits="userSpaceOnUse">
<stop stop-color="#EEDEBC"/>
<stop offset="0.06" stop-color="#DDC6A3"/>
<stop offset="0.14" stop-color="#C9A885"/>
<stop offset="0.26" stop-color="#9A7A5F"/>
<stop offset="0.36" stop-color="#C9A885"/>
<stop offset="0.49" stop-color="#EEDEBC"/>
<stop offset="0.54" stop-color="#DDC6A3"/>
<stop offset="0.61" stop-color="#C9A885"/>
<stop offset="0.72" stop-color="#9A7A5F"/>
<stop offset="0.84" stop-color="#C9A885"/>
<stop offset="1" stop-color="#EEDEBC"/>
</linearGradient>
<linearGradient id="paint12_linear_69_248" x1="25790.5" y1="175327" x2="9734.09" y2="147383" gradientUnits="userSpaceOnUse">
<stop stop-color="#EEDEBC"/>
<stop offset="0.06" stop-color="#DDC6A3"/>
<stop offset="0.14" stop-color="#C9A885"/>
<stop offset="0.26" stop-color="#9A7A5F"/>
<stop offset="0.36" stop-color="#C9A885"/>
<stop offset="0.49" stop-color="#EEDEBC"/>
<stop offset="0.54" stop-color="#DDC6A3"/>
<stop offset="0.61" stop-color="#C9A885"/>
<stop offset="0.72" stop-color="#9A7A5F"/>
<stop offset="0.84" stop-color="#C9A885"/>
<stop offset="1" stop-color="#EEDEBC"/>
</linearGradient>
<linearGradient id="paint13_linear_69_248" x1="23410.1" y1="151426" x2="9597.52" y2="127071" gradientUnits="userSpaceOnUse">
<stop stop-color="#EEDEBC"/>
<stop offset="0.06" stop-color="#DDC6A3"/>
<stop offset="0.14" stop-color="#C9A885"/>
<stop offset="0.26" stop-color="#9A7A5F"/>
<stop offset="0.36" stop-color="#C9A885"/>
<stop offset="0.49" stop-color="#EEDEBC"/>
<stop offset="0.54" stop-color="#DDC6A3"/>
<stop offset="0.61" stop-color="#C9A885"/>
<stop offset="0.72" stop-color="#9A7A5F"/>
<stop offset="0.84" stop-color="#C9A885"/>
<stop offset="1" stop-color="#EEDEBC"/>
</linearGradient>
<linearGradient id="paint14_linear_69_248" x1="7027.67" y1="77217.2" x2="-1192.55" y2="69065.1" gradientUnits="userSpaceOnUse">
<stop stop-color="#EEDEBC"/>
<stop offset="0.06" stop-color="#DDC6A3"/>
<stop offset="0.14" stop-color="#C9A885"/>
<stop offset="0.26" stop-color="#9A7A5F"/>
<stop offset="0.36" stop-color="#C9A885"/>
<stop offset="0.49" stop-color="#EEDEBC"/>
<stop offset="0.54" stop-color="#DDC6A3"/>
<stop offset="0.61" stop-color="#C9A885"/>
<stop offset="0.72" stop-color="#9A7A5F"/>
<stop offset="0.84" stop-color="#C9A885"/>
<stop offset="1" stop-color="#EEDEBC"/>
</linearGradient>
<linearGradient id="paint15_linear_69_248" x1="11764.9" y1="148362" x2="-3892.3" y2="134692" gradientUnits="userSpaceOnUse">
<stop stop-color="#EEDEBC"/>
<stop offset="0.06" stop-color="#DDC6A3"/>
<stop offset="0.14" stop-color="#C9A885"/>
<stop offset="0.26" stop-color="#9A7A5F"/>
<stop offset="0.36" stop-color="#C9A885"/>
<stop offset="0.49" stop-color="#EEDEBC"/>
<stop offset="0.54" stop-color="#DDC6A3"/>
<stop offset="0.61" stop-color="#C9A885"/>
<stop offset="0.72" stop-color="#9A7A5F"/>
<stop offset="0.84" stop-color="#C9A885"/>
<stop offset="1" stop-color="#EEDEBC"/>
</linearGradient>
<linearGradient id="paint16_linear_69_248" x1="11852.8" y1="147833" x2="-3765.56" y2="134134" gradientUnits="userSpaceOnUse">
<stop stop-color="#EEDEBC"/>
<stop offset="0.06" stop-color="#DDC6A3"/>
<stop offset="0.14" stop-color="#C9A885"/>
<stop offset="0.26" stop-color="#9A7A5F"/>
<stop offset="0.36" stop-color="#C9A885"/>
<stop offset="0.49" stop-color="#EEDEBC"/>
<stop offset="0.54" stop-color="#DDC6A3"/>
<stop offset="0.61" stop-color="#C9A885"/>
<stop offset="0.72" stop-color="#9A7A5F"/>
<stop offset="0.84" stop-color="#C9A885"/>
<stop offset="1" stop-color="#EEDEBC"/>
</linearGradient>
<linearGradient id="paint17_linear_69_248" x1="13382.7" y1="43062.5" x2="10703.2" y2="34678.6" gradientUnits="userSpaceOnUse">
<stop stop-color="#EEDEBC"/>
<stop offset="0.06" stop-color="#DDC6A3"/>
<stop offset="0.14" stop-color="#C9A885"/>
<stop offset="0.26" stop-color="#9A7A5F"/>
<stop offset="0.36" stop-color="#C9A885"/>
<stop offset="0.49" stop-color="#EEDEBC"/>
<stop offset="0.54" stop-color="#DDC6A3"/>
<stop offset="0.61" stop-color="#C9A885"/>
<stop offset="0.72" stop-color="#9A7A5F"/>
<stop offset="0.84" stop-color="#C9A885"/>
<stop offset="1" stop-color="#EEDEBC"/>
</linearGradient>
<linearGradient id="paint18_linear_69_248" x1="25348.7" y1="72945.9" x2="21284.2" y2="58447.9" gradientUnits="userSpaceOnUse">
<stop stop-color="#EEDEBC"/>
<stop offset="0.06" stop-color="#DDC6A3"/>
<stop offset="0.14" stop-color="#C9A885"/>
<stop offset="0.26" stop-color="#9A7A5F"/>
<stop offset="0.36" stop-color="#C9A885"/>
<stop offset="0.49" stop-color="#EEDEBC"/>
<stop offset="0.54" stop-color="#DDC6A3"/>
<stop offset="0.61" stop-color="#C9A885"/>
<stop offset="0.72" stop-color="#9A7A5F"/>
<stop offset="0.84" stop-color="#C9A885"/>
<stop offset="1" stop-color="#EEDEBC"/>
</linearGradient>
<linearGradient id="paint19_linear_69_248" x1="25278.5" y1="73224" x2="21186.3" y2="58680.5" gradientUnits="userSpaceOnUse">
<stop stop-color="#EEDEBC"/>
<stop offset="0.06" stop-color="#DDC6A3"/>
<stop offset="0.14" stop-color="#C9A885"/>
<stop offset="0.26" stop-color="#9A7A5F"/>
<stop offset="0.36" stop-color="#C9A885"/>
<stop offset="0.49" stop-color="#EEDEBC"/>
<stop offset="0.54" stop-color="#DDC6A3"/>
<stop offset="0.61" stop-color="#C9A885"/>
<stop offset="0.72" stop-color="#9A7A5F"/>
<stop offset="0.84" stop-color="#C9A885"/>
<stop offset="1" stop-color="#EEDEBC"/>
</linearGradient>
<clipPath id="clip0_69_248">
<rect width="212.54" height="212.54" fill="white" transform="translate(0 212.54) rotate(-90)"/>
</clipPath>
</defs>
</svg>
