<svg width="213" height="213" viewBox="0 0 213 213" fill="none" xmlns="http://www.w3.org/2000/svg">
<g clip-path="url(#clip0_69_223)">
<path d="M212.54 1.31003L212.54 212.53L1.32006 212.53C0.991095 212.501 0.684836 212.35 0.461722 212.107C0.238608 211.863 0.114798 211.545 0.114798 211.215C0.114798 210.885 0.238608 210.567 0.461722 210.323C0.684836 210.08 0.991095 209.929 1.32006 209.9L209.91 209.9L209.91 1.31003C209.939 0.981063 210.09 0.674805 210.333 0.451691C210.577 0.228576 210.895 0.104767 211.225 0.104767C211.555 0.104767 211.874 0.228576 212.117 0.451691C212.36 0.674805 212.511 0.981063 212.54 1.31003Z" fill="url(#paint0_linear_69_223)"/>
<path d="M201.38 21.17L201.38 175C201.396 175.182 201.374 175.366 201.315 175.539C201.256 175.713 201.162 175.872 201.038 176.007C200.914 176.142 200.764 176.249 200.597 176.323C200.429 176.397 200.248 176.435 200.065 176.435C199.882 176.435 199.701 176.397 199.533 176.323C199.366 176.249 199.216 176.142 199.092 176.007C198.968 175.872 198.874 175.713 198.815 175.539C198.756 175.366 198.734 175.182 198.75 175L198.75 21.17C198.779 20.841 198.93 20.5348 199.173 20.3117C199.417 20.0886 199.735 19.9648 200.065 19.9648C200.395 19.9648 200.713 20.0886 200.957 20.3117C201.2 20.5348 201.351 20.841 201.38 21.17Z" fill="url(#paint1_linear_69_223)"/>
<path d="M177.42 200.35C177.42 200.643 177.304 200.923 177.098 201.131C176.892 201.339 176.613 201.457 176.32 201.46L22.4899 201.46C22.215 201.434 21.9597 201.306 21.7739 201.102C21.5881 200.897 21.4852 200.631 21.4852 200.355C21.4852 200.079 21.5881 199.813 21.7739 199.608C21.9597 199.404 22.215 199.276 22.4899 199.25L176.32 199.25C176.612 199.25 176.891 199.366 177.098 199.572C177.304 199.778 177.42 200.058 177.42 200.35Z" fill="url(#paint2_linear_69_223)"/>
<path d="M173.62 184.72C173.8 184.89 173.97 185.06 174.14 185.25C174.938 186.122 175.541 187.153 175.91 188.275C176.278 189.397 176.405 190.585 176.28 191.76C176.24 192.232 176.163 192.7 176.05 193.16C175.807 194.45 175.232 195.654 174.381 196.653C173.531 197.653 172.434 198.413 171.2 198.86C169.906 199.299 168.513 199.353 167.188 199.016C165.864 198.679 164.666 197.965 163.74 196.96C163.203 196.369 162.794 195.672 162.539 194.915C162.284 194.158 162.189 193.356 162.26 192.56C162.293 192.223 162.349 191.889 162.43 191.56C162.601 190.669 163 189.837 163.589 189.146C164.178 188.455 164.937 187.929 165.79 187.62C166.668 187.315 167.615 187.267 168.52 187.48C169.483 187.708 170.356 188.216 171.03 188.94C171.785 189.756 172.187 190.837 172.147 191.948C172.108 193.059 171.631 194.11 170.82 194.87C170.678 195.001 170.507 195.095 170.321 195.146C170.134 195.196 169.939 195.201 169.75 195.16C169.521 195.101 169.314 194.98 169.15 194.81C168.939 194.581 168.827 194.279 168.839 193.968C168.85 193.657 168.983 193.363 169.21 193.15C169.48 192.902 169.668 192.578 169.75 192.22C169.818 191.925 169.812 191.617 169.734 191.324C169.655 191.031 169.506 190.762 169.3 190.54C168.946 190.158 168.487 189.89 167.98 189.77C167.505 189.667 167.011 189.695 166.55 189.85C166.078 190.031 165.661 190.332 165.34 190.723C165.02 191.114 164.806 191.582 164.72 192.08C164.667 192.314 164.631 192.551 164.61 192.79C164.566 193.261 164.619 193.736 164.767 194.185C164.915 194.634 165.155 195.048 165.47 195.4C166.113 196.095 166.948 196.583 167.87 196.8C168.722 196.997 169.612 196.952 170.44 196.67C171.298 196.357 172.057 195.821 172.641 195.119C173.224 194.416 173.61 193.571 173.76 192.67C173.842 192.301 173.902 191.927 173.94 191.55C174.033 190.705 173.946 189.85 173.684 189.042C173.422 188.233 172.991 187.49 172.42 186.86C172.29 186.72 172.15 186.59 172.01 186.46C171.136 185.628 170.055 185.044 168.88 184.77C167.772 184.505 166.618 184.505 165.51 184.77C164.263 185.076 163.113 185.689 162.165 186.553C161.216 187.418 160.499 188.507 160.08 189.72L159.98 190.02C159.792 190.537 159.635 191.064 159.51 191.6C159.079 193.569 158.904 195.586 158.99 197.6C159.082 199.235 158.944 200.874 158.58 202.47C157.963 205.612 156.125 208.381 153.47 210.17C153.367 210.246 153.26 210.316 153.15 210.38C152.002 211.102 150.63 211.383 149.29 211.17C149.14 211.17 149 211.17 148.85 211.09C147.526 210.779 146.356 210.006 145.55 208.91C144.802 207.886 144.487 206.609 144.675 205.355C144.862 204.101 145.536 202.971 146.55 202.21C147.01 201.87 147.536 201.633 148.095 201.514C148.654 201.395 149.232 201.397 149.79 201.52L149.87 201.52C150.592 201.659 151.258 202.002 151.79 202.509C152.322 203.016 152.697 203.666 152.87 204.38C152.985 204.883 152.985 205.407 152.87 205.91C152.682 206.712 152.214 207.421 151.55 207.91C151.426 208.002 151.285 208.068 151.136 208.105C150.986 208.142 150.831 208.149 150.678 208.126C150.526 208.103 150.379 208.05 150.248 207.97C150.116 207.89 150.001 207.784 149.91 207.66C149.818 207.535 149.752 207.394 149.714 207.243C149.677 207.093 149.67 206.936 149.693 206.783C149.717 206.63 149.77 206.483 149.85 206.35C149.93 206.218 150.035 206.102 150.16 206.01C150.338 205.88 150.473 205.701 150.55 205.495C150.626 205.288 150.64 205.064 150.59 204.85C150.538 204.6 150.404 204.375 150.21 204.21C149.964 204.001 149.667 203.86 149.35 203.8C149.123 203.746 148.886 203.741 148.657 203.786C148.428 203.831 148.21 203.924 148.02 204.06C147.562 204.401 147.24 204.894 147.11 205.45C147.032 205.794 147.029 206.151 147.102 206.496C147.174 206.841 147.32 207.166 147.53 207.45C148.002 208.096 148.691 208.55 149.47 208.73C149.556 208.752 149.642 208.769 149.73 208.78C150.165 208.85 150.609 208.831 151.037 208.727C151.464 208.622 151.867 208.433 152.22 208.17L152.3 208.12C154.398 206.648 155.835 204.411 156.3 201.89C156.604 200.502 156.722 199.079 156.65 197.66C156.555 195.458 156.747 193.253 157.22 191.1C157.367 190.465 157.554 189.841 157.78 189.23L157.88 188.95C158.433 187.375 159.371 185.963 160.61 184.843C161.848 183.723 163.347 182.932 164.97 182.54C166.434 182.164 167.968 182.147 169.44 182.49C171.005 182.854 172.446 183.623 173.62 184.72Z" fill="url(#paint3_linear_69_223)"/>
<path d="M185.26 172.42C185.43 172.6 185.61 172.77 185.79 172.94C186.682 173.715 187.727 174.294 188.857 174.638C189.987 174.983 191.178 175.086 192.35 174.94C192.822 174.888 193.29 174.805 193.75 174.69C195.036 174.414 196.228 173.808 197.208 172.931C198.188 172.054 198.923 170.937 199.34 169.69C199.74 168.436 199.778 167.095 199.45 165.82C199.101 164.45 198.348 163.217 197.29 162.28C196.689 161.753 195.985 161.356 195.222 161.117C194.459 160.878 193.655 160.8 192.86 160.89C192.523 160.929 192.189 160.989 191.86 161.07C190.972 161.264 190.148 161.683 189.469 162.287C188.789 162.892 188.277 163.66 187.98 164.52C187.704 165.406 187.677 166.35 187.9 167.25C188.141 168.201 188.655 169.06 189.38 169.72C190.213 170.458 191.303 170.837 192.413 170.775C193.524 170.713 194.565 170.215 195.31 169.39C195.437 169.244 195.527 169.07 195.573 168.882C195.618 168.694 195.617 168.498 195.57 168.31C195.513 168.081 195.388 167.875 195.21 167.72C195.066 167.593 194.894 167.503 194.707 167.458C194.521 167.412 194.326 167.413 194.14 167.46C193.913 167.521 193.708 167.646 193.55 167.82C193.223 168.181 192.766 168.399 192.279 168.425C191.792 168.451 191.315 168.284 190.95 167.96C190.56 167.616 190.282 167.163 190.15 166.66C190.021 166.192 190.021 165.698 190.15 165.23C190.318 164.75 190.61 164.324 190.997 163.994C191.383 163.663 191.85 163.441 192.35 163.35C192.58 163.29 192.814 163.246 193.05 163.22C193.521 163.166 193.997 163.209 194.45 163.349C194.903 163.488 195.322 163.72 195.68 164.03C196.362 164.635 196.854 165.424 197.097 166.302C197.34 167.181 197.324 168.111 197.05 168.98C196.756 169.84 196.239 170.606 195.552 171.202C194.865 171.797 194.033 172.2 193.14 172.37C192.776 172.464 192.405 172.531 192.03 172.57C191.188 172.686 190.33 172.619 189.516 172.374C188.701 172.129 187.949 171.711 187.31 171.15C187.17 171.02 187.03 170.89 186.9 170.75C186.075 169.905 185.483 168.861 185.18 167.72C184.915 166.612 184.915 165.458 185.18 164.35C185.457 163.102 186.04 161.942 186.879 160.976C187.717 160.01 188.783 159.269 189.98 158.82L190.27 158.71C190.783 158.512 191.307 158.345 191.84 158.21C193.784 157.741 195.781 157.526 197.78 157.57C199.413 157.62 201.045 157.445 202.63 157.05C205.751 156.338 208.465 154.423 210.18 151.72C210.257 151.618 210.327 151.511 210.39 151.4C211.085 150.234 211.337 148.857 211.1 147.52C211.1 147.37 211.04 147.22 211.01 147.08C210.672 145.76 209.874 144.604 208.76 143.82C208.186 143.416 207.531 143.142 206.84 143.018C206.149 142.893 205.439 142.921 204.76 143.1C203.668 143.369 202.708 144.018 202.05 144.93C201.721 145.398 201.497 145.931 201.391 146.494C201.286 147.056 201.303 147.635 201.44 148.19L201.44 148.28C201.588 149.001 201.941 149.663 202.458 150.187C202.974 150.71 203.632 151.073 204.35 151.23C204.854 151.34 205.376 151.34 205.88 151.23C206.69 151.029 207.4 150.542 207.88 149.86C207.982 149.717 208.051 149.553 208.082 149.38C208.113 149.207 208.106 149.03 208.06 148.86C207.992 148.586 207.824 148.347 207.59 148.19C207.448 148.087 207.284 148.017 207.111 147.986C206.938 147.955 206.76 147.963 206.59 148.01C206.318 148.076 206.079 148.24 205.92 148.47C205.819 148.611 205.688 148.727 205.536 148.811C205.384 148.894 205.215 148.941 205.042 148.95C204.869 148.959 204.696 148.928 204.536 148.861C204.377 148.793 204.234 148.69 204.12 148.56C203.91 148.315 203.763 148.024 203.69 147.71C203.632 147.483 203.622 147.246 203.662 147.015C203.701 146.784 203.789 146.564 203.92 146.37C204.254 145.905 204.744 145.575 205.3 145.44C205.64 145.353 205.995 145.342 206.341 145.406C206.686 145.47 207.013 145.608 207.3 145.81C207.958 146.264 208.428 146.944 208.62 147.72L208.68 147.98C208.832 148.855 208.631 149.754 208.12 150.48L208.07 150.57C206.648 152.708 204.443 154.202 201.93 154.73C200.55 155.067 199.13 155.215 197.71 155.17C195.502 155.123 193.297 155.362 191.15 155.88C190.517 156.038 189.896 156.238 189.29 156.48L189.02 156.58C187.457 157.165 186.065 158.133 184.972 159.394C183.879 160.655 183.118 162.17 182.76 163.8C182.405 165.269 182.405 166.801 182.76 168.27C183.203 169.854 184.067 171.288 185.26 172.42Z" fill="url(#paint4_linear_69_223)"/>
<path d="M211.73 180.96C211.73 180.71 211.61 180.46 211.54 180.21C211.189 179.017 210.588 177.913 209.778 176.97C208.967 176.027 207.966 175.267 206.84 174.74C206.39 174.522 205.926 174.335 205.45 174.18C204.155 173.704 202.76 173.57 201.398 173.793C200.037 174.016 198.756 174.586 197.68 175.45C196.58 176.378 195.772 177.604 195.355 178.982C194.938 180.359 194.929 181.828 195.33 183.21C195.571 184.016 195.977 184.764 196.523 185.404C197.069 186.045 197.742 186.565 198.5 186.93C198.822 187.097 199.156 187.237 199.5 187.35C200.399 187.678 201.368 187.769 202.312 187.613C203.256 187.457 204.144 187.06 204.89 186.46C205.665 185.812 206.235 184.953 206.53 183.987C206.825 183.021 206.832 181.99 206.55 181.02C206.349 180.323 205.98 179.685 205.477 179.162C204.973 178.639 204.35 178.247 203.66 178.02C202.822 177.765 201.928 177.765 201.09 178.02C200.894 178.076 200.715 178.179 200.569 178.32C200.422 178.461 200.313 178.636 200.25 178.83C200.18 179.065 200.18 179.315 200.25 179.55C200.304 179.747 200.407 179.926 200.548 180.073C200.69 180.22 200.866 180.329 201.06 180.39C201.295 180.46 201.545 180.46 201.78 180.39C202.275 180.251 202.804 180.312 203.254 180.561C203.703 180.81 204.036 181.227 204.18 181.72C204.335 182.245 204.335 182.805 204.18 183.33C204.02 183.813 203.729 184.242 203.34 184.57C202.921 184.897 202.424 185.109 201.898 185.186C201.372 185.263 200.835 185.203 200.34 185.01C200.101 184.929 199.867 184.832 199.64 184.72C199.192 184.505 198.794 184.199 198.47 183.822C198.147 183.445 197.905 183.005 197.76 182.53C197.498 181.609 197.506 180.633 197.782 179.716C198.059 178.8 198.592 177.982 199.32 177.36C200.067 176.762 200.958 176.371 201.904 176.225C202.85 176.08 203.818 176.185 204.71 176.53C205.086 176.656 205.454 176.806 205.81 176.98C206.624 177.353 207.348 177.896 207.935 178.572C208.521 179.248 208.956 180.042 209.21 180.9L209.35 181.48C209.618 182.721 209.556 184.01 209.17 185.22C208.791 186.353 208.15 187.381 207.3 188.22C206.354 189.176 205.185 189.88 203.898 190.269C202.611 190.659 201.247 190.721 199.93 190.45L199.6 190.38C199.03 190.274 198.469 190.127 197.92 189.94C195.928 189.269 194.032 188.341 192.28 187.18C190.857 186.212 189.305 185.448 187.67 184.91C184.507 183.755 181.015 183.902 177.96 185.32C177.83 185.32 177.71 185.43 177.59 185.49C176.317 186.136 175.32 187.219 174.78 188.54L174.61 188.98C174.168 190.343 174.229 191.818 174.78 193.14C175.062 193.818 175.487 194.428 176.028 194.925C176.568 195.422 177.211 195.796 177.91 196.02C179.034 196.392 180.253 196.353 181.35 195.91C181.904 195.677 182.403 195.329 182.813 194.89C183.223 194.45 183.536 193.929 183.73 193.36L183.73 193.28C184.006 192.555 184.065 191.765 183.9 191.007C183.735 190.249 183.353 189.555 182.8 189.01C182.401 188.64 181.927 188.36 181.41 188.19C180.578 187.922 179.678 187.958 178.87 188.29C178.706 188.359 178.559 188.463 178.438 188.594C178.317 188.725 178.226 188.881 178.17 189.05C178.07 189.328 178.07 189.632 178.17 189.91C178.238 190.077 178.343 190.226 178.476 190.347C178.609 190.468 178.768 190.558 178.94 190.61C179.214 190.715 179.516 190.715 179.79 190.61C180.058 190.51 180.352 190.51 180.62 190.61C180.793 190.662 180.95 190.755 181.08 190.88C181.272 191.066 181.401 191.307 181.45 191.57C181.497 191.907 181.463 192.25 181.35 192.57L181.35 192.63C181.268 192.867 181.136 193.084 180.964 193.267C180.791 193.45 180.582 193.594 180.35 193.69C179.717 193.944 179.01 193.937 178.382 193.671C177.754 193.405 177.258 192.901 177 192.27C176.678 191.494 176.643 190.629 176.9 189.83L177 189.56C177.175 189.133 177.432 188.745 177.759 188.419C178.085 188.092 178.473 187.835 178.9 187.66L179 187.61C181.47 186.506 184.275 186.416 186.81 187.36C188.228 187.841 189.574 188.514 190.81 189.36C192.747 190.641 194.841 191.666 197.04 192.41C197.695 192.625 198.363 192.795 199.04 192.92L199.34 192.98C201.06 193.34 202.842 193.263 204.525 192.757C206.207 192.25 207.735 191.33 208.97 190.08C210.1 188.961 210.95 187.59 211.45 186.08C211.999 184.429 212.095 182.661 211.73 180.96Z" fill="url(#paint5_linear_69_223)"/>
<path d="M182.64 212.08C182.38 212.08 182.12 212 181.87 211.94C180.657 211.67 179.515 211.145 178.521 210.4C177.526 209.655 176.701 208.708 176.1 207.62C175.851 207.186 175.634 206.735 175.45 206.27C174.887 205.01 174.659 203.626 174.789 202.253C174.918 200.879 175.401 199.562 176.19 198.43C177.043 197.273 178.212 196.387 179.557 195.878C180.901 195.369 182.364 195.258 183.77 195.56C184.591 195.746 185.364 196.101 186.041 196.602C186.718 197.103 187.283 197.739 187.7 198.47C187.884 198.793 188.047 199.127 188.19 199.47C188.577 200.343 188.733 201.302 188.642 202.253C188.551 203.204 188.216 204.116 187.67 204.9C187.074 205.715 186.253 206.338 185.308 206.693C184.363 207.048 183.335 207.12 182.35 206.9C181.641 206.748 180.98 206.424 180.426 205.956C179.872 205.489 179.44 204.893 179.17 204.22C178.844 203.407 178.771 202.515 178.96 201.66C179.001 201.461 179.091 201.275 179.222 201.12C179.353 200.964 179.521 200.844 179.71 200.77C179.938 200.675 180.19 200.654 180.43 200.71C180.593 200.739 180.749 200.8 180.888 200.89C181.027 200.98 181.147 201.097 181.24 201.234C181.334 201.371 181.398 201.525 181.431 201.688C181.464 201.85 181.463 202.018 181.43 202.18C181.343 202.554 181.375 202.945 181.52 203.3C181.643 203.594 181.834 203.854 182.077 204.06C182.321 204.265 182.61 204.409 182.92 204.48C183.455 204.594 184.011 204.549 184.52 204.35C184.997 204.159 185.41 203.837 185.71 203.42C186.009 202.984 186.188 202.478 186.228 201.951C186.269 201.424 186.169 200.896 185.94 200.42C185.848 200.185 185.738 199.958 185.61 199.74C185.367 199.305 185.036 198.926 184.638 198.626C184.241 198.327 183.785 198.113 183.3 198C182.327 197.795 181.314 197.882 180.39 198.25C179.534 198.594 178.79 199.169 178.24 199.91C177.693 200.695 177.362 201.61 177.281 202.563C177.2 203.517 177.372 204.474 177.78 205.34C177.935 205.705 178.109 206.062 178.3 206.41C178.727 207.197 179.317 207.884 180.031 208.423C180.745 208.963 181.566 209.344 182.44 209.54C182.64 209.54 182.83 209.61 183.03 209.64C184.287 209.825 185.571 209.673 186.75 209.2C187.858 208.748 188.845 208.043 189.63 207.14C190.52 206.131 191.144 204.915 191.444 203.603C191.745 202.292 191.712 200.926 191.35 199.63L191.26 199.31C191.113 198.753 190.933 198.205 190.72 197.67C189.907 195.726 188.848 193.895 187.57 192.22C186.508 190.867 185.64 189.373 184.99 187.78C183.628 184.699 183.542 181.204 184.75 178.06L184.89 177.68C185.457 176.372 186.471 175.309 187.75 174.68C187.89 174.61 188.03 174.55 188.18 174.49C189.507 173.949 190.986 173.91 192.34 174.38C193.605 174.803 194.652 175.709 195.251 176.9C195.851 178.092 195.955 179.472 195.54 180.74C195.348 181.309 195.036 181.83 194.625 182.268C194.215 182.706 193.715 183.051 193.16 183.28L193.08 183.28C192.375 183.603 191.592 183.715 190.825 183.602C190.058 183.488 189.341 183.154 188.76 182.64C188.363 182.268 188.052 181.815 187.85 181.31C187.522 180.499 187.497 179.598 187.78 178.77C187.838 178.602 187.931 178.448 188.054 178.318C188.176 178.189 188.325 178.087 188.49 178.02C188.767 177.915 189.073 177.915 189.35 178.02C189.518 178.078 189.672 178.171 189.802 178.294C189.931 178.416 190.033 178.565 190.1 178.73C190.205 179.007 190.205 179.313 190.1 179.59C190 179.858 190 180.152 190.1 180.42C190.162 180.586 190.265 180.734 190.4 180.85C190.598 181.033 190.851 181.146 191.12 181.17C191.461 181.2 191.805 181.145 192.12 181.01L192.17 181.01C192.396 180.92 192.601 180.785 192.773 180.613C192.945 180.441 193.08 180.236 193.17 180.01C193.376 179.361 193.32 178.658 193.014 178.05C192.707 177.442 192.174 176.979 191.53 176.76C190.731 176.493 189.863 176.517 189.08 176.83L188.82 176.94C187.99 177.347 187.353 178.066 187.05 178.94L187.05 179.05C186.103 181.587 186.2 184.395 187.32 186.86C187.888 188.239 188.642 189.535 189.56 190.71C190.966 192.553 192.129 194.57 193.02 196.71C193.279 197.362 193.496 198.03 193.67 198.71L193.75 199C194.223 200.693 194.265 202.478 193.872 204.191C193.479 205.904 192.663 207.492 191.5 208.81C190.46 210.011 189.151 210.95 187.68 211.55C186.076 212.167 184.337 212.35 182.64 212.08Z" fill="url(#paint6_linear_69_223)"/>
<path d="M181.35 181.27C181.567 181.661 181.761 182.065 181.93 182.48C181.534 182.317 181.147 182.134 180.77 181.93C180.171 181.615 179.645 181.175 179.23 180.64C179.152 180.532 179.11 180.403 179.11 180.27C179.109 180.191 179.124 180.113 179.155 180.041C179.186 179.968 179.232 179.903 179.29 179.85C179.4 179.734 179.55 179.666 179.71 179.66C179.847 179.663 179.98 179.708 180.09 179.79C180.613 180.186 181.043 180.691 181.35 181.27Z" fill="url(#paint7_linear_69_223)"/>
<path d="M177.89 178.44L178.18 178.72L177.93 178.47C177.69 178.707 177.499 178.988 177.369 179.299C177.238 179.61 177.171 179.943 177.17 180.28C177.176 180.811 177.336 181.328 177.63 181.77C178.501 182.887 179.664 183.741 180.99 184.24C181.73 184.558 182.496 184.812 183.28 185C183.347 185.005 183.413 185.005 183.48 185C183.745 185 184 184.895 184.187 184.707C184.375 184.52 184.48 184.265 184.48 184L184.48 183.8C184.297 183.015 184.043 182.248 183.72 181.51C183.225 180.182 182.37 179.019 181.25 178.15C180.81 177.851 180.291 177.691 179.76 177.69C179.414 177.681 179.069 177.744 178.748 177.872C178.426 178.001 178.134 178.194 177.89 178.44ZM179.71 179.65C179.847 179.653 179.98 179.698 180.09 179.78C180.614 180.179 181.044 180.687 181.35 181.27C181.567 181.661 181.761 182.065 181.93 182.48C181.534 182.317 181.147 182.134 180.77 181.93C180.171 181.615 179.645 181.175 179.23 180.64C179.152 180.532 179.11 180.403 179.11 180.27C179.109 180.191 179.124 180.113 179.155 180.041C179.186 179.968 179.232 179.903 179.29 179.85C179.398 179.73 179.549 179.659 179.71 179.65Z" fill="url(#paint8_linear_69_223)"/>
<path d="M171.59 172.77C171.375 172.378 171.181 171.974 171.01 171.56C171.41 171.715 171.797 171.898 172.17 172.11C172.774 172.419 173.3 172.86 173.71 173.4C173.789 173.511 173.831 173.644 173.83 173.78C173.831 173.859 173.816 173.937 173.785 174.009C173.754 174.082 173.708 174.147 173.65 174.2C173.539 174.313 173.388 174.378 173.23 174.38C173.093 174.377 172.96 174.332 172.85 174.25C172.326 173.855 171.896 173.35 171.59 172.77Z" fill="url(#paint9_linear_69_223)"/>
<path d="M175.05 175.59L174.8 175.35L175.05 175.59C175.29 175.354 175.482 175.072 175.612 174.761C175.742 174.451 175.81 174.117 175.81 173.78C175.804 173.252 175.644 172.738 175.35 172.3C174.479 171.18 173.317 170.322 171.99 169.82C171.249 169.508 170.483 169.257 169.7 169.07C169.634 169.06 169.566 169.06 169.5 169.07C169.236 169.074 168.985 169.182 168.8 169.37C168.612 169.555 168.504 169.806 168.5 170.07L168.5 170.26C168.682 171.042 168.937 171.805 169.26 172.54C169.75 173.871 170.606 175.036 171.73 175.9C172.169 176.201 172.688 176.365 173.22 176.37C173.562 176.371 173.901 176.302 174.215 176.168C174.53 176.034 174.814 175.837 175.05 175.59ZM173.18 174.38C173.043 174.377 172.91 174.332 172.8 174.25C172.276 173.855 171.846 173.35 171.54 172.77C171.325 172.378 171.131 171.974 170.96 171.56C171.36 171.715 171.747 171.898 172.12 172.11C172.724 172.419 173.25 172.86 173.66 173.4C173.739 173.511 173.781 173.644 173.78 173.78C173.781 173.859 173.766 173.937 173.735 174.009C173.704 174.082 173.658 174.147 173.6 174.2C173.489 174.313 173.338 174.378 173.18 174.38Z" fill="url(#paint10_linear_69_223)"/>
<path d="M198.36 195.92C197.874 195.922 197.399 196.068 196.996 196.339C196.593 196.611 196.279 196.996 196.094 197.446C195.91 197.895 195.863 198.389 195.959 198.866C196.055 199.343 196.29 199.78 196.634 200.123C196.979 200.466 197.417 200.699 197.894 200.793C198.371 200.888 198.865 200.838 199.314 200.652C199.763 200.465 200.146 200.15 200.416 199.746C200.686 199.341 200.83 198.866 200.83 198.38C200.83 198.056 200.766 197.735 200.642 197.436C200.518 197.137 200.336 196.866 200.106 196.637C199.877 196.408 199.604 196.227 199.305 196.104C199.005 195.981 198.684 195.919 198.36 195.92Z" fill="url(#paint11_linear_69_223)"/>
<path d="M211.18 184.79C211.47 184.793 211.747 184.91 211.951 185.116C212.155 185.322 212.27 185.6 212.27 185.89C212.232 192.643 209.567 199.117 204.84 203.94C202.513 206.308 199.743 208.195 196.687 209.492C193.631 210.789 190.35 211.472 187.03 211.5C186.741 211.5 186.464 211.385 186.259 211.181C186.055 210.976 185.94 210.699 185.94 210.41C185.94 210.121 186.055 209.844 186.259 209.639C186.464 209.435 186.741 209.32 187.03 209.32C193.156 209.26 199.008 206.771 203.3 202.4C207.63 197.988 210.07 192.062 210.1 185.88C210.105 185.594 210.22 185.321 210.421 185.118C210.623 184.915 210.894 184.798 211.18 184.79Z" fill="url(#paint12_linear_69_223)"/>
<path d="M184.77 162.88C184.77 163.145 184.665 163.4 184.477 163.587C184.29 163.775 184.035 163.88 183.77 163.88C178.42 163.918 173.303 166.076 169.54 169.88C165.749 173.741 163.614 178.929 163.59 184.34C163.529 184.548 163.403 184.73 163.23 184.86C163.057 184.99 162.846 185.06 162.63 185.06C162.414 185.06 162.203 184.99 162.03 184.86C161.857 184.73 161.731 184.548 161.67 184.34C161.703 178.43 164.038 172.766 168.18 168.55C172.292 164.368 177.895 161.987 183.76 161.93C184.019 161.927 184.268 162.024 184.456 162.202C184.645 162.379 184.757 162.622 184.77 162.88Z" fill="url(#paint13_linear_69_223)"/>
<path d="M199.35 10.83C199.433 10.6977 199.548 10.5887 199.684 10.5131C199.821 10.4375 199.974 10.3979 200.13 10.3979C200.286 10.3979 200.439 10.4375 200.576 10.5131C200.712 10.5887 200.827 10.6977 200.91 10.83C201.04 11.03 204.07 15.83 203.33 19.53C203.197 20.2817 202.803 20.9625 202.218 21.4529C201.633 21.9433 200.893 22.2121 200.13 22.2121C199.367 22.2121 198.627 21.9433 198.042 21.4529C197.457 20.9625 197.063 20.2817 196.93 19.53C196.85 19.1216 196.809 18.7063 196.81 18.29C196.81 14.81 199.18 11.01 199.35 10.83ZM201.5 19.17C201.89 17.24 200.89 14.77 200.13 13.24C199.31 14.89 198.39 17.34 198.75 19.17C198.799 19.4998 198.965 19.801 199.217 20.0188C199.469 20.2365 199.792 20.3564 200.125 20.3564C200.458 20.3564 200.781 20.2365 201.033 20.0188C201.285 19.801 201.451 19.4998 201.5 19.17Z" fill="url(#paint14_linear_69_223)"/>
<path d="M200.07 23.8C200.38 23.4309 200.761 23.1275 201.191 22.9077C201.62 22.6878 202.089 22.556 202.57 22.52C203.39 22.4588 204.202 22.7221 204.83 23.2532C205.459 23.7843 205.854 24.5408 205.93 25.36C205.955 25.7343 205.902 26.1098 205.775 26.4627C205.648 26.8155 205.449 27.1381 205.19 27.41C204.861 27.7826 204.429 28.0503 203.949 28.1801C203.47 28.3098 202.962 28.2959 202.49 28.14C202.159 28.0193 201.859 27.8254 201.613 27.5726C201.367 27.3198 201.181 27.0146 201.07 26.68C201.14 27.49 201.62 29.96 204.91 31.8C206.438 32.6482 207.795 33.7742 208.91 35.12L209.02 35.26C209.675 36.0727 210.116 37.0372 210.301 38.0646C210.486 39.0921 210.41 40.1495 210.08 41.14C209.796 42.0723 209.28 42.9173 208.58 43.5959C207.881 44.2745 207.021 44.7645 206.08 45.02C205.93 45.02 205.78 45.0999 205.63 45.1299C204.901 45.2671 204.15 45.249 203.428 45.0767C202.706 44.9044 202.029 44.5818 201.44 44.1299C200.628 43.5815 199.996 42.8068 199.621 41.9019C199.245 40.997 199.144 40.0018 199.33 39.04C199.532 38.1962 199.972 37.4282 200.598 36.8272C201.224 36.2263 202.009 35.8177 202.86 35.65C203.365 35.5588 203.883 35.573 204.382 35.6918C204.881 35.8105 205.35 36.0312 205.76 36.34C206.341 36.7264 206.795 37.2766 207.064 37.921C207.333 38.5653 207.404 39.2749 207.27 39.96C207.13 40.5655 206.818 41.1174 206.37 41.5487C205.923 41.9801 205.36 42.2723 204.75 42.39C204.034 42.5282 203.293 42.3776 202.687 41.971C202.082 41.5644 201.663 40.935 201.52 40.22C201.496 40.0998 201.497 39.9762 201.521 39.8561C201.545 39.7361 201.592 39.6219 201.661 39.5203C201.729 39.4186 201.817 39.3313 201.918 39.2635C202.02 39.1957 202.135 39.1486 202.255 39.125C202.375 39.1014 202.499 39.1016 202.619 39.1257C202.739 39.1499 202.853 39.1974 202.955 39.2657C203.056 39.3339 203.144 39.4215 203.211 39.5235C203.279 39.6255 203.326 39.7398 203.35 39.86C203.396 40.0821 203.525 40.2783 203.711 40.4085C203.897 40.5386 204.125 40.5928 204.35 40.56C204.605 40.5146 204.841 40.3957 205.029 40.2181C205.217 40.0405 205.35 39.8118 205.41 39.56C205.462 39.2277 205.414 38.8875 205.271 38.5828C205.129 38.2782 204.898 38.0231 204.61 37.85C204.406 37.6976 204.173 37.5881 203.926 37.528C203.678 37.4678 203.421 37.4583 203.17 37.5C202.67 37.5979 202.209 37.839 201.843 38.1941C201.477 38.5492 201.223 39.0029 201.11 39.5C201.002 40.1116 201.078 40.7415 201.33 41.3096C201.581 41.8776 201.995 42.3581 202.52 42.6899C202.899 42.9859 203.337 43.1986 203.804 43.3141C204.27 43.4295 204.757 43.4452 205.23 43.36C205.338 43.3392 205.445 43.3125 205.55 43.28C206.199 43.1091 206.793 42.7749 207.276 42.3093C207.759 41.8436 208.115 41.2621 208.31 40.62C208.541 39.9229 208.594 39.179 208.465 38.4561C208.336 37.7331 208.028 37.0539 207.57 36.48L207.44 36.33C206.469 35.1739 205.293 34.2077 203.97 33.48C199.32 30.87 199.18 27.01 199.17 26.48L199.17 26.24C199.152 25.3424 199.474 24.4712 200.07 23.8ZM204.07 25.52C204.039 25.1909 203.881 24.887 203.628 24.6737C203.376 24.4605 203.05 24.3549 202.72 24.3799C202.482 24.3969 202.249 24.4614 202.036 24.5696C201.823 24.6778 201.634 24.8275 201.48 25.01C201.382 25.1263 201.298 25.2538 201.23 25.39C201.356 25.2656 201.515 25.1798 201.689 25.1428C201.862 25.1058 202.042 25.1191 202.208 25.1811C202.374 25.2431 202.519 25.3512 202.626 25.4927C202.732 25.6343 202.796 25.8033 202.81 25.98C202.819 26.0689 202.853 26.1535 202.908 26.2241C202.963 26.2948 203.036 26.3488 203.12 26.3799C203.255 26.4122 203.396 26.4038 203.526 26.3558C203.656 26.3077 203.769 26.2222 203.85 26.11C203.991 25.9645 204.073 25.7722 204.08 25.57L204.07 25.52Z" fill="url(#paint15_linear_69_223)"/>
<path d="M191.18 35.26L191.28 35.14C192.395 33.7886 193.751 32.6561 195.28 31.8C198.57 29.96 199.05 27.48 199.12 26.68C199.005 27.0143 198.817 27.3188 198.57 27.5713C198.322 27.8238 198.022 28.0181 197.69 28.14C197.219 28.2951 196.714 28.3086 196.235 28.1788C195.757 28.0491 195.328 27.7817 195 27.41C194.738 27.14 194.536 26.818 194.407 26.4648C194.278 26.1116 194.224 25.7352 194.25 25.36C194.326 24.5408 194.721 23.7843 195.35 23.2532C195.978 22.7221 196.79 22.4588 197.61 22.52C198.572 22.5943 199.465 23.044 200.098 23.772C200.73 24.4999 201.051 25.4475 200.99 26.41C200.99 26.98 200.84 30.82 196.2 33.41C194.865 34.1407 193.678 35.114 192.7 36.28L192.59 36.41C192.132 36.9839 191.824 37.6631 191.695 38.3861C191.566 39.109 191.619 39.8529 191.85 40.55C192.045 41.1921 192.401 41.7736 192.884 42.2393C193.367 42.7049 193.961 43.0391 194.61 43.21C194.72 43.21 194.82 43.27 194.93 43.29C195.403 43.3758 195.89 43.3605 196.357 43.245C196.824 43.1295 197.261 42.9165 197.64 42.62C198.165 42.2876 198.58 41.8074 198.833 41.2398C199.085 40.6721 199.164 40.0425 199.06 39.43C198.943 38.9332 198.686 38.4804 198.319 38.1258C197.952 37.7712 197.491 37.5297 196.99 37.43C196.74 37.3885 196.485 37.3982 196.239 37.4583C195.993 37.5185 195.762 37.6279 195.56 37.78C195.271 37.9527 195.039 38.2074 194.895 38.5118C194.751 38.8163 194.7 39.1568 194.75 39.49C194.811 39.7412 194.944 39.9692 195.132 40.1467C195.32 40.3241 195.556 40.4434 195.81 40.49C196.034 40.5203 196.262 40.4651 196.447 40.3354C196.632 40.2057 196.762 40.011 196.81 39.79C196.826 39.6632 196.868 39.5411 196.933 39.4312C196.998 39.3213 197.085 39.2259 197.188 39.1511C197.292 39.0763 197.41 39.0236 197.534 38.9963C197.659 38.9691 197.788 38.9678 197.913 38.9926C198.039 39.0173 198.158 39.0677 198.262 39.1404C198.367 39.2131 198.456 39.3067 198.524 39.4153C198.591 39.5239 198.635 39.6452 198.653 39.7716C198.672 39.8979 198.664 40.0268 198.63 40.15C198.49 40.8642 198.072 41.4936 197.468 41.9004C196.865 42.3072 196.125 42.458 195.41 42.32C194.799 42.2017 194.235 41.9094 193.786 41.4783C193.338 41.0472 193.023 40.4957 192.88 39.89C192.746 39.2049 192.817 38.4953 193.086 37.851C193.355 37.2066 193.809 36.6564 194.39 36.27C194.802 35.9609 195.272 35.7402 195.773 35.6215C196.274 35.5027 196.794 35.4886 197.3 35.58C198.151 35.7459 198.936 36.1541 199.56 36.7555C200.185 37.3569 200.622 38.1259 200.82 38.97C201.007 39.9308 200.907 40.9253 200.534 41.8301C200.161 42.7349 199.53 43.5103 198.72 44.06C198.129 44.5115 197.45 44.8338 196.726 45.0061C196.003 45.1784 195.251 45.1968 194.52 45.06C194.37 45.06 194.22 44.99 194.07 44.95C193.13 44.6928 192.271 44.2022 191.572 43.5239C190.872 42.8455 190.356 42.0014 190.07 41.07C189.858 40.4245 189.75 39.7494 189.75 39.07C189.791 37.6764 190.294 36.336 191.18 35.26ZM198.74 25.01C198.587 24.8282 198.4 24.6789 198.189 24.5707C197.977 24.4626 197.747 24.3977 197.51 24.3799C197.184 24.3629 196.865 24.4717 196.617 24.684C196.369 24.8962 196.213 25.1955 196.18 25.52C196.172 25.6292 196.189 25.7388 196.229 25.8408C196.269 25.9429 196.33 26.0348 196.41 26.11C196.489 26.2224 196.6 26.3083 196.728 26.3565C196.857 26.4047 196.997 26.4129 197.13 26.3799C197.216 26.352 197.291 26.299 197.347 26.2277C197.402 26.1563 197.434 26.0701 197.44 25.98C197.454 25.8033 197.518 25.6343 197.624 25.4927C197.731 25.3512 197.876 25.2431 198.042 25.1811C198.208 25.1191 198.388 25.1058 198.561 25.1428C198.735 25.1798 198.894 25.2656 199.02 25.39C198.955 25.2497 198.867 25.1213 198.76 25.01L198.74 25.01Z" fill="url(#paint16_linear_69_223)"/>
<path d="M7.45007 201.13C7.32135 201.044 7.21565 200.929 7.14239 200.793C7.06914 200.656 7.03053 200.504 7.03003 200.35C7.03389 200.195 7.07389 200.043 7.14679 199.905C7.21969 199.768 7.32353 199.65 7.45007 199.56C7.65007 199.43 12.45 196.4 16.16 197.15C16.9027 197.294 17.572 197.693 18.0532 198.277C18.5343 198.86 18.7975 199.593 18.7975 200.35C18.7975 201.107 18.5343 201.84 18.0532 202.423C17.572 203.007 16.9027 203.406 16.16 203.55C15.7482 203.63 15.3296 203.67 14.91 203.67C11.44 203.72 7.63007 201.25 7.45007 201.13ZM15.79 198.97C13.86 198.59 11.3901 199.59 9.87006 200.35C11.5101 201.17 13.97 202.08 15.79 201.72C16.1198 201.671 16.421 201.505 16.6388 201.253C16.8566 201.001 16.9764 200.678 16.9764 200.345C16.9764 200.012 16.8566 199.689 16.6388 199.437C16.421 199.185 16.1198 199.019 15.79 198.97Z" fill="url(#paint17_linear_69_223)"/>
<path d="M20.42 200.41C20.0539 200.098 19.7533 199.716 19.5353 199.287C19.3174 198.858 19.1864 198.39 19.1499 197.91C19.0833 197.09 19.3434 196.277 19.8734 195.647C20.4034 195.018 21.1605 194.624 21.98 194.55C22.3545 194.522 22.7309 194.573 23.0843 194.7C23.4376 194.828 23.7599 195.029 24.03 195.29C24.4038 195.616 24.6727 196.046 24.8027 196.524C24.9326 197.003 24.9178 197.51 24.76 197.98C24.6404 198.312 24.4481 198.612 24.1972 198.859C23.9463 199.107 23.6431 199.295 23.31 199.41C24.11 199.34 26.58 198.85 28.42 195.57C29.2684 194.039 30.3982 192.682 31.75 191.57L31.88 191.46C32.6932 190.806 33.6571 190.365 34.6841 190.178C35.711 189.991 36.7684 190.064 37.76 190.39C38.691 190.677 39.5347 191.193 40.2129 191.892C40.8911 192.592 41.3819 193.451 41.64 194.39L41.75 194.84C41.888 195.571 41.8702 196.323 41.6979 197.047C41.5256 197.77 41.2026 198.45 40.75 199.04C40.2002 199.85 39.4249 200.48 38.5201 200.854C37.6153 201.227 36.6208 201.327 35.66 201.14C34.816 200.944 34.0473 200.507 33.4472 199.882C32.8472 199.257 32.4416 198.471 32.28 197.62C32.1837 197.116 32.1945 196.597 32.3116 196.098C32.4288 195.598 32.6497 195.129 32.96 194.72C33.3455 194.138 33.8955 193.683 34.5401 193.414C35.1848 193.145 35.8949 193.074 36.58 193.21C37.1866 193.347 37.7398 193.659 38.1716 194.107C38.6033 194.555 38.8947 195.119 39.01 195.73C39.1482 196.446 38.9976 197.187 38.591 197.792C38.1845 198.398 37.5549 198.817 36.8399 198.96C36.5973 199.008 36.3456 198.957 36.1402 198.819C35.9349 198.681 35.7927 198.468 35.745 198.225C35.6972 197.982 35.7478 197.731 35.8857 197.525C36.0235 197.32 36.2373 197.178 36.48 197.13C36.7021 197.084 36.8983 196.955 37.0284 196.769C37.1585 196.583 37.2127 196.354 37.18 196.13C37.1322 195.876 37.0126 195.641 36.8353 195.453C36.6581 195.266 36.4306 195.132 36.18 195.07C35.8468 195.02 35.5063 195.071 35.2019 195.215C34.8974 195.359 34.6426 195.591 34.47 195.88C34.3143 196.082 34.2021 196.315 34.1401 196.563C34.0782 196.81 34.0679 197.068 34.11 197.32C34.2113 197.819 34.4536 198.278 34.8081 198.643C35.1626 199.008 35.6145 199.264 36.11 199.38C36.7225 199.486 37.3527 199.407 37.9206 199.154C38.4885 198.902 38.9685 198.486 39.3 197.96C39.6011 197.584 39.817 197.147 39.9327 196.679C40.0483 196.211 40.061 195.723 39.97 195.25L39.8999 194.93C39.7231 194.284 39.3869 193.693 38.9221 193.211C38.4573 192.728 37.879 192.371 37.24 192.17C36.542 191.94 35.7978 191.888 35.0748 192.019C34.3517 192.15 33.6729 192.46 33.1 192.92L32.94 193.04C31.7866 194.017 30.8208 195.197 30.0899 196.52C27.4899 201.16 23.6199 201.3 23.0899 201.31C23.0067 201.315 22.9232 201.315 22.8399 201.31C21.9504 201.316 21.0896 200.996 20.42 200.41ZM22.14 196.41C21.81 196.443 21.506 196.604 21.293 196.858C21.08 197.112 20.9748 197.439 21 197.77C21.0386 198.25 21.265 198.696 21.63 199.01C21.7479 199.106 21.8752 199.19 22.01 199.26C21.8586 199.103 21.7667 198.898 21.75 198.68C21.7306 198.435 21.8092 198.192 21.9685 198.004C22.1278 197.817 22.3548 197.7 22.6 197.68C22.6911 197.669 22.7775 197.634 22.8498 197.577C22.9222 197.521 22.9776 197.446 23.01 197.36C23.0402 197.227 23.0307 197.088 22.9827 196.96C22.9347 196.832 22.8503 196.721 22.74 196.64C22.5962 196.497 22.4029 196.414 22.2 196.41L22.14 196.41Z" fill="url(#paint18_linear_69_223)"/>
<path d="M31.88 209.27L31.77 209.18C30.4065 208.055 29.2695 206.68 28.42 205.13C26.58 201.85 24.1 201.37 23.3 201.3C23.6353 201.413 23.9408 201.6 24.1936 201.848C24.4464 202.096 24.64 202.397 24.76 202.73C24.9178 203.2 24.9326 203.707 24.8027 204.186C24.6727 204.664 24.4038 205.094 24.03 205.42C23.7606 205.682 23.4384 205.884 23.0849 206.011C22.7313 206.139 22.3547 206.19 21.98 206.16C21.1605 206.086 20.4034 205.692 19.8734 205.062C19.3434 204.433 19.0833 203.62 19.1499 202.8C19.2242 201.839 19.6743 200.947 20.4026 200.316C21.1308 199.685 22.0785 199.367 23.04 199.43C23.6 199.43 27.44 199.58 30.04 204.22C30.7739 205.55 31.7468 206.733 32.91 207.71L33.05 207.82C33.6229 208.28 34.3018 208.59 35.0248 208.721C35.7478 208.852 36.4921 208.8 37.19 208.57C37.829 208.369 38.4074 208.012 38.8721 207.529C39.3369 207.047 39.6731 206.456 39.85 205.81L39.92 205.49C40.0111 205.017 39.9984 204.529 39.8827 204.061C39.767 203.594 39.5511 203.156 39.25 202.78C38.9185 202.254 38.4385 201.839 37.8706 201.586C37.3027 201.333 36.6725 201.254 36.06 201.36C35.5639 201.475 35.1115 201.73 34.7568 202.096C34.4021 202.461 34.1602 202.921 34.06 203.42C34.0179 203.672 34.0282 203.93 34.0901 204.177C34.1521 204.425 34.2643 204.658 34.42 204.86C34.5899 205.166 34.8499 205.413 35.1647 205.567C35.4794 205.721 35.8338 205.774 36.18 205.72C36.4306 205.657 36.6581 205.524 36.8353 205.337C37.0126 205.149 37.1322 204.914 37.18 204.66C37.2127 204.436 37.1585 204.207 37.0284 204.021C36.8983 203.835 36.7021 203.706 36.48 203.66C36.2373 203.612 36.0235 203.47 35.8857 203.265C35.7478 203.059 35.6972 202.808 35.745 202.565C35.7927 202.322 35.9349 202.109 36.1402 201.971C36.3456 201.833 36.5973 201.782 36.8399 201.83C37.5549 201.973 38.1845 202.392 38.591 202.998C38.9976 203.603 39.1482 204.344 39.01 205.06C38.8947 205.671 38.6033 206.235 38.1716 206.683C37.7398 207.131 37.1866 207.443 36.58 207.58C35.8949 207.716 35.1848 207.645 34.5401 207.376C33.8955 207.107 33.3455 206.652 32.96 206.07C32.6497 205.661 32.4288 205.192 32.3116 204.692C32.1945 204.193 32.1837 203.674 32.28 203.17C32.4416 202.319 32.8472 201.533 33.4472 200.908C34.0473 200.283 34.816 199.846 35.66 199.65C36.6208 199.463 37.6153 199.563 38.5201 199.936C39.4249 200.31 40.2002 200.94 40.75 201.75C41.2026 202.34 41.5256 203.02 41.6979 203.743C41.8702 204.467 41.888 205.219 41.75 205.95L41.6499 206.39C41.3885 207.329 40.8952 208.188 40.2156 208.887C39.5359 209.585 38.6915 210.102 37.76 210.39C37.1143 210.6 36.439 210.705 35.76 210.7C34.3416 210.679 32.9728 210.174 31.88 209.27ZM21.63 201.72C21.265 202.034 21.0386 202.48 21 202.96C20.9748 203.291 21.08 203.618 21.293 203.872C21.506 204.126 21.81 204.287 22.14 204.32C22.2504 204.325 22.3605 204.307 22.4637 204.267C22.5669 204.228 22.6609 204.167 22.74 204.09C22.8512 204.008 22.936 203.895 22.9839 203.765C23.0319 203.636 23.041 203.495 23.01 203.36C22.9752 203.277 22.9189 203.204 22.8469 203.15C22.7749 203.095 22.6896 203.061 22.6 203.05C22.3548 203.03 22.1278 202.913 21.9685 202.725C21.8092 202.538 21.7306 202.295 21.75 202.05C21.765 201.832 21.8572 201.626 22.01 201.47C21.8752 201.54 21.7479 201.624 21.63 201.72Z" fill="url(#paint19_linear_69_223)"/>
</g>
<defs>
<linearGradient id="paint0_linear_69_223" x1="-313.2" y1="952.31" x2="283.56" y2="-101.31" gradientUnits="userSpaceOnUse">
<stop stop-color="#EEDEBC"/>
<stop offset="0.06" stop-color="#DDC6A3"/>
<stop offset="0.14" stop-color="#C9A885"/>
<stop offset="0.26" stop-color="#9A7A5F"/>
<stop offset="0.36" stop-color="#C9A885"/>
<stop offset="0.49" stop-color="#EEDEBC"/>
<stop offset="0.54" stop-color="#DDC6A3"/>
<stop offset="0.61" stop-color="#C9A885"/>
<stop offset="0.72" stop-color="#9A7A5F"/>
<stop offset="0.84" stop-color="#C9A885"/>
<stop offset="1" stop-color="#EEDEBC"/>
</linearGradient>
<linearGradient id="paint1_linear_69_223" x1="-2499.53" y1="-1.02304e+06" x2="3981.2" y2="-1.02285e+06" gradientUnits="userSpaceOnUse">
<stop stop-color="#EEDEBC"/>
<stop offset="0.06" stop-color="#DDC6A3"/>
<stop offset="0.14" stop-color="#C9A885"/>
<stop offset="0.26" stop-color="#9A7A5F"/>
<stop offset="0.36" stop-color="#C9A885"/>
<stop offset="0.49" stop-color="#EEDEBC"/>
<stop offset="0.54" stop-color="#DDC6A3"/>
<stop offset="0.61" stop-color="#C9A885"/>
<stop offset="0.72" stop-color="#9A7A5F"/>
<stop offset="0.84" stop-color="#C9A885"/>
<stop offset="1" stop-color="#EEDEBC"/>
</linearGradient>
<linearGradient id="paint2_linear_69_223" x1="-164404" y1="-14209.8" x2="-164379" y2="-11134.6" gradientUnits="userSpaceOnUse">
<stop stop-color="#EEDEBC"/>
<stop offset="0.06" stop-color="#DDC6A3"/>
<stop offset="0.14" stop-color="#C9A885"/>
<stop offset="0.26" stop-color="#9A7A5F"/>
<stop offset="0.36" stop-color="#C9A885"/>
<stop offset="0.49" stop-color="#EEDEBC"/>
<stop offset="0.54" stop-color="#DDC6A3"/>
<stop offset="0.61" stop-color="#C9A885"/>
<stop offset="0.72" stop-color="#9A7A5F"/>
<stop offset="0.84" stop-color="#C9A885"/>
<stop offset="1" stop-color="#EEDEBC"/>
</linearGradient>
<linearGradient id="paint3_linear_69_223" x1="-31837.7" y1="-189614" x2="-15358.7" y2="-157801" gradientUnits="userSpaceOnUse">
<stop stop-color="#EEDEBC"/>
<stop offset="0.06" stop-color="#DDC6A3"/>
<stop offset="0.14" stop-color="#C9A885"/>
<stop offset="0.26" stop-color="#9A7A5F"/>
<stop offset="0.36" stop-color="#C9A885"/>
<stop offset="0.49" stop-color="#EEDEBC"/>
<stop offset="0.54" stop-color="#DDC6A3"/>
<stop offset="0.61" stop-color="#C9A885"/>
<stop offset="0.72" stop-color="#9A7A5F"/>
<stop offset="0.84" stop-color="#C9A885"/>
<stop offset="1" stop-color="#EEDEBC"/>
</linearGradient>
<linearGradient id="paint4_linear_69_223" x1="-28492.1" y1="-209907" x2="-8329.04" y2="-178050" gradientUnits="userSpaceOnUse">
<stop stop-color="#EEDEBC"/>
<stop offset="0.06" stop-color="#DDC6A3"/>
<stop offset="0.14" stop-color="#C9A885"/>
<stop offset="0.26" stop-color="#9A7A5F"/>
<stop offset="0.36" stop-color="#C9A885"/>
<stop offset="0.49" stop-color="#EEDEBC"/>
<stop offset="0.54" stop-color="#DDC6A3"/>
<stop offset="0.61" stop-color="#C9A885"/>
<stop offset="0.72" stop-color="#9A7A5F"/>
<stop offset="0.84" stop-color="#C9A885"/>
<stop offset="1" stop-color="#EEDEBC"/>
</linearGradient>
<linearGradient id="paint5_linear_69_223" x1="-37044" y1="-147916" x2="-27466.5" y2="-119742" gradientUnits="userSpaceOnUse">
<stop stop-color="#EEDEBC"/>
<stop offset="0.06" stop-color="#DDC6A3"/>
<stop offset="0.14" stop-color="#C9A885"/>
<stop offset="0.26" stop-color="#9A7A5F"/>
<stop offset="0.36" stop-color="#C9A885"/>
<stop offset="0.49" stop-color="#EEDEBC"/>
<stop offset="0.54" stop-color="#DDC6A3"/>
<stop offset="0.61" stop-color="#C9A885"/>
<stop offset="0.72" stop-color="#9A7A5F"/>
<stop offset="0.84" stop-color="#C9A885"/>
<stop offset="1" stop-color="#EEDEBC"/>
</linearGradient>
<linearGradient id="paint6_linear_69_223" x1="-20657.3" y1="-249934" x2="5876.43" y2="-224099" gradientUnits="userSpaceOnUse">
<stop stop-color="#EEDEBC"/>
<stop offset="0.06" stop-color="#DDC6A3"/>
<stop offset="0.14" stop-color="#C9A885"/>
<stop offset="0.26" stop-color="#9A7A5F"/>
<stop offset="0.36" stop-color="#C9A885"/>
<stop offset="0.49" stop-color="#EEDEBC"/>
<stop offset="0.54" stop-color="#DDC6A3"/>
<stop offset="0.61" stop-color="#C9A885"/>
<stop offset="0.72" stop-color="#9A7A5F"/>
<stop offset="0.84" stop-color="#C9A885"/>
<stop offset="1" stop-color="#EEDEBC"/>
</linearGradient>
<linearGradient id="paint7_linear_69_223" x1="-2644.38" y1="-18292" x2="-961.528" y2="-15320.7" gradientUnits="userSpaceOnUse">
<stop stop-color="#EEDEBC"/>
<stop offset="0.06" stop-color="#DDC6A3"/>
<stop offset="0.14" stop-color="#C9A885"/>
<stop offset="0.26" stop-color="#9A7A5F"/>
<stop offset="0.36" stop-color="#C9A885"/>
<stop offset="0.49" stop-color="#EEDEBC"/>
<stop offset="0.54" stop-color="#DDC6A3"/>
<stop offset="0.61" stop-color="#C9A885"/>
<stop offset="0.72" stop-color="#9A7A5F"/>
<stop offset="0.84" stop-color="#C9A885"/>
<stop offset="1" stop-color="#EEDEBC"/>
</linearGradient>
<linearGradient id="paint8_linear_69_223" x1="-7138.24" y1="-47735.8" x2="-2771.84" y2="-40031.4" gradientUnits="userSpaceOnUse">
<stop stop-color="#EEDEBC"/>
<stop offset="0.06" stop-color="#DDC6A3"/>
<stop offset="0.14" stop-color="#C9A885"/>
<stop offset="0.26" stop-color="#9A7A5F"/>
<stop offset="0.36" stop-color="#C9A885"/>
<stop offset="0.49" stop-color="#EEDEBC"/>
<stop offset="0.54" stop-color="#DDC6A3"/>
<stop offset="0.61" stop-color="#C9A885"/>
<stop offset="0.72" stop-color="#9A7A5F"/>
<stop offset="0.84" stop-color="#C9A885"/>
<stop offset="1" stop-color="#EEDEBC"/>
</linearGradient>
<linearGradient id="paint9_linear_69_223" x1="-2680.11" y1="-18284" x2="-997.291" y2="-15312.8" gradientUnits="userSpaceOnUse">
<stop stop-color="#EEDEBC"/>
<stop offset="0.06" stop-color="#DDC6A3"/>
<stop offset="0.14" stop-color="#C9A885"/>
<stop offset="0.26" stop-color="#9A7A5F"/>
<stop offset="0.36" stop-color="#C9A885"/>
<stop offset="0.49" stop-color="#EEDEBC"/>
<stop offset="0.54" stop-color="#DDC6A3"/>
<stop offset="0.61" stop-color="#C9A885"/>
<stop offset="0.72" stop-color="#9A7A5F"/>
<stop offset="0.84" stop-color="#C9A885"/>
<stop offset="1" stop-color="#EEDEBC"/>
</linearGradient>
<linearGradient id="paint10_linear_69_223" x1="-7225.41" y1="-47653.8" x2="-2865.33" y2="-39953.2" gradientUnits="userSpaceOnUse">
<stop stop-color="#EEDEBC"/>
<stop offset="0.06" stop-color="#DDC6A3"/>
<stop offset="0.14" stop-color="#C9A885"/>
<stop offset="0.26" stop-color="#9A7A5F"/>
<stop offset="0.36" stop-color="#C9A885"/>
<stop offset="0.49" stop-color="#EEDEBC"/>
<stop offset="0.54" stop-color="#DDC6A3"/>
<stop offset="0.61" stop-color="#C9A885"/>
<stop offset="0.72" stop-color="#9A7A5F"/>
<stop offset="0.84" stop-color="#C9A885"/>
<stop offset="1" stop-color="#EEDEBC"/>
</linearGradient>
<linearGradient id="paint11_linear_69_223" x1="-4627.52" y1="-32089" x2="-1691.48" y2="-26905.2" gradientUnits="userSpaceOnUse">
<stop stop-color="#EEDEBC"/>
<stop offset="0.06" stop-color="#DDC6A3"/>
<stop offset="0.14" stop-color="#C9A885"/>
<stop offset="0.26" stop-color="#9A7A5F"/>
<stop offset="0.36" stop-color="#C9A885"/>
<stop offset="0.49" stop-color="#EEDEBC"/>
<stop offset="0.54" stop-color="#DDC6A3"/>
<stop offset="0.61" stop-color="#C9A885"/>
<stop offset="0.72" stop-color="#9A7A5F"/>
<stop offset="0.84" stop-color="#C9A885"/>
<stop offset="1" stop-color="#EEDEBC"/>
</linearGradient>
<linearGradient id="paint12_linear_69_223" x1="-25578" y1="-175115" x2="-9521.56" y2="-147170" gradientUnits="userSpaceOnUse">
<stop stop-color="#EEDEBC"/>
<stop offset="0.06" stop-color="#DDC6A3"/>
<stop offset="0.14" stop-color="#C9A885"/>
<stop offset="0.26" stop-color="#9A7A5F"/>
<stop offset="0.36" stop-color="#C9A885"/>
<stop offset="0.49" stop-color="#EEDEBC"/>
<stop offset="0.54" stop-color="#DDC6A3"/>
<stop offset="0.61" stop-color="#C9A885"/>
<stop offset="0.72" stop-color="#9A7A5F"/>
<stop offset="0.84" stop-color="#C9A885"/>
<stop offset="1" stop-color="#EEDEBC"/>
</linearGradient>
<linearGradient id="paint13_linear_69_223" x1="-23197.5" y1="-151214" x2="-9384.99" y2="-126859" gradientUnits="userSpaceOnUse">
<stop stop-color="#EEDEBC"/>
<stop offset="0.06" stop-color="#DDC6A3"/>
<stop offset="0.14" stop-color="#C9A885"/>
<stop offset="0.26" stop-color="#9A7A5F"/>
<stop offset="0.36" stop-color="#C9A885"/>
<stop offset="0.49" stop-color="#EEDEBC"/>
<stop offset="0.54" stop-color="#DDC6A3"/>
<stop offset="0.61" stop-color="#C9A885"/>
<stop offset="0.72" stop-color="#9A7A5F"/>
<stop offset="0.84" stop-color="#C9A885"/>
<stop offset="1" stop-color="#EEDEBC"/>
</linearGradient>
<linearGradient id="paint14_linear_69_223" x1="-6815.14" y1="-77004.7" x2="1405.09" y2="-68852.5" gradientUnits="userSpaceOnUse">
<stop stop-color="#EEDEBC"/>
<stop offset="0.06" stop-color="#DDC6A3"/>
<stop offset="0.14" stop-color="#C9A885"/>
<stop offset="0.26" stop-color="#9A7A5F"/>
<stop offset="0.36" stop-color="#C9A885"/>
<stop offset="0.49" stop-color="#EEDEBC"/>
<stop offset="0.54" stop-color="#DDC6A3"/>
<stop offset="0.61" stop-color="#C9A885"/>
<stop offset="0.72" stop-color="#9A7A5F"/>
<stop offset="0.84" stop-color="#C9A885"/>
<stop offset="1" stop-color="#EEDEBC"/>
</linearGradient>
<linearGradient id="paint15_linear_69_223" x1="-11552.4" y1="-148149" x2="4104.83" y2="-134479" gradientUnits="userSpaceOnUse">
<stop stop-color="#EEDEBC"/>
<stop offset="0.06" stop-color="#DDC6A3"/>
<stop offset="0.14" stop-color="#C9A885"/>
<stop offset="0.26" stop-color="#9A7A5F"/>
<stop offset="0.36" stop-color="#C9A885"/>
<stop offset="0.49" stop-color="#EEDEBC"/>
<stop offset="0.54" stop-color="#DDC6A3"/>
<stop offset="0.61" stop-color="#C9A885"/>
<stop offset="0.72" stop-color="#9A7A5F"/>
<stop offset="0.84" stop-color="#C9A885"/>
<stop offset="1" stop-color="#EEDEBC"/>
</linearGradient>
<linearGradient id="paint16_linear_69_223" x1="-11640.2" y1="-147621" x2="3978.09" y2="-133921" gradientUnits="userSpaceOnUse">
<stop stop-color="#EEDEBC"/>
<stop offset="0.06" stop-color="#DDC6A3"/>
<stop offset="0.14" stop-color="#C9A885"/>
<stop offset="0.26" stop-color="#9A7A5F"/>
<stop offset="0.36" stop-color="#C9A885"/>
<stop offset="0.49" stop-color="#EEDEBC"/>
<stop offset="0.54" stop-color="#DDC6A3"/>
<stop offset="0.61" stop-color="#C9A885"/>
<stop offset="0.72" stop-color="#9A7A5F"/>
<stop offset="0.84" stop-color="#C9A885"/>
<stop offset="1" stop-color="#EEDEBC"/>
</linearGradient>
<linearGradient id="paint17_linear_69_223" x1="-13170.2" y1="-42850" x2="-10490.7" y2="-34466" gradientUnits="userSpaceOnUse">
<stop stop-color="#EEDEBC"/>
<stop offset="0.06" stop-color="#DDC6A3"/>
<stop offset="0.14" stop-color="#C9A885"/>
<stop offset="0.26" stop-color="#9A7A5F"/>
<stop offset="0.36" stop-color="#C9A885"/>
<stop offset="0.49" stop-color="#EEDEBC"/>
<stop offset="0.54" stop-color="#DDC6A3"/>
<stop offset="0.61" stop-color="#C9A885"/>
<stop offset="0.72" stop-color="#9A7A5F"/>
<stop offset="0.84" stop-color="#C9A885"/>
<stop offset="1" stop-color="#EEDEBC"/>
</linearGradient>
<linearGradient id="paint18_linear_69_223" x1="-25136.1" y1="-72733.3" x2="-21071.6" y2="-58235.3" gradientUnits="userSpaceOnUse">
<stop stop-color="#EEDEBC"/>
<stop offset="0.06" stop-color="#DDC6A3"/>
<stop offset="0.14" stop-color="#C9A885"/>
<stop offset="0.26" stop-color="#9A7A5F"/>
<stop offset="0.36" stop-color="#C9A885"/>
<stop offset="0.49" stop-color="#EEDEBC"/>
<stop offset="0.54" stop-color="#DDC6A3"/>
<stop offset="0.61" stop-color="#C9A885"/>
<stop offset="0.72" stop-color="#9A7A5F"/>
<stop offset="0.84" stop-color="#C9A885"/>
<stop offset="1" stop-color="#EEDEBC"/>
</linearGradient>
<linearGradient id="paint19_linear_69_223" x1="-25066" y1="-73011.4" x2="-20973.8" y2="-58468" gradientUnits="userSpaceOnUse">
<stop stop-color="#EEDEBC"/>
<stop offset="0.06" stop-color="#DDC6A3"/>
<stop offset="0.14" stop-color="#C9A885"/>
<stop offset="0.26" stop-color="#9A7A5F"/>
<stop offset="0.36" stop-color="#C9A885"/>
<stop offset="0.49" stop-color="#EEDEBC"/>
<stop offset="0.54" stop-color="#DDC6A3"/>
<stop offset="0.61" stop-color="#C9A885"/>
<stop offset="0.72" stop-color="#9A7A5F"/>
<stop offset="0.84" stop-color="#C9A885"/>
<stop offset="1" stop-color="#EEDEBC"/>
</linearGradient>
<clipPath id="clip0_69_223">
<rect width="212.54" height="212.54" fill="white" transform="translate(212.54) rotate(90)"/>
</clipPath>
</defs>
</svg>
