<svg width="210" height="210" viewBox="0 0 210 210" fill="none" xmlns="http://www.w3.org/2000/svg">
<g clip-path="url(#clip0_11_311)">
<path d="M19.3 166.38L19.53 165.7L19.3 166.38C17.4883 165.761 15.7968 164.834 14.3 163.64C11.8789 161.729 10.0028 159.215 8.85999 156.35L8.85999 156.28C7.65976 153.196 7.07214 149.908 7.12999 146.6C7.29532 140.716 8.40967 134.898 10.43 129.37C11.9765 124.928 13.7966 120.587 15.88 116.37C26.36 94.95 30.05 70.46 30.05 54.44C30.1707 49.8559 29.7239 45.2744 28.72 40.7999C28.1407 38.6771 27.4191 36.5957 26.56 34.5699C26.26 33.8599 26 33.3199 25.82 32.9499L25.61 32.5499L25.56 32.44C25.4583 32.2597 25.4033 32.0569 25.4 31.8499C25.4068 31.6448 25.4666 31.4449 25.5734 31.2697C25.6803 31.0945 25.8307 30.9499 26.01 30.8499C26.1878 30.7424 26.3922 30.687 26.6 30.69C26.8039 30.6967 27.0028 30.7553 27.1778 30.8603C27.3528 30.9653 27.4981 31.1131 27.6 31.2899C29.0723 34.1297 30.2132 37.1294 31 40.2299C32.0571 44.8966 32.5307 49.6765 32.41 54.4599C32.3259 64.2046 31.2876 73.9176 29.31 83.4599C26.9887 95.2447 23.1956 106.691 18.02 117.53C15.9753 121.604 14.1884 125.802 12.67 130.1C10.7331 135.376 9.66256 140.932 9.49999 146.55C9.44354 149.53 9.95954 152.494 11.02 155.28C11.4988 155.866 12.1085 156.332 12.8 156.64C14.2483 157.316 15.7726 157.817 17.34 158.13C18.89 158.48 20.34 158.68 21.07 158.78C21.9278 158.887 22.7277 159.27 23.35 159.87C23.7318 160.23 24.036 160.663 24.2441 161.145C24.4522 161.626 24.5597 162.145 24.56 162.67C24.5549 162.881 24.5348 163.092 24.5 163.3L24.5 163.37L24.5 163.44C24.3007 164.324 23.8073 165.114 23.1007 165.68C22.394 166.247 21.5159 166.557 20.61 166.56C20.1665 166.571 19.724 166.51 19.3 166.38Z" fill="#E3D6A5"/>
<path d="M30.27 26.7599C30.0932 26.658 29.9453 26.5127 29.8404 26.3377C29.7354 26.1627 29.6767 25.9638 29.67 25.7599C29.6686 25.5523 29.724 25.3484 29.83 25.1699C29.9892 24.8969 30.2488 24.697 30.5534 24.6129C30.858 24.5288 31.1834 24.5672 31.46 24.7199C31.46 24.7199 31.64 24.82 32.01 25C34.5251 26.2138 37.1504 27.1849 39.85 27.8999C44.3246 28.9032 48.9059 29.35 53.49 29.2299C69.49 29.2299 94 25.5399 115.42 15.0699C119.637 12.9853 123.979 11.1619 128.42 9.60995C133.947 7.58758 139.766 6.47641 145.65 6.31991C148.958 6.25913 152.246 6.84338 155.33 8.03994L155.39 8.03994C158.256 9.18576 160.773 11.0611 162.69 13.4799C163.878 14.9792 164.801 16.6701 165.42 18.4799L164.74 18.7099L165.42 18.4799C165.567 18.8942 165.641 19.3305 165.64 19.7699C165.639 20.6789 165.329 21.5605 164.76 22.2694C164.191 22.9783 163.397 23.4722 162.51 23.67C161.867 23.7931 161.204 23.7533 160.58 23.5542C159.956 23.355 159.393 23.0029 158.94 22.5299C158.34 21.9077 157.957 21.1078 157.85 20.25C157.646 18.4547 157.312 16.6767 156.85 14.93C156.58 13.8972 156.211 12.8926 155.75 11.93C155.442 11.2384 154.976 10.6287 154.39 10.1499C151.608 9.08954 148.647 8.57356 145.67 8.62997C140.048 8.79252 134.49 9.86298 129.21 11.8C124.856 13.3128 120.601 15.0962 116.47 17.1399C105.634 22.3141 94.1911 26.1071 82.41 28.4299C72.8676 30.407 63.1547 31.4452 53.41 31.5299C48.6264 31.6551 43.846 31.1815 39.18 30.1199C36.0915 29.3437 33.102 28.2163 30.27 26.7599Z" fill="#E3D6A5"/>
<path d="M58 31.19C57.5219 30.9329 57.0921 30.5945 56.73 30.19C55.8568 29.2143 55.3604 27.959 55.33 26.65C55.2852 26.0432 55.3935 25.435 55.6451 24.881C55.8968 24.3271 56.2836 23.8454 56.77 23.48C57.0781 23.3244 57.4156 23.2359 57.7604 23.2204C58.1051 23.2049 58.4492 23.2627 58.77 23.39C59.2061 23.6016 59.5583 23.9539 59.77 24.39C60.2 25.2 59.85 25.86 60.02 26.66C60.61 29.4 62.48 27.95 63.02 27.04C63.3271 26.3883 63.4614 25.6685 63.41 24.95C63.11 17.7 55.09 19.86 51.35 21.44C47.61 23.02 44.03 25.68 39.99 26.74C37.9 27.29 35.04 27.16 33.34 25.39L34.04 24.8C34.31 24.69 34.58 24.57 34.85 24.45C36.2646 24.807 37.7347 24.8885 39.18 24.69C42.18 24.38 44.97 22.99 47.66 21.69C49.9239 20.5068 52.303 19.5585 54.76 18.86C56.9 18.3 59.5 17.63 61.76 18.43C63.4776 19.1494 64.8676 20.4797 65.6618 22.164C66.4559 23.8483 66.5978 25.7672 66.06 27.55C64.91 30.9 61.28 32.96 58 31.19Z" fill="#E3D6A5"/>
<path d="M50.79 20.94C50.6 21.03 50.4 21.11 50.22 21.2L50.79 20.94Z" fill="#E3D6A5"/>
<path d="M30.19 0.559997C31.3299 0.231635 32.534 0.194139 33.6922 0.450927C34.8503 0.707716 35.9257 1.25057 36.82 2.02997C38.66 3.72997 39.43 6.92997 38.11 8.90997C37.7567 9.37386 37.289 9.73812 36.7528 9.96716C36.2165 10.1962 35.63 10.2822 35.0506 10.2167C34.4711 10.1512 33.9186 9.93648 33.447 9.59351C32.9754 9.25054 32.6009 8.79101 32.36 8.25995C31.8 6.94995 32 5.34 31.18 4.19C30.8401 3.74083 30.3673 3.41015 29.8287 3.24499C29.2902 3.07984 28.7133 3.08857 28.18 3.26996C27.1601 3.6949 26.3142 4.45275 25.78 5.41998C21.27 12.6 26.78 22.42 34.36 23.94C41.29 25.31 46.8 20.38 51.59 15.35C54.12 12.69 55.33 6.62998 50.93 4.59998C50.5 4.39998 49.93 4.11998 49.99 3.59998C50.0105 3.42363 50.0877 3.25873 50.21 3.13001C50.6206 2.63616 51.141 2.24513 51.7296 1.98816C52.3182 1.73119 52.9587 1.61536 53.6 1.64997C55.3821 1.74194 57.064 2.50254 58.31 3.77997C58.87 4.34997 59.52 6.37997 60.09 6.64997C60.66 6.91997 62.96 5.47 63.56 5.18C69.31 2.4 75.44 -1.45005 82.22 0.509955C83.68 0.929955 82.96 2.30001 82.14 2.88001C80.45 4.08001 79.14 5.92997 77.38 6.95997C77.65 7.64997 78.29 8.25996 78.58 9.01996C78.9073 9.89114 79.0503 10.8208 79 11.75C78.9642 13.1839 78.4276 14.5599 77.4832 15.6395C76.5389 16.719 75.2464 17.4338 73.83 17.66C73.39 17.74 73.07 17.17 73.34 16.72C74.97 14.01 71.34 12.26 69.78 12.14C67.9671 12.0525 66.1504 12.1869 64.37 12.54C60.954 13.2222 57.7776 14.7914 55.16 17.09C50.75 21.63 45.63 25.58 39.64 27.09C35.21 28.19 29.99 27.3799 26.48 23.7599C25.1231 22.3244 24.0809 20.6214 23.42 18.7599C23.0811 17.853 22.8169 16.9199 22.63 15.97C21.37 9.42997 24.45 2.09999 30.19 0.559997Z" fill="#E3D6A5"/>
<path d="M31.18 56.8399C30.9229 56.3618 30.5845 55.932 30.18 55.5699C29.2033 54.6996 27.9479 54.2067 26.64 54.1799C26.0331 54.1332 25.4242 54.2407 24.8699 54.4925C24.3157 54.7443 23.8342 55.1321 23.47 55.6199C23.3145 55.928 23.226 56.2655 23.2105 56.6102C23.1949 56.955 23.2527 57.2992 23.38 57.6199C23.596 58.0529 23.947 58.4039 24.38 58.6199C25.18 59.0399 25.85 58.6999 26.64 58.8699C29.38 59.4599 27.93 61.3299 27.02 61.8699C26.3731 62.1806 25.6556 62.3151 24.94 62.2599C17.68 61.9699 19.84 53.9499 21.42 50.1999C23 46.4499 25.66 42.8799 26.72 38.8499C27.27 36.7499 27.14 33.8499 25.37 32.1999L24.79 32.8999C24.68 33.1699 24.55 33.4399 24.43 33.6999C24.7874 35.1178 24.8689 36.5912 24.67 38.0399C24.37 41.0399 22.97 43.8299 21.67 46.5199C20.4819 48.7827 19.5302 51.162 18.83 53.6199C18.27 55.7599 17.6 58.3599 18.4 60.6199C19.1231 62.3346 20.4539 63.7218 22.137 64.5154C23.8202 65.309 25.7372 65.4531 27.52 64.9199C30.9 63.7599 32.96 60.0999 31.18 56.8399Z" fill="#E3D6A5"/>
<path d="M20.94 49.63L21.19 49.06L20.94 49.63Z" fill="#E3D6A5"/>
<path d="M0.579987 29.0299C0.251691 30.1714 0.214211 31.377 0.470962 32.5367C0.727713 33.6965 1.27054 34.7736 2.04999 35.6699C3.74999 37.5099 6.94999 38.2699 8.92999 36.9499C9.39388 36.5965 9.75814 36.1289 9.98718 35.5926C10.2162 35.0564 10.3022 34.4699 10.2367 33.8904C10.1712 33.311 9.95645 32.7585 9.61348 32.2869C9.27051 31.8153 8.81104 31.4407 8.27998 31.1999C6.96998 30.6499 5.35999 30.8499 4.21999 30.0199C3.7696 29.6809 3.43804 29.2082 3.27278 28.6693C3.10752 28.1304 3.11704 27.553 3.29999 27.0199C3.72156 26.0035 4.4762 25.1608 5.43999 24.6299C12.62 20.1199 22.44 25.6299 23.96 33.2099C25.33 40.1299 20.41 45.6399 15.37 50.4299C12.71 52.9699 6.64998 54.1699 4.61998 49.7699C4.41998 49.3499 4.13998 48.7699 3.61998 48.8299C3.44561 48.8571 3.28261 48.9335 3.14999 49.0499C2.65596 49.4626 2.26495 49.9847 2.00804 50.5749C1.75112 51.1651 1.63537 51.8071 1.66998 52.4499C1.76416 54.2306 2.52869 55.9097 3.80998 57.1499C4.37998 57.7099 6.39998 58.3699 6.66998 58.9399C6.93998 59.5099 5.48998 61.8099 5.19998 62.4099C2.42998 68.1599 -1.42002 74.2899 0.57998 81.0999C1.00998 82.5599 2.36997 81.8399 2.94997 81.0199C4.14998 79.3199 5.99998 78.0199 7.02998 76.2599C7.71998 76.5299 8.32997 77.1599 9.08997 77.4499C9.95993 77.7817 10.8905 77.9249 11.82 77.8699C13.2524 77.8345 14.6273 77.2993 15.7066 76.357C16.786 75.4146 17.5017 74.1244 17.73 72.7099C17.81 72.2599 17.24 71.9399 16.79 72.2099C14.08 73.8499 12.33 70.2099 12.21 68.6499C12.1272 66.8404 12.2615 65.0275 12.61 63.2499C13.2924 59.8309 14.8614 56.6513 17.16 54.0299C21.7 49.6199 25.65 44.5099 27.16 38.5099C28.26 34.0799 27.45 28.8599 23.83 25.3599C22.3915 24.0045 20.6896 22.9595 18.83 22.2899C17.9205 21.9509 16.9838 21.69 16.03 21.5099C9.42 20.2099 2.06999 23.2999 0.579987 29.0299Z" fill="#E3D6A5"/>
<path d="M47.64 31.37C45.52 34.96 39.24 34.37 34.64 33.37C34.09 33.25 33.56 33.12 33.08 33C33.27 33.46 33.46 33.9999 33.63 34.4799C35.18 38.8999 36.51 45.07 33.21 47.61C39.05 48.52 40.41 43.0899 36.13 35.6999C44.01 39.0999 49.24 37.1 47.64 31.37Z" fill="#E3D6A5"/>
<path d="M23.02 208.65L23.02 56.21C23.02 56.0366 23.0541 55.865 23.1205 55.7048C23.1868 55.5447 23.2841 55.3992 23.4066 55.2766C23.5292 55.154 23.6747 55.0568 23.8349 54.9905C23.995 54.9241 24.1667 54.89 24.34 54.89C24.5134 54.89 24.685 54.9241 24.8451 54.9905C25.0053 55.0568 25.1508 55.154 25.2734 55.2766C25.396 55.3992 25.4932 55.5447 25.5595 55.7048C25.6259 55.865 25.66 56.0366 25.66 56.21L25.66 208.65C25.66 209 25.5209 209.336 25.2734 209.583C25.0258 209.831 24.6901 209.97 24.34 209.97C23.9899 209.97 23.6542 209.831 23.4066 209.583C23.1591 209.336 23.02 209 23.02 208.65Z" fill="#E3D6A5"/>
<path d="M56.73 24.65C56.73 24.2999 56.8691 23.9642 57.1166 23.7166C57.3642 23.4691 57.6999 23.33 58.05 23.33L208.23 23.33C208.58 23.33 208.916 23.4691 209.163 23.7166C209.411 23.9642 209.55 24.2999 209.55 24.65C209.55 25.0001 209.411 25.3358 209.163 25.5834C208.916 25.8309 208.58 25.97 208.23 25.97L58.05 25.97C57.8767 25.97 57.705 25.9358 57.5449 25.8695C57.3847 25.8032 57.2392 25.7059 57.1166 25.5834C56.9941 25.4608 56.8968 25.3152 56.8305 25.1551C56.7642 24.9949 56.73 24.8233 56.73 24.65Z" fill="#E3D6A5"/>
<path d="M6.85002 30.86C10.2214 30.8616 13.5583 30.1813 16.66 28.86C21.1932 26.9166 25.0734 23.7132 27.84 19.63C30.6776 15.4719 32.1937 10.554 32.19 5.51996L32.19 5.32996C32.2363 4.49267 32.6015 3.70491 33.2106 3.12854C33.8197 2.55218 34.6265 2.23102 35.465 2.23102C36.3036 2.23102 37.1103 2.55218 37.7194 3.12854C38.3285 3.70491 38.6937 4.49267 38.74 5.32996L38.74 5.53998C38.7427 9.79206 37.8819 14.0004 36.21 17.91C33.7727 23.5878 29.7571 28.4468 24.64 31.91C19.3928 35.4762 13.1944 37.3821 6.85002 37.38C6.4206 37.38 5.99538 37.2954 5.59865 37.131C5.20191 36.9667 4.84143 36.7259 4.53778 36.4222C4.23413 36.1186 3.99327 35.7581 3.82893 35.3613C3.6646 34.9646 3.58002 34.5394 3.58002 34.11C3.58002 33.6806 3.6646 33.2553 3.82893 32.8586C3.99327 32.4618 4.23413 32.1014 4.53778 31.7977C4.84143 31.4941 5.20191 31.2532 5.59865 31.0889C5.99538 30.9245 6.4206 30.84 6.85002 30.84L6.85002 30.86Z" fill="#E3D6A5"/>
<path d="M16.7701 20.24C17.7645 20.2379 18.7274 19.8912 19.495 19.259C20.2626 18.6268 20.7873 17.7481 20.9798 16.7725C21.1723 15.7969 21.0208 14.7847 20.551 13.9083C20.0811 13.0319 19.3221 12.3454 18.403 11.9657C17.4839 11.586 16.4617 11.5367 15.5103 11.826C14.5589 12.1152 13.7371 12.7253 13.185 13.5523C12.6328 14.3794 12.3844 15.3722 12.4819 16.3618C12.5795 17.3515 13.017 18.2767 13.7201 18.9799C14.1198 19.3814 14.5952 19.6994 15.1187 19.9157C15.6423 20.132 16.2036 20.2422 16.7701 20.24ZM16.7701 17.61C16.3837 17.6104 16.0091 17.4768 15.7102 17.232C15.4113 16.9871 15.2065 16.6462 15.1307 16.2673C15.055 15.8884 15.1129 15.495 15.2948 15.1541C15.4766 14.8131 15.771 14.5458 16.1279 14.3976C16.4847 14.2494 16.8819 14.2296 17.2517 14.3415C17.6216 14.4533 17.9412 14.6899 18.1561 15.011C18.371 15.3321 18.468 15.7178 18.4304 16.1023C18.3928 16.4869 18.2231 16.8465 17.95 17.12C17.636 17.4314 17.2124 17.6073 16.7701 17.61Z" fill="#E3D6A5"/>
</g>
<defs>
<clipPath id="clip0_11_311">
<rect width="209.96" height="209.55" fill="white" transform="translate(0 209.96) rotate(-90)"/>
</clipPath>
</defs>
</svg>
