<svg width="210" height="210" viewBox="0 0 210 210" fill="none" xmlns="http://www.w3.org/2000/svg">
<g clip-path="url(#clip0_11_263)">
<path d="M43.5799 19.3L44.26 19.53L43.5799 19.3C44.1992 17.4883 45.1261 15.7968 46.32 14.3C48.231 11.8789 50.745 10.0028 53.61 8.85999H53.68C56.7636 7.65976 60.0515 7.07214 63.36 7.12999C69.2435 7.29531 75.0617 8.40966 80.5899 10.43C85.0317 11.9765 89.3733 13.7966 93.5899 15.88C115.01 26.36 139.5 30.05 155.52 30.05C160.104 30.1706 164.686 29.7239 169.16 28.72C171.283 28.1407 173.364 27.4191 175.39 26.56C176.1 26.26 176.64 26 177.01 25.82L177.41 25.61L177.52 25.56C177.7 25.4583 177.903 25.4033 178.11 25.4C178.315 25.4068 178.515 25.4665 178.69 25.5734C178.865 25.6803 179.01 25.8307 179.11 26.01C179.217 26.1878 179.273 26.3922 179.27 26.6C179.263 26.8039 179.205 27.0028 179.1 27.1778C178.995 27.3527 178.847 27.4981 178.67 27.6C175.83 29.0723 172.83 30.2131 169.73 31C165.063 32.0571 160.283 32.5307 155.5 32.41C145.755 32.3259 136.042 31.2876 126.5 29.31C114.715 26.9887 103.269 23.1956 92.43 18.02C88.3561 15.9753 84.1578 14.1884 79.86 12.67C74.5835 10.7331 69.0284 9.66256 63.41 9.49998C60.4295 9.44353 57.4659 9.95953 54.68 11.02C54.0937 11.4988 53.6279 12.1085 53.32 12.8C52.6437 14.2483 52.1434 15.7726 51.8299 17.34C51.4799 18.89 51.28 20.34 51.18 21.07C51.0726 21.9278 50.6901 22.7277 50.0899 23.35C49.7303 23.7318 49.2964 24.036 48.8149 24.2441C48.3334 24.4522 47.8145 24.5597 47.29 24.56C47.0788 24.5549 46.8683 24.5348 46.66 24.5H46.5899H46.5199C45.6362 24.3007 44.8464 23.8073 44.2796 23.1007C43.7128 22.394 43.4027 21.5159 43.3999 20.61C43.3887 20.1665 43.4495 19.724 43.5799 19.3Z" fill="#E3D6A5"/>
<path d="M183.2 30.27C183.302 30.0932 183.447 29.9453 183.622 29.8403C183.797 29.7353 183.996 29.6767 184.2 29.6699C184.408 29.6686 184.612 29.7239 184.79 29.83C185.063 29.9891 185.263 30.2487 185.347 30.5533C185.431 30.8579 185.393 31.1833 185.24 31.46C185.24 31.46 185.14 31.6399 184.96 32.0099C183.746 34.5251 182.775 37.1503 182.06 39.8499C181.057 44.3245 180.61 48.9059 180.73 53.49C180.73 69.49 184.42 93.9999 194.89 115.42C196.975 119.637 198.798 123.979 200.35 128.42C202.372 133.947 203.484 139.766 203.64 145.65C203.701 148.958 203.117 152.246 201.92 155.33V155.39C200.774 158.256 198.899 160.773 196.48 162.69C194.981 163.878 193.29 164.801 191.48 165.42L191.25 164.74L191.48 165.42C191.066 165.567 190.629 165.641 190.19 165.64C189.281 165.639 188.399 165.328 187.691 164.76C186.982 164.191 186.488 163.397 186.29 162.51C186.167 161.867 186.207 161.203 186.406 160.58C186.605 159.956 186.957 159.392 187.43 158.94C188.052 158.34 188.852 157.957 189.71 157.85C191.505 157.646 193.283 157.312 195.03 156.85C196.063 156.58 197.067 156.211 198.03 155.75C198.721 155.442 199.331 154.976 199.81 154.39C200.87 151.607 201.386 148.647 201.33 145.67C201.167 140.048 200.097 134.49 198.16 129.21C196.647 124.856 194.864 120.601 192.82 116.47C187.646 105.634 183.853 94.1911 181.53 82.4099C179.553 72.8676 178.515 63.1546 178.43 53.4099C178.305 48.6264 178.778 43.8459 179.84 39.18C180.616 36.0915 181.744 33.102 183.2 30.27Z" fill="#E3D6A5"/>
<path d="M178.77 58C179.027 57.5218 179.365 57.0921 179.77 56.7299C180.746 55.8568 182.001 55.3604 183.31 55.33C183.917 55.2851 184.525 55.3935 185.079 55.6451C185.633 55.8967 186.115 56.2835 186.48 56.77C186.636 57.078 186.724 57.4156 186.74 57.7603C186.755 58.1051 186.697 58.4492 186.57 58.77C186.358 59.2061 186.006 59.5583 185.57 59.77C184.76 60.2 184.1 59.85 183.3 60.02C180.56 60.61 182.01 62.48 182.92 63.02C183.572 63.3271 184.291 63.4613 185.01 63.4099C192.26 63.1099 190.1 55.0899 188.52 51.3499C186.94 47.6099 184.28 44.03 183.22 39.99C182.67 37.9 182.8 35.04 184.57 33.34L185.16 34.0399C185.27 34.3099 185.39 34.5799 185.51 34.8499C185.153 36.2645 185.071 37.7346 185.27 39.18C185.58 42.18 186.97 44.9699 188.27 47.6599C189.453 49.9238 190.401 52.3029 191.1 54.7599C191.66 56.8999 192.33 59.4999 191.53 61.7599C190.811 63.4775 189.48 64.8676 187.796 65.6617C186.112 66.4559 184.193 66.5978 182.41 66.06C179.06 64.91 177 61.28 178.77 58Z" fill="#E3D6A5"/>
<path d="M189.02 50.7899C188.93 50.5999 188.85 50.4 188.76 50.22L189.02 50.7899Z" fill="#E3D6A5"/>
<path d="M209.4 30.1899C209.728 31.3299 209.766 32.5339 209.509 33.6921C209.252 34.8503 208.709 35.9256 207.93 36.8199C206.23 38.6599 203.03 39.43 201.05 38.11C200.586 37.7566 200.222 37.289 199.993 36.7527C199.764 36.2165 199.678 35.6299 199.743 35.0505C199.809 34.4711 200.023 33.9186 200.366 33.447C200.709 32.9754 201.169 32.6008 201.7 32.36C203.01 31.8 204.62 32 205.77 31.18C206.219 30.84 206.55 30.3672 206.715 29.8287C206.88 29.2901 206.871 28.7133 206.69 28.18C206.265 27.16 205.507 26.3141 204.54 25.78C197.36 21.27 187.54 26.78 186.02 34.36C184.65 41.29 189.58 46.8 194.61 51.59C197.27 54.12 203.33 55.33 205.36 50.93C205.56 50.5 205.84 49.93 206.36 49.99C206.536 50.0105 206.701 50.0877 206.83 50.21C207.324 50.6206 207.715 51.1409 207.972 51.7295C208.229 52.3181 208.345 52.9586 208.31 53.5999C208.218 55.382 207.457 57.064 206.18 58.31C205.61 58.87 203.58 59.52 203.31 60.09C203.04 60.66 204.49 62.96 204.78 63.56C207.56 69.31 211.41 75.44 209.45 82.22C209.03 83.68 207.66 82.96 207.08 82.14C205.88 80.45 204.03 79.1399 203 77.3799C202.31 77.6499 201.7 78.29 200.94 78.58C200.069 78.9072 199.139 79.0502 198.21 79C196.776 78.9642 195.4 78.4275 194.32 77.4832C193.241 76.5388 192.526 75.2463 192.3 73.83C192.22 73.39 192.79 73.07 193.24 73.34C195.95 74.97 197.7 71.34 197.82 69.78C197.907 67.9671 197.773 66.1503 197.42 64.37C196.738 60.9539 195.169 57.7775 192.87 55.1599C188.33 50.7499 184.38 45.63 182.87 39.64C181.77 35.21 182.58 29.9899 186.2 26.4799C187.636 25.1231 189.339 24.0808 191.2 23.42C192.107 23.0811 193.04 22.8168 193.99 22.6299C200.53 21.3699 207.86 24.4499 209.4 30.1899Z" fill="#E3D6A5"/>
<path d="M153.12 31.18C153.598 30.9229 154.028 30.5845 154.39 30.18C155.26 29.2033 155.753 27.9479 155.78 26.64C155.827 26.0331 155.719 25.4242 155.467 24.8699C155.216 24.3157 154.828 23.8342 154.34 23.47C154.032 23.3145 153.694 23.226 153.35 23.2105C153.005 23.1949 152.661 23.2527 152.34 23.38C151.907 23.596 151.556 23.947 151.34 24.38C150.92 25.18 151.26 25.85 151.09 26.64C150.5 29.38 148.63 27.93 148.09 27.02C147.779 26.3731 147.645 25.6556 147.7 24.94C147.99 17.68 156.01 19.84 159.76 21.42C163.51 23 167.08 25.66 171.11 26.72C173.21 27.27 176.11 27.14 177.76 25.37L177.06 24.79C176.79 24.68 176.52 24.55 176.26 24.43C174.842 24.7874 173.369 24.8689 171.92 24.67C168.92 24.37 166.13 22.97 163.44 21.67C161.177 20.4819 158.798 19.5302 156.34 18.83C154.2 18.27 151.6 17.6 149.34 18.4C147.625 19.1231 146.238 20.4539 145.444 22.137C144.651 23.8202 144.507 25.7372 145.04 27.52C146.2 30.9 149.86 32.96 153.12 31.18Z" fill="#E3D6A5"/>
<path d="M160.33 20.9399L160.9 21.1899L160.33 20.9399Z" fill="#E3D6A5"/>
<path d="M180.93 0.57998C179.788 0.251684 178.583 0.214205 177.423 0.470956C176.263 0.727706 175.186 1.27053 174.29 2.04998C172.45 3.74998 171.69 6.94999 173.01 8.92999C173.363 9.39387 173.831 9.75814 174.367 9.98718C174.904 10.2162 175.49 10.3022 176.069 10.2367C176.649 10.1712 177.201 9.95644 177.673 9.61347C178.145 9.2705 178.519 8.81103 178.76 8.27998C179.31 6.96998 179.11 5.35998 179.94 4.21998C180.279 3.7696 180.752 3.43804 181.291 3.27277C181.83 3.10751 182.407 3.11703 182.94 3.29998C183.956 3.72155 184.799 4.47619 185.33 5.43998C189.84 12.62 184.33 22.44 176.75 23.96C169.83 25.33 164.32 20.41 159.53 15.37C156.99 12.71 155.79 6.64997 160.19 4.61997C160.61 4.41997 161.19 4.13997 161.13 3.61997C161.103 3.44561 161.026 3.28261 160.91 3.14999C160.497 2.65595 159.975 2.26495 159.385 2.00803C158.795 1.75112 158.153 1.63536 157.51 1.66998C155.729 1.76416 154.05 2.52868 152.81 3.80998C152.25 4.37998 151.59 6.39998 151.02 6.66998C150.45 6.93998 148.15 5.48997 147.55 5.19997C141.8 2.42997 135.67 -1.42002 128.86 0.57998C127.4 1.00998 128.12 2.36997 128.94 2.94997C130.64 4.14997 131.94 5.99998 133.7 7.02998C133.43 7.71998 132.8 8.32997 132.51 9.08997C132.178 9.95993 132.035 10.8905 132.09 11.82C132.125 13.2524 132.661 14.6273 133.603 15.7066C134.545 16.786 135.835 17.5017 137.25 17.73C137.7 17.81 138.02 17.24 137.75 16.79C136.11 14.08 139.75 12.33 141.31 12.21C143.12 12.1272 144.932 12.2615 146.71 12.61C150.129 13.2924 153.309 14.8614 155.93 17.16C160.34 21.7 165.45 25.65 171.45 27.16C175.88 28.26 181.1 27.45 184.6 23.83C185.955 22.3915 187 20.6895 187.67 18.83C188.009 17.9205 188.27 16.9838 188.45 16.03C189.75 9.41999 186.66 2.06998 180.93 0.57998Z" fill="#E3D6A5"/>
<path d="M178.59 47.64C175 45.52 175.59 39.24 176.59 34.64C176.71 34.09 176.84 33.56 176.96 33.08C176.5 33.27 175.96 33.4599 175.48 33.6299C171.06 35.1799 164.89 36.51 162.35 33.21C161.44 39.05 166.87 40.4099 174.26 36.1299C170.86 44.0099 172.86 49.24 178.59 47.64Z" fill="#E3D6A5"/>
<path d="M1.31 23.02H153.75C153.923 23.02 154.095 23.0541 154.255 23.1205C154.415 23.1868 154.561 23.2841 154.683 23.4066C154.806 23.5292 154.903 23.6747 154.969 23.8349C155.036 23.995 155.07 24.1667 155.07 24.34C155.07 24.5134 155.036 24.685 154.969 24.8452C154.903 25.0053 154.806 25.1508 154.683 25.2734C154.561 25.396 154.415 25.4932 154.255 25.5595C154.095 25.6259 153.923 25.66 153.75 25.66H1.31C0.959912 25.66 0.624135 25.521 0.376587 25.2734C0.129039 25.0259 -0.0100098 24.6901 -0.0100098 24.34C-0.0100098 23.9899 0.129039 23.6542 0.376587 23.4066C0.624135 23.1591 0.959912 23.02 1.31 23.02Z" fill="#E3D6A5"/>
<path d="M185.31 56.73C185.66 56.73 185.996 56.8691 186.243 57.1166C186.491 57.3642 186.63 57.6999 186.63 58.05V208.23C186.63 208.58 186.491 208.916 186.243 209.163C185.996 209.411 185.66 209.55 185.31 209.55C184.96 209.55 184.624 209.411 184.377 209.163C184.129 208.916 183.99 208.58 183.99 208.23V58.05C183.99 57.8766 184.024 57.705 184.09 57.5448C184.157 57.3847 184.254 57.2392 184.377 57.1166C184.499 56.994 184.645 56.8968 184.805 56.8305C184.965 56.7641 185.137 56.73 185.31 56.73Z" fill="#E3D6A5"/>
<path d="M179.1 6.84996C179.098 10.2214 179.779 13.5583 181.1 16.6599C183.043 21.1931 186.247 25.0734 190.33 27.84C194.488 30.6775 199.406 32.1936 204.44 32.1899H204.63C205.467 32.2362 206.255 32.6015 206.831 33.2106C207.408 33.8197 207.729 34.6264 207.729 35.465C207.729 36.3035 207.408 37.1103 206.831 37.7194C206.255 38.3285 205.467 38.6937 204.63 38.74H204.42C200.168 38.7426 195.96 37.8819 192.05 36.21C186.372 33.7727 181.513 29.757 178.05 24.64C174.484 19.3927 172.578 13.1943 172.58 6.84996C172.58 6.42054 172.665 5.99532 172.829 5.59859C172.993 5.20185 173.234 4.84137 173.538 4.53772C173.841 4.23407 174.202 3.99321 174.599 3.82887C174.995 3.66454 175.421 3.57996 175.85 3.57996C176.279 3.57996 176.705 3.66454 177.101 3.82887C177.498 3.99321 177.859 4.23407 178.162 4.53772C178.466 4.84137 178.707 5.20185 178.871 5.59859C179.035 5.99532 179.12 6.42054 179.12 6.84996H179.1Z" fill="#E3D6A5"/>
<path d="M189.72 16.7701C189.722 17.7645 190.069 18.7274 190.701 19.495C191.333 20.2626 192.212 20.7873 193.187 20.9798C194.163 21.1723 195.175 21.0208 196.052 20.551C196.928 20.0811 197.614 19.3221 197.994 18.403C198.374 17.4839 198.423 16.4617 198.134 15.5103C197.845 14.5589 197.235 13.7371 196.408 13.185C195.581 12.6328 194.588 12.3844 193.598 12.4819C192.608 12.5795 191.683 13.017 190.98 13.7201C190.579 14.1198 190.26 14.5952 190.044 15.1187C189.828 15.6423 189.718 16.2036 189.72 16.7701ZM192.35 16.7701C192.35 16.3837 192.483 16.0091 192.728 15.7102C192.973 15.4112 193.314 15.2065 193.693 15.1307C194.071 15.055 194.465 15.1129 194.806 15.2948C195.147 15.4766 195.414 15.771 195.562 16.1279C195.71 16.4847 195.73 16.8819 195.618 17.2517C195.507 17.6216 195.27 17.9412 194.949 18.1561C194.628 18.371 194.242 18.468 193.858 18.4304C193.473 18.3928 193.113 18.2231 192.84 17.95C192.528 17.636 192.353 17.2124 192.35 16.7701Z" fill="#E3D6A5"/>
</g>
<defs>
<clipPath id="clip0_11_263">
<rect width="209.96" height="209.55" fill="white"/>
</clipPath>
</defs>
</svg>
