<svg width="210" height="210" viewBox="0 0 210 210" fill="none" xmlns="http://www.w3.org/2000/svg">
<g clip-path="url(#clip0_11_279)">
<path d="M190.25 43.58L190.02 44.2601L190.25 43.58C192.062 44.1992 193.753 45.1262 195.25 46.32C197.671 48.2311 199.547 50.7451 200.69 53.61L200.69 53.68C201.89 56.7636 202.478 60.0516 202.42 63.36C202.255 69.2436 201.14 75.0618 199.12 80.59C197.574 85.0317 195.753 89.3734 193.67 93.59C183.19 115.01 179.5 139.5 179.5 155.52C179.379 160.104 179.826 164.686 180.83 169.16C181.409 171.283 182.131 173.364 182.99 175.39C183.29 176.1 183.55 176.64 183.73 177.01L183.94 177.41L183.99 177.52C184.092 177.7 184.147 177.903 184.15 178.11C184.143 178.315 184.084 178.515 183.977 178.69C183.87 178.866 183.719 179.01 183.54 179.11C183.362 179.218 183.158 179.273 182.95 179.27C182.746 179.263 182.547 179.205 182.372 179.1C182.197 178.995 182.052 178.847 181.95 178.67C180.478 175.83 179.337 172.831 178.55 169.73C177.493 165.063 177.019 160.283 177.14 155.5C177.224 145.755 178.262 136.042 180.24 126.5C182.561 114.715 186.354 103.269 191.53 92.43C193.575 88.3562 195.362 84.1579 196.88 79.86C198.817 74.5835 199.887 69.0284 200.05 63.41C200.107 60.4296 199.591 57.466 198.53 54.68C198.051 54.0937 197.442 53.628 196.75 53.32C195.302 52.6437 193.777 52.1435 192.21 51.83C190.66 51.48 189.21 51.28 188.48 51.18C187.622 51.0726 186.822 50.6902 186.2 50.09C185.818 49.7303 185.514 49.2965 185.306 48.815C185.098 48.3335 184.99 47.8145 184.99 47.29C184.995 47.0789 185.015 46.8683 185.05 46.66L185.05 46.59L185.05 46.52C185.249 45.6363 185.743 44.8464 186.449 44.2796C187.156 43.7129 188.034 43.4027 188.94 43.4C189.384 43.3887 189.826 43.4495 190.25 43.58Z" fill="#E3D6A5"/>
<path d="M179.28 183.2C179.457 183.302 179.605 183.447 179.71 183.622C179.815 183.797 179.873 183.996 179.88 184.2C179.881 184.408 179.826 184.612 179.72 184.79C179.561 185.063 179.301 185.263 178.997 185.347C178.692 185.431 178.367 185.393 178.09 185.24C178.09 185.24 177.91 185.14 177.54 184.96C175.025 183.746 172.4 182.775 169.7 182.06C165.225 181.057 160.644 180.61 156.06 180.73C140.06 180.73 115.55 184.42 94.13 194.89C89.9127 196.975 85.5711 198.798 81.13 200.35C75.6027 202.372 69.7836 203.484 63.9 203.64C60.5923 203.701 57.3044 203.117 54.22 201.92L54.16 201.92C51.294 200.774 48.7774 198.899 46.86 196.48C45.6722 194.981 44.7489 193.29 44.13 191.48L44.81 191.25L44.13 191.48C43.9834 191.066 43.909 190.629 43.91 190.19C43.911 189.281 44.2215 188.399 44.7905 187.691C45.3594 186.982 46.1528 186.488 47.04 186.29C47.683 186.167 48.3465 186.207 48.9701 186.406C49.5937 186.605 50.1575 186.957 50.61 187.43C51.2102 188.052 51.5927 188.852 51.7 189.71C51.9039 191.505 52.2381 193.283 52.7 195.03C52.9703 196.063 53.3386 197.067 53.8 198.03C54.1079 198.722 54.5738 199.331 55.16 199.81C57.9425 200.87 60.9029 201.386 63.88 201.33C69.5017 201.167 75.0601 200.097 80.34 198.16C84.6938 196.647 88.9488 194.864 93.08 192.82C103.916 187.646 115.359 183.853 127.14 181.53C136.682 179.553 146.395 178.515 156.14 178.43C160.924 178.305 165.704 178.778 170.37 179.84C173.459 180.616 176.448 181.744 179.28 183.2Z" fill="#E3D6A5"/>
<path d="M151.55 178.77C152.028 179.027 152.458 179.365 152.82 179.77C153.693 180.746 154.19 182.001 154.22 183.31C154.265 183.917 154.157 184.525 153.905 185.079C153.653 185.633 153.266 186.115 152.78 186.48C152.472 186.636 152.134 186.724 151.79 186.74C151.445 186.755 151.101 186.697 150.78 186.57C150.344 186.358 149.992 186.006 149.78 185.57C149.35 184.76 149.7 184.1 149.53 183.3C148.94 180.56 147.07 182.01 146.53 182.92C146.223 183.572 146.089 184.291 146.14 185.01C146.44 192.26 154.46 190.1 158.2 188.52C161.94 186.94 165.52 184.28 169.56 183.22C171.65 182.67 174.51 182.8 176.21 184.57L175.51 185.16C175.24 185.27 174.97 185.39 174.7 185.51C173.285 185.153 171.815 185.071 170.37 185.27C167.37 185.58 164.58 186.97 161.89 188.27C159.626 189.453 157.247 190.401 154.79 191.1C152.65 191.66 150.05 192.33 147.79 191.53C146.072 190.811 144.682 189.48 143.888 187.796C143.094 186.112 142.952 184.193 143.49 182.41C144.64 179.06 148.27 177 151.55 178.77Z" fill="#E3D6A5"/>
<path d="M158.76 189.02C158.95 188.93 159.15 188.85 159.33 188.76L158.76 189.02Z" fill="#E3D6A5"/>
<path d="M179.36 209.4C178.22 209.728 177.016 209.766 175.858 209.509C174.7 209.252 173.624 208.71 172.73 207.93C170.89 206.23 170.12 203.03 171.44 201.05C171.793 200.586 172.261 200.222 172.797 199.993C173.334 199.764 173.92 199.678 174.499 199.743C175.079 199.809 175.631 200.024 176.103 200.367C176.575 200.71 176.949 201.169 177.19 201.7C177.75 203.01 177.55 204.62 178.37 205.77C178.71 206.219 179.183 206.55 179.721 206.715C180.26 206.88 180.837 206.872 181.37 206.69C182.39 206.265 183.236 205.507 183.77 204.54C188.28 197.36 182.77 187.54 175.19 186.02C168.26 184.65 162.75 189.58 157.96 194.61C155.43 197.27 154.22 203.33 158.62 205.36C159.05 205.56 159.62 205.84 159.56 206.36C159.54 206.536 159.462 206.701 159.34 206.83C158.929 207.324 158.409 207.715 157.82 207.972C157.232 208.229 156.591 208.345 155.95 208.31C154.168 208.218 152.486 207.458 151.24 206.18C150.68 205.61 150.03 203.58 149.46 203.31C148.89 203.04 146.59 204.49 145.99 204.78C140.24 207.56 134.11 211.41 127.33 209.45C125.87 209.03 126.59 207.66 127.41 207.08C129.1 205.88 130.41 204.03 132.17 203C131.9 202.31 131.26 201.7 130.97 200.94C130.643 200.069 130.5 199.139 130.55 198.21C130.586 196.776 131.122 195.4 132.067 194.321C133.011 193.241 134.304 192.526 135.72 192.3C136.16 192.22 136.48 192.79 136.21 193.24C134.58 195.95 138.21 197.7 139.77 197.82C141.583 197.908 143.4 197.773 145.18 197.42C148.596 196.738 151.772 195.169 154.39 192.87C158.8 188.33 163.92 184.38 169.91 182.87C174.34 181.77 179.56 182.58 183.07 186.2C184.427 187.636 185.469 189.339 186.13 191.2C186.469 192.107 186.733 193.04 186.92 193.99C188.18 200.53 185.1 207.86 179.36 209.4Z" fill="#E3D6A5"/>
<path d="M178.37 153.12C178.627 153.598 178.966 154.028 179.37 154.39C180.347 155.26 181.602 155.753 182.91 155.78C183.517 155.827 184.126 155.719 184.68 155.467C185.234 155.216 185.716 154.828 186.08 154.34C186.236 154.032 186.324 153.694 186.34 153.35C186.355 153.005 186.297 152.661 186.17 152.34C185.954 151.907 185.603 151.556 185.17 151.34C184.37 150.92 183.7 151.26 182.91 151.09C180.17 150.5 181.62 148.63 182.53 148.09C183.177 147.779 183.894 147.645 184.61 147.7C191.87 147.99 189.71 156.01 188.13 159.76C186.55 163.51 183.89 167.08 182.83 171.11C182.28 173.21 182.41 176.11 184.18 177.76L184.76 177.06C184.87 176.79 185 176.52 185.12 176.26C184.763 174.842 184.681 173.369 184.88 171.92C185.18 168.92 186.58 166.13 187.88 163.44C189.068 161.177 190.02 158.798 190.72 156.34C191.28 154.2 191.95 151.6 191.15 149.34C190.427 147.625 189.096 146.238 187.413 145.444C185.73 144.651 183.813 144.507 182.03 145.04C178.65 146.2 176.59 149.86 178.37 153.12Z" fill="#E3D6A5"/>
<path d="M188.61 160.33L188.36 160.9L188.61 160.33Z" fill="#E3D6A5"/>
<path d="M208.97 180.93C209.298 179.789 209.336 178.583 209.079 177.423C208.822 176.263 208.28 175.186 207.5 174.29C205.8 172.45 202.6 171.69 200.62 173.01C200.156 173.363 199.792 173.831 199.563 174.367C199.334 174.904 199.248 175.49 199.313 176.07C199.379 176.649 199.594 177.201 199.937 177.673C200.28 178.145 200.739 178.519 201.27 178.76C202.58 179.31 204.19 179.11 205.33 179.94C205.78 180.279 206.112 180.752 206.277 181.291C206.443 181.83 206.433 182.407 206.25 182.94C205.828 183.956 205.074 184.799 204.11 185.33C196.93 189.84 187.11 184.33 185.59 176.75C184.22 169.83 189.14 164.32 194.18 159.53C196.84 156.99 202.9 155.79 204.93 160.19C205.13 160.61 205.41 161.19 205.93 161.13C206.104 161.103 206.267 161.027 206.4 160.91C206.894 160.497 207.285 159.975 207.542 159.385C207.799 158.795 207.915 158.153 207.88 157.51C207.786 155.729 207.021 154.05 205.74 152.81C205.17 152.25 203.15 151.59 202.88 151.02C202.61 150.45 204.06 148.15 204.35 147.55C207.12 141.8 210.97 135.67 208.97 128.86C208.54 127.4 207.18 128.12 206.6 128.94C205.4 130.64 203.55 131.94 202.52 133.7C201.83 133.43 201.22 132.8 200.46 132.51C199.59 132.178 198.66 132.035 197.73 132.09C196.298 132.125 194.923 132.661 193.843 133.603C192.764 134.545 192.048 135.836 191.82 137.25C191.74 137.7 192.31 138.02 192.76 137.75C195.47 136.11 197.22 139.75 197.34 141.31C197.423 143.12 197.289 144.932 196.94 146.71C196.258 150.129 194.689 153.309 192.39 155.93C187.85 160.34 183.9 165.45 182.39 171.45C181.29 175.88 182.1 181.1 185.72 184.6C187.159 185.955 188.86 187 190.72 187.67C191.63 188.009 192.566 188.27 193.52 188.45C200.13 189.75 207.48 186.66 208.97 180.93Z" fill="#E3D6A5"/>
<path d="M161.91 178.59C164.03 175 170.31 175.59 174.91 176.59C175.46 176.71 175.99 176.84 176.47 176.96C176.28 176.5 176.09 175.96 175.92 175.48C174.37 171.06 173.04 164.89 176.34 162.35C170.5 161.44 169.14 166.87 173.42 174.26C165.54 170.86 160.31 172.86 161.91 178.59Z" fill="#E3D6A5"/>
<path d="M186.53 1.31L186.53 153.75C186.53 153.923 186.496 154.095 186.43 154.255C186.363 154.415 186.266 154.561 186.143 154.683C186.021 154.806 185.875 154.903 185.715 154.969C185.555 155.036 185.383 155.07 185.21 155.07C185.037 155.07 184.865 155.036 184.705 154.969C184.545 154.903 184.399 154.806 184.277 154.683C184.154 154.561 184.057 154.415 183.991 154.255C183.924 154.095 183.89 153.923 183.89 153.75L183.89 1.31C183.89 0.959912 184.029 0.624135 184.277 0.376587C184.524 0.129039 184.86 -0.0100098 185.21 -0.0100098C185.56 -0.0100098 185.896 0.129039 186.143 0.376587C186.391 0.624135 186.53 0.959912 186.53 1.31Z" fill="#E3D6A5"/>
<path d="M152.82 185.31C152.82 185.66 152.681 185.996 152.433 186.243C152.186 186.491 151.85 186.63 151.5 186.63L1.32004 186.63C0.969955 186.63 0.634201 186.491 0.386658 186.243C0.139114 185.996 3.04446e-05 185.66 3.04599e-05 185.31C3.04752e-05 184.96 0.139114 184.624 0.386658 184.377C0.634201 184.129 0.969955 183.99 1.32004 183.99L151.5 183.99C151.673 183.99 151.845 184.024 152.005 184.09C152.165 184.157 152.311 184.254 152.433 184.377C152.556 184.499 152.653 184.645 152.72 184.805C152.786 184.965 152.82 185.137 152.82 185.31Z" fill="#E3D6A5"/>
<path d="M202.7 179.1C199.329 179.098 195.992 179.779 192.89 181.1C188.357 183.043 184.477 186.247 181.71 190.33C178.872 194.488 177.356 199.406 177.36 204.44L177.36 204.63C177.314 205.467 176.949 206.255 176.339 206.832C175.73 207.408 174.924 207.729 174.085 207.729C173.246 207.729 172.44 207.408 171.831 206.832C171.222 206.255 170.856 205.467 170.81 204.63L170.81 204.42C170.807 200.168 171.668 195.96 173.34 192.05C175.777 186.372 179.793 181.513 184.91 178.05C190.157 174.484 196.356 172.578 202.7 172.58C203.129 172.58 203.555 172.665 203.951 172.829C204.348 172.993 204.709 173.234 205.012 173.538C205.316 173.841 205.557 174.202 205.721 174.599C205.885 174.995 205.97 175.421 205.97 175.85C205.97 176.28 205.885 176.705 205.721 177.102C205.557 177.498 205.316 177.859 205.012 178.162C204.709 178.466 204.348 178.707 203.951 178.871C203.555 179.036 203.129 179.12 202.7 179.12L202.7 179.1Z" fill="#E3D6A5"/>
<path d="M192.78 189.72C191.786 189.722 190.823 190.069 190.055 190.701C189.288 191.333 188.763 192.212 188.57 193.187C188.378 194.163 188.529 195.175 188.999 196.052C189.469 196.928 190.228 197.615 191.147 197.994C192.066 198.374 193.088 198.423 194.04 198.134C194.991 197.845 195.813 197.235 196.365 196.408C196.917 195.581 197.166 194.588 197.068 193.598C196.971 192.609 196.533 191.683 195.83 190.98C195.43 190.579 194.955 190.261 194.431 190.044C193.908 189.828 193.347 189.718 192.78 189.72ZM192.78 192.35C193.166 192.35 193.541 192.483 193.84 192.728C194.139 192.973 194.344 193.314 194.419 193.693C194.495 194.072 194.437 194.465 194.255 194.806C194.074 195.147 193.779 195.414 193.422 195.562C193.065 195.711 192.668 195.73 192.298 195.619C191.929 195.507 191.609 195.27 191.394 194.949C191.179 194.628 191.082 194.242 191.12 193.858C191.157 193.473 191.327 193.113 191.6 192.84C191.914 192.529 192.338 192.353 192.78 192.35Z" fill="#E3D6A5"/>
</g>
<defs>
<clipPath id="clip0_11_279">
<rect width="209.96" height="209.55" fill="white" transform="translate(209.55) rotate(90)"/>
</clipPath>
</defs>
</svg>
